<?xml version="1.0" encoding="utf-8" standalone="no"?>
<!DOCTYPE svg PUBLIC "-//W3C//DTD SVG 1.1//EN"
  "http://www.w3.org/Graphics/SVG/1.1/DTD/svg11.dtd">
<svg xmlns:xlink="http://www.w3.org/1999/xlink" width="538.0325pt" height="220.375797pt" viewBox="0 0 538.0325 220.375797" xmlns="http://www.w3.org/2000/svg" version="1.1">
 <metadata>
  <rdf:RDF xmlns:dc="http://purl.org/dc/elements/1.1/" xmlns:cc="http://creativecommons.org/ns#" xmlns:rdf="http://www.w3.org/1999/02/22-rdf-syntax-ns#">
   <cc:Work>
    <dc:type rdf:resource="http://purl.org/dc/dcmitype/StillImage"/>
    <dc:date>2026-07-19T21:23:11.124882</dc:date>
    <dc:format>image/svg+xml</dc:format>
    <dc:creator>
     <cc:Agent>
      <dc:title>Matplotlib v3.10.8, https://matplotlib.org/</dc:title>
     </cc:Agent>
    </dc:creator>
   </cc:Work>
  </rdf:RDF>
 </metadata>
 <defs>
  <style type="text/css">*{stroke-linejoin: round; stroke-linecap: butt}</style>
 </defs>
 <g id="figure_1">
  <g id="patch_1">
   <path d="M 0 220.375797 
L 538.0325 220.375797 
L 538.0325 0 
L 0 0 
z
" style="fill: #0a0c0f"/>
  </g>
  <g id="axes_1">
   <g id="patch_2">
    <path d="M 56.5325 194.562047 
L 530.8325 194.562047 
L 530.8325 22.698047 
L 56.5325 22.698047 
z
" style="fill: #10141a"/>
   </g>
   <g id="matplotlib.axis_1">
    <g id="xtick_1">
     <g id="line2d_1">
      <path d="M 70.042864 194.562047 
L 70.042864 22.698047 
" clip-path="url(#p162f41b6f6)" style="fill: none; stroke: #2a323c; stroke-opacity: 0.35; stroke-width: 0.8; stroke-linecap: square"/>
     </g>
     <g id="line2d_2">
      <defs>
       <path id="m3511404ac9" d="M 0 0 
L 0 3.5 
" style="stroke: #8b96a3; stroke-width: 0.8"/>
      </defs>
      <g>
       <use xlink:href="#m3511404ac9" x="70.042864" y="194.562047" style="fill: #8b96a3; stroke: #8b96a3; stroke-width: 0.8"/>
      </g>
     </g>
     <g id="text_1">
      <text style="font-size: 12px; font-family: 'DejaVu Sans'; text-anchor: middle; fill: #8b96a3" x="70.042864" y="210.680172" transform="rotate(-0 70.042864 210.680172)">Jul 01</text>
     </g>
    </g>
    <g id="xtick_2">
     <g id="line2d_3">
      <path d="M 141.331591 194.562047 
L 141.331591 22.698047 
" clip-path="url(#p162f41b6f6)" style="fill: none; stroke: #2a323c; stroke-opacity: 0.35; stroke-width: 0.8; stroke-linecap: square"/>
     </g>
     <g id="line2d_4">
      <g>
       <use xlink:href="#m3511404ac9" x="141.331591" y="194.562047" style="fill: #8b96a3; stroke: #8b96a3; stroke-width: 0.8"/>
      </g>
     </g>
     <g id="text_2">
      <text style="font-size: 12px; font-family: 'DejaVu Sans'; text-anchor: middle; fill: #8b96a3" x="141.331591" y="210.680172" transform="rotate(-0 141.331591 210.680172)">Sep 01</text>
     </g>
    </g>
    <g id="xtick_3">
     <g id="line2d_5">
      <path d="M 211.4705 194.562047 
L 211.4705 22.698047 
" clip-path="url(#p162f41b6f6)" style="fill: none; stroke: #2a323c; stroke-opacity: 0.35; stroke-width: 0.8; stroke-linecap: square"/>
     </g>
     <g id="line2d_6">
      <g>
       <use xlink:href="#m3511404ac9" x="211.4705" y="194.562047" style="fill: #8b96a3; stroke: #8b96a3; stroke-width: 0.8"/>
      </g>
     </g>
     <g id="text_3">
      <text style="font-size: 12px; font-family: 'DejaVu Sans'; text-anchor: middle; fill: #8b96a3" x="211.4705" y="210.680172" transform="rotate(-0 211.4705 210.680172)">Nov 01</text>
     </g>
    </g>
    <g id="xtick_4">
     <g id="line2d_7">
      <path d="M 281.609409 194.562047 
L 281.609409 22.698047 
" clip-path="url(#p162f41b6f6)" style="fill: none; stroke: #2a323c; stroke-opacity: 0.35; stroke-width: 0.8; stroke-linecap: square"/>
     </g>
     <g id="line2d_8">
      <g>
       <use xlink:href="#m3511404ac9" x="281.609409" y="194.562047" style="fill: #8b96a3; stroke: #8b96a3; stroke-width: 0.8"/>
      </g>
     </g>
     <g id="text_4">
      <text style="font-size: 12px; font-family: 'DejaVu Sans'; text-anchor: middle; fill: #8b96a3" x="281.609409" y="210.680172" transform="rotate(-0 281.609409 210.680172)">Jan 01</text>
     </g>
    </g>
    <g id="xtick_5">
     <g id="line2d_9">
      <path d="M 349.448682 194.562047 
L 349.448682 22.698047 
" clip-path="url(#p162f41b6f6)" style="fill: none; stroke: #2a323c; stroke-opacity: 0.35; stroke-width: 0.8; stroke-linecap: square"/>
     </g>
     <g id="line2d_10">
      <g>
       <use xlink:href="#m3511404ac9" x="349.448682" y="194.562047" style="fill: #8b96a3; stroke: #8b96a3; stroke-width: 0.8"/>
      </g>
     </g>
     <g id="text_5">
      <text style="font-size: 12px; font-family: 'DejaVu Sans'; text-anchor: middle; fill: #8b96a3" x="349.448682" y="210.680172" transform="rotate(-0 349.448682 210.680172)">Mar 01</text>
     </g>
    </g>
    <g id="xtick_6">
     <g id="line2d_11">
      <path d="M 419.587591 194.562047 
L 419.587591 22.698047 
" clip-path="url(#p162f41b6f6)" style="fill: none; stroke: #2a323c; stroke-opacity: 0.35; stroke-width: 0.8; stroke-linecap: square"/>
     </g>
     <g id="line2d_12">
      <g>
       <use xlink:href="#m3511404ac9" x="419.587591" y="194.562047" style="fill: #8b96a3; stroke: #8b96a3; stroke-width: 0.8"/>
      </g>
     </g>
     <g id="text_6">
      <text style="font-size: 12px; font-family: 'DejaVu Sans'; text-anchor: middle; fill: #8b96a3" x="419.587591" y="210.680172" transform="rotate(-0 419.587591 210.680172)">May 01</text>
     </g>
    </g>
    <g id="xtick_7">
     <g id="line2d_13">
      <path d="M 489.7265 194.562047 
L 489.7265 22.698047 
" clip-path="url(#p162f41b6f6)" style="fill: none; stroke: #2a323c; stroke-opacity: 0.35; stroke-width: 0.8; stroke-linecap: square"/>
     </g>
     <g id="line2d_14">
      <g>
       <use xlink:href="#m3511404ac9" x="489.7265" y="194.562047" style="fill: #8b96a3; stroke: #8b96a3; stroke-width: 0.8"/>
      </g>
     </g>
     <g id="text_7">
      <text style="font-size: 12px; font-family: 'DejaVu Sans'; text-anchor: middle; fill: #8b96a3" x="489.7265" y="210.680172" transform="rotate(-0 489.7265 210.680172)">Jul 01</text>
     </g>
    </g>
   </g>
   <g id="matplotlib.axis_2">
    <g id="ytick_1">
     <g id="line2d_15">
      <path d="M 56.5325 194.562047 
L 530.8325 194.562047 
" clip-path="url(#p162f41b6f6)" style="fill: none; stroke: #2a323c; stroke-opacity: 0.35; stroke-width: 0.8; stroke-linecap: square"/>
     </g>
     <g id="line2d_16">
      <defs>
       <path id="m67d2ea1f60" d="M 0 0 
L -3.5 0 
" style="stroke: #8b96a3; stroke-width: 0.8"/>
      </defs>
      <g>
       <use xlink:href="#m67d2ea1f60" x="56.5325" y="194.562047" style="fill: #8b96a3; stroke: #8b96a3; stroke-width: 0.8"/>
      </g>
     </g>
     <g id="text_8">
      <text style="font-size: 12px; font-family: 'DejaVu Sans'; text-anchor: end; fill: #8b96a3" x="49.5325" y="199.121109" transform="rotate(-0 49.5325 199.121109)">0.00</text>
     </g>
    </g>
    <g id="ytick_2">
     <g id="line2d_17">
      <path d="M 56.5325 158.937027 
L 530.8325 158.937027 
" clip-path="url(#p162f41b6f6)" style="fill: none; stroke: #2a323c; stroke-opacity: 0.35; stroke-width: 0.8; stroke-linecap: square"/>
     </g>
     <g id="line2d_18">
      <g>
       <use xlink:href="#m67d2ea1f60" x="56.5325" y="158.937027" style="fill: #8b96a3; stroke: #8b96a3; stroke-width: 0.8"/>
      </g>
     </g>
     <g id="text_9">
      <text style="font-size: 12px; font-family: 'DejaVu Sans'; text-anchor: end; fill: #8b96a3" x="49.5325" y="163.49609" transform="rotate(-0 49.5325 163.49609)">0.02</text>
     </g>
    </g>
    <g id="ytick_3">
     <g id="line2d_19">
      <path d="M 56.5325 123.312008 
L 530.8325 123.312008 
" clip-path="url(#p162f41b6f6)" style="fill: none; stroke: #2a323c; stroke-opacity: 0.35; stroke-width: 0.8; stroke-linecap: square"/>
     </g>
     <g id="line2d_20">
      <g>
       <use xlink:href="#m67d2ea1f60" x="56.5325" y="123.312008" style="fill: #8b96a3; stroke: #8b96a3; stroke-width: 0.8"/>
      </g>
     </g>
     <g id="text_10">
      <text style="font-size: 12px; font-family: 'DejaVu Sans'; text-anchor: end; fill: #8b96a3" x="49.5325" y="127.871071" transform="rotate(-0 49.5325 127.871071)">0.04</text>
     </g>
    </g>
    <g id="ytick_4">
     <g id="line2d_21">
      <path d="M 56.5325 87.686989 
L 530.8325 87.686989 
" clip-path="url(#p162f41b6f6)" style="fill: none; stroke: #2a323c; stroke-opacity: 0.35; stroke-width: 0.8; stroke-linecap: square"/>
     </g>
     <g id="line2d_22">
      <g>
       <use xlink:href="#m67d2ea1f60" x="56.5325" y="87.686989" style="fill: #8b96a3; stroke: #8b96a3; stroke-width: 0.8"/>
      </g>
     </g>
     <g id="text_11">
      <text style="font-size: 12px; font-family: 'DejaVu Sans'; text-anchor: end; fill: #8b96a3" x="49.5325" y="92.246051" transform="rotate(-0 49.5325 92.246051)">0.06</text>
     </g>
    </g>
    <g id="ytick_5">
     <g id="line2d_23">
      <path d="M 56.5325 52.061969 
L 530.8325 52.061969 
" clip-path="url(#p162f41b6f6)" style="fill: none; stroke: #2a323c; stroke-opacity: 0.35; stroke-width: 0.8; stroke-linecap: square"/>
     </g>
     <g id="line2d_24">
      <g>
       <use xlink:href="#m67d2ea1f60" x="56.5325" y="52.061969" style="fill: #8b96a3; stroke: #8b96a3; stroke-width: 0.8"/>
      </g>
     </g>
     <g id="text_12">
      <text style="font-size: 12px; font-family: 'DejaVu Sans'; text-anchor: end; fill: #8b96a3" x="49.5325" y="56.621032" transform="rotate(-0 49.5325 56.621032)">0.08</text>
     </g>
    </g>
    <g id="text_13">
     <text style="font-size: 12px; font-family: 'DejaVu Sans'; text-anchor: middle; fill: #8b96a3" x="16.318125" y="108.630047" transform="rotate(-90 16.318125 108.630047)">degraded ratio</text>
    </g>
   </g>
   <g id="FillBetweenPolyCollection_1">
    <defs>
     <path id="mfa286b08e8" d="M 84.9905 -45.467185 
L 84.9905 -24.07461 
L 86.140318 -25.275079 
L 87.290136 -24.357973 
L 88.439955 -24.227531 
L 89.589773 -24.720257 
L 133.282864 -25.519921 
L 134.432682 -24.935353 
L 135.5825 -25.574154 
L 136.732318 -25.028622 
L 137.882136 -25.005002 
L 139.031955 -24.918534 
L 140.181773 -25.216583 
L 141.331591 -24.939649 
L 142.481409 -24.624166 
L 143.631227 -24.35322 
L 144.781045 -24.486125 
L 145.930864 -24.259218 
L 147.080682 -24.136932 
L 148.2305 -23.958541 
L 149.380318 -24.109928 
L 340.250136 -24.353064 
L 341.399955 -24.427825 
L 342.549773 -24.476342 
L 343.699591 -9.461026 
L 344.849409 -9.369191 
L 345.999227 -9.6176 
L 347.149045 -9.733501 
L 348.298864 -10.001142 
L 349.448682 -10.190669 
L 350.5985 -10.322549 
L 351.748318 -11.184859 
L 352.898136 -11.034002 
L 354.047955 -11.648237 
L 355.197773 -11.448481 
L 356.347591 -11.820946 
L 357.497409 -11.180458 
L 358.647227 -11.180458 
L 359.797045 -11.926539 
L 360.946864 -12.110545 
L 362.096682 -12.83497 
L 363.2465 -12.786493 
L 364.396318 -13.204218 
L 365.546136 -13.204218 
L 366.695955 -13.764495 
L 367.845773 -14.76423 
L 368.995591 -15.221937 
L 370.145409 -15.221937 
L 371.295227 -15.675499 
L 372.445045 -15.245376 
L 373.594864 -15.000906 
L 374.744682 -15.025679 
L 375.8945 -26.307723 
L 377.044318 -26.279406 
L 378.194136 -26.512355 
L 379.343955 -25.662955 
L 380.493773 -25.718813 
L 381.643591 -25.573814 
L 382.793409 -25.041991 
L 383.943227 -24.628468 
L 385.093045 -24.604377 
L 386.242864 -23.891375 
L 387.392682 -23.88011 
L 388.5425 -23.676631 
L 389.692318 -23.734204 
L 390.842136 -24.369605 
L 391.991955 -24.335143 
L 393.141773 -24.731816 
L 394.291591 -25.345107 
L 395.441409 -26.091052 
L 396.591227 -25.718093 
L 397.741045 -26.438673 
L 398.890864 -25.868735 
L 400.040682 -25.383285 
L 401.1905 -25.545938 
L 402.340318 -26.290937 
L 403.490136 -25.580063 
L 404.639955 -25.753318 
L 405.789773 -25.99184 
L 406.939591 -26.363253 
L 408.089409 -26.558535 
L 409.239227 -26.432221 
L 410.389045 -24.677072 
L 411.538864 -25.74345 
L 412.688682 -26.009826 
L 413.8385 -26.140836 
L 414.988318 -26.163644 
L 416.138136 -25.319359 
L 417.287955 -25.477407 
L 418.437773 -26.305322 
L 419.587591 -26.295143 
L 420.737409 -26.306516 
L 421.887227 -26.545897 
L 423.037045 -26.572184 
L 426.4865 -25.257521 
L 427.636318 -25.533637 
L 428.786136 -24.409746 
L 429.935955 -23.961938 
L 431.085773 -24.536405 
L 432.235591 -24.808147 
L 433.385409 -24.088867 
L 434.535227 -23.211842 
L 435.685045 -22.749324 
L 436.834864 -21.363972 
L 437.984682 -21.262175 
L 439.1345 -21.230424 
L 440.284318 -22.338018 
L 441.434136 -22.227866 
L 442.583955 -21.404092 
L 443.733773 -20.9105 
L 444.883591 -21.034338 
L 446.033409 -20.445322 
L 447.183227 -19.838101 
L 448.333045 -19.79838 
L 449.482864 -20.130102 
L 450.632682 -21.035702 
L 451.7825 -21.280399 
L 452.932318 -20.624549 
L 454.082136 -19.561006 
L 455.231955 -19.665893 
L 456.381773 -19.596571 
L 457.531591 -18.463934 
L 458.681409 -18.815939 
L 459.831227 -18.414677 
L 460.981045 -18.585081 
L 462.130864 -18.404633 
L 463.280682 -18.491885 
L 464.4305 -18.403624 
L 465.580318 -19.257157 
L 466.730136 -17.635246 
L 467.879955 -18.000938 
L 469.029773 -18.693376 
L 470.179591 -18.856376 
L 471.329409 -18.928728 
L 472.479227 -19.129672 
L 473.629045 -18.978558 
L 474.778864 -19.927214 
L 475.928682 -19.829048 
L 477.0785 -20.274679 
L 478.228318 -20.022073 
L 479.378136 -21.571891 
L 480.527955 -22.402298 
L 481.677773 -20.875734 
L 482.827591 -19.568247 
L 483.977409 -19.926986 
L 485.127227 -20.33551 
L 486.277045 -20.213145 
L 487.426864 -20.076459 
L 488.576682 -20.034735 
L 489.7265 -21.777402 
L 490.876318 -23.15814 
L 492.026136 -22.196864 
L 493.175955 -21.969198 
L 494.325773 -21.878073 
L 495.475591 -21.099824 
L 496.625409 -21.155109 
L 497.775227 -20.748091 
L 498.925045 -22.898664 
L 500.074864 -22.171332 
L 501.224682 -22.696799 
L 502.3745 -22.524958 
L 503.524318 -22.281168 
L 504.674136 -21.535291 
L 505.823955 -20.811526 
L 506.973773 -20.867939 
L 508.123591 -20.954675 
L 509.273409 -20.290787 
L 509.273409 -71.402136 
L 509.273409 -71.402136 
L 508.123591 -71.616151 
L 506.973773 -71.588378 
L 505.823955 -71.084969 
L 504.674136 -65.284638 
L 503.524318 -68.139433 
L 502.3745 -68.175555 
L 501.224682 -68.194562 
L 500.074864 -67.524046 
L 498.925045 -67.725509 
L 497.775227 -75.855996 
L 496.625409 -79.838489 
L 495.475591 -80.975248 
L 494.325773 -81.163964 
L 493.175955 -81.174625 
L 492.026136 -81.201423 
L 490.876318 -81.43613 
L 489.7265 -80.119545 
L 488.576682 -78.096139 
L 487.426864 -82.024059 
L 486.277045 -82.052775 
L 485.127227 -82.070366 
L 483.977409 -81.982684 
L 482.827591 -81.857941 
L 481.677773 -82.815187 
L 480.527955 -85.474563 
L 479.378136 -79.688895 
L 478.228318 -78.694069 
L 477.0785 -78.74682 
L 475.928682 -78.59446 
L 474.778864 -78.623525 
L 473.629045 -77.663699 
L 472.479227 -77.754326 
L 471.329409 -76.199466 
L 470.179591 -76.182755 
L 469.029773 -76.154907 
L 467.879955 -75.91855 
L 466.730136 -75.762589 
L 465.580318 -67.384648 
L 464.4305 -69.243315 
L 463.280682 -66.012419 
L 462.130864 -65.946992 
L 460.981045 -66.008285 
L 459.831227 -65.962395 
L 458.681409 -67.80042 
L 457.531591 -67.707112 
L 456.381773 -70.913093 
L 455.231955 -65.347339 
L 454.082136 -65.312271 
L 452.932318 -66.78065 
L 451.7825 -67.040871 
L 450.632682 -66.980211 
L 449.482864 -65.722863 
L 448.333045 -61.72869 
L 447.183227 -61.739862 
L 446.033409 -61.972373 
L 444.883591 -62.490277 
L 443.733773 -67.665234 
L 442.583955 -67.998652 
L 441.434136 -69.910371 
L 440.284318 -70.00379 
L 439.1345 -69.062945 
L 437.984682 -69.069364 
L 436.834864 -69.082076 
L 435.685045 -70.470386 
L 434.535227 -70.644029 
L 433.385409 -72.044461 
L 432.235591 -65.078079 
L 431.085773 -64.840893 
L 429.935955 -64.690136 
L 428.786136 -64.891212 
L 427.636318 -65.510403 
L 426.4865 -63.712633 
L 423.037045 -64.573641 
L 421.887227 -61.177381 
L 420.737409 -61.162298 
L 419.587591 -61.160948 
L 418.437773 -60.998091 
L 417.287955 -60.782702 
L 416.138136 -60.775347 
L 414.988318 -62.399367 
L 413.8385 -62.396728 
L 412.688682 -62.387783 
L 411.538864 -62.297909 
L 410.389045 -61.799331 
L 409.239227 -56.061814 
L 408.089409 -56.520768 
L 406.939591 -53.764263 
L 405.789773 -53.372283 
L 404.639955 -53.35634 
L 403.490136 -53.338747 
L 402.340318 -53.671176 
L 401.1905 -51.591621 
L 400.040682 -51.436193 
L 398.890864 -49.602082 
L 397.741045 -50.139063 
L 396.591227 -49.85451 
L 395.441409 -49.952309 
L 394.291591 -49.591334 
L 393.141773 -51.642349 
L 391.991955 -51.186566 
L 390.842136 -50.872194 
L 389.692318 -50.591523 
L 388.5425 -50.58548 
L 387.392682 -50.674634 
L 386.242864 -48.894842 
L 385.093045 -50.446573 
L 383.943227 -50.447928 
L 382.793409 -48.851146 
L 381.643591 -49.37535 
L 380.493773 -49.395753 
L 379.343955 -49.375272 
L 378.194136 -50.128998 
L 377.044318 -49.725786 
L 375.8945 -49.443004 
L 374.744682 -70.916348 
L 373.594864 -70.902952 
L 372.445045 -70.976563 
L 371.295227 -71.144431 
L 370.145409 -70.860046 
L 368.995591 -70.860046 
L 367.845773 -70.668869 
L 366.695955 -69.938246 
L 365.546136 -69.493388 
L 364.396318 -69.493388 
L 363.2465 -69.313122 
L 362.096682 -69.328261 
L 360.946864 -67.406256 
L 359.797045 -67.310351 
L 358.647227 -66.453306 
L 357.497409 -66.453306 
L 356.347591 -66.868846 
L 355.197773 -66.681488 
L 354.047955 -66.901599 
L 352.898136 -65.861815 
L 351.748318 -65.927253 
L 350.5985 -65.071928 
L 349.448682 -64.885728 
L 348.298864 -64.795344 
L 347.149045 -64.655842 
L 345.999227 -64.428215 
L 344.849409 -64.231312 
L 343.699591 -64.610236 
L 342.549773 -39.072816 
L 341.399955 -38.994102 
L 340.250136 -39.175831 
L 149.380318 -39.150511 
L 148.2305 -39.296965 
L 147.080682 -39.603074 
L 145.930864 -39.914485 
L 144.781045 -40.25786 
L 143.631227 -40.489466 
L 142.481409 -40.879279 
L 141.331591 -41.294109 
L 140.181773 -41.729675 
L 139.031955 -41.901989 
L 137.882136 -42.364304 
L 136.732318 -42.843887 
L 135.5825 -43.458713 
L 134.432682 -43.161867 
L 133.282864 -43.890401 
L 89.589773 -43.100434 
L 88.439955 -43.502478 
L 87.290136 -44.40912 
L 86.140318 -45.589932 
L 84.9905 -45.467185 
z
"/>
    </defs>
    <g clip-path="url(#p162f41b6f6)">
     <use xlink:href="#mfa286b08e8" x="0" y="220.375797" style="fill: #3a6690; fill-opacity: 0.28"/>
    </g>
   </g>
   <g id="line2d_25">
    <path d="M 84.9905 185.604899 
L 86.140318 184.943292 
L 87.290136 185.992251 
L 88.439955 186.510792 
L 89.589773 186.465452 
L 133.282864 185.670636 
L 134.432682 186.327187 
L 135.5825 185.859364 
L 136.732318 186.439542 
L 139.031955 186.965535 
L 140.181773 186.902668 
L 143.631227 187.954454 
L 144.781045 188.003805 
L 148.2305 188.748044 
L 149.380318 188.745577 
L 342.549773 188.601218 
L 343.699591 183.340166 
L 344.849409 183.575545 
L 348.298864 182.977554 
L 350.5985 182.678558 
L 351.748318 181.819741 
L 352.898136 181.927888 
L 354.047955 181.100879 
L 355.197773 181.310812 
L 356.347591 181.030901 
L 357.497409 181.558915 
L 358.647227 181.558915 
L 359.797045 180.757352 
L 360.946864 180.617396 
L 362.096682 179.294181 
L 363.2465 179.325989 
L 364.396318 179.026994 
L 365.546136 179.026994 
L 366.695955 178.524427 
L 367.845773 177.659247 
L 368.995591 177.334805 
L 370.145409 177.334805 
L 371.295227 176.965832 
L 372.445045 177.264828 
L 373.594864 177.423868 
L 374.744682 177.404783 
L 375.8945 182.500433 
L 377.044318 182.373201 
L 378.194136 182.05512 
L 379.343955 182.856683 
L 380.493773 182.818514 
L 381.643591 182.901215 
L 382.793409 183.429228 
L 383.943227 182.837599 
L 385.093045 182.850322 
L 386.242864 183.982688 
L 387.392682 183.098425 
L 388.5425 183.244742 
L 389.692318 183.212934 
L 390.842136 182.754898 
L 391.991955 182.614942 
L 393.141773 182.188714 
L 394.291591 182.907576 
L 395.441409 182.354116 
L 396.591227 182.589496 
L 397.741045 182.086928 
L 398.890864 182.640389 
L 400.040682 181.966058 
L 401.1905 181.807018 
L 402.340318 180.39474 
L 403.490136 180.916392 
L 405.789773 180.693736 
L 406.939591 180.312039 
L 408.089409 178.836145 
L 409.239227 179.12878 
L 410.389045 177.137595 
L 411.538864 176.355117 
L 413.8385 176.107014 
L 414.988318 176.094291 
L 416.138136 177.328444 
L 417.287955 177.245743 
L 418.437773 176.724091 
L 421.887227 176.514158 
L 423.037045 174.802884 
L 426.4865 175.89072 
L 427.636318 174.853777 
L 428.786136 175.725318 
L 429.935955 176.04976 
L 432.235591 175.432684 
L 433.385409 172.309133 
L 434.535227 173.447861 
L 435.685045 173.765942 
L 436.834864 175.152773 
L 439.1345 175.229112 
L 440.284318 174.204893 
L 441.434136 174.306679 
L 442.583955 175.674425 
L 443.733773 176.08793 
L 444.883591 178.613489 
L 446.033409 179.166949 
L 447.183227 179.586815 
L 448.333045 179.612262 
L 449.482864 177.449314 
L 450.632682 176.367841 
L 451.7825 176.215162 
L 452.932318 176.673198 
L 454.082136 177.939158 
L 455.231955 177.869181 
L 456.381773 175.120965 
L 457.531591 177.290274 
L 458.681409 177.067618 
L 459.831227 178.187261 
L 460.981045 178.079114 
L 462.130864 178.199984 
L 463.280682 178.123645 
L 464.4305 176.552327 
L 465.580318 177.054894 
L 466.730136 173.676879 
L 467.879955 173.416053 
L 469.029773 172.951656 
L 471.329409 172.8117 
L 472.479227 171.933798 
L 473.629045 172.054669 
L 474.778864 171.100427 
L 475.928682 171.164043 
L 477.0785 170.865047 
L 478.228318 171.017726 
L 479.378136 169.745404 
L 480.527955 166.437366 
L 481.677773 168.530336 
L 482.827591 169.662703 
L 485.127227 169.172859 
L 487.426864 169.325538 
L 488.576682 171.31036 
L 489.7265 169.427323 
L 490.876318 168.078662 
L 492.026136 168.676653 
L 494.325773 168.854778 
L 496.625409 169.878998 
L 497.775227 172.073753 
L 498.925045 175.06371 
L 500.074864 175.528108 
L 501.224682 174.930117 
L 503.524318 175.165496 
L 504.674136 176.965832 
L 505.823955 174.427549 
L 506.973773 174.147638 
L 508.123591 174.090384 
L 509.273409 174.529335 
L 509.273409 174.529335 
" clip-path="url(#p162f41b6f6)" style="fill: none; stroke: #3a6690; stroke-opacity: 0.8; stroke-linecap: square"/>
   </g>
   <g id="line2d_26">
    <path d="M 78.091591 187.793293 
L 79.241409 192.424546 
L 80.391227 163.390155 
L 81.541045 189.752669 
L 82.690864 176.749537 
L 83.840682 194.562047 
L 84.9905 194.562047 
L 86.140318 180.312039 
L 87.290136 194.383922 
L 88.439955 191.17767 
L 89.589773 186.012042 
L 133.282864 176.927662 
L 134.432682 194.205797 
L 135.5825 179.777664 
L 136.732318 194.562047 
L 137.882136 190.46517 
L 139.031955 191.355795 
L 140.181773 185.833917 
L 141.331591 193.671421 
L 142.481409 194.562047 
L 143.631227 194.562047 
L 144.781045 189.040169 
L 145.930864 194.562047 
L 147.080682 193.493296 
L 148.2305 194.562047 
L 149.380318 188.683919 
L 340.250136 185.121417 
L 341.399955 190.108919 
L 342.549773 186.012042 
L 343.699591 45.11509 
L 344.849409 169.980783 
L 345.999227 183.518291 
L 347.149045 171.94016 
L 348.298864 188.862044 
L 349.448682 190.643295 
L 350.5985 175.858912 
L 351.748318 170.337034 
L 352.898136 194.205797 
L 354.047955 162.85578 
L 355.197773 182.80579 
L 356.347591 186.368292 
L 357.497409 194.562047 
L 358.647227 194.562047 
L 359.797045 168.021407 
L 360.946864 187.437043 
L 362.096682 148.783897 
L 363.2465 194.562047 
L 364.396318 186.190167 
L 365.546136 194.562047 
L 366.695955 174.968286 
L 367.845773 170.337034 
L 368.995591 184.408916 
L 370.145409 194.562047 
L 371.295227 178.352663 
L 372.445045 193.493296 
L 373.594864 194.562047 
L 374.744682 185.477667 
L 375.8945 187.793293 
L 377.044318 166.418282 
L 378.194136 174.612036 
L 379.343955 194.383922 
L 380.493773 187.793293 
L 381.643591 192.958921 
L 382.793409 190.643295 
L 383.943227 153.7714 
L 385.093045 194.562047 
L 386.242864 194.562047 
L 387.392682 158.046402 
L 388.5425 190.46517 
L 389.692318 193.671421 
L 390.842136 181.73704 
L 391.991955 164.102655 
L 393.141773 175.502661 
L 394.291591 168.912033 
L 395.441409 179.065163 
L 396.591227 192.780796 
L 397.741045 180.490164 
L 398.890864 190.46517 
L 400.040682 151.455773 
L 401.1905 179.955789 
L 402.340318 155.018275 
L 403.490136 192.958921 
L 404.639955 190.82142 
L 405.789773 190.999545 
L 406.939591 174.790161 
L 408.089409 146.468271 
L 409.239227 174.612036 
L 410.389045 118.858881 
L 411.538864 172.474535 
L 412.688682 182.80579 
L 413.8385 190.999545 
L 414.988318 190.287045 
L 416.138136 188.327668 
L 417.287955 192.246421 
L 418.437773 179.955789 
L 419.587591 155.908901 
L 420.737409 190.287045 
L 421.887227 190.108919 
L 423.037045 133.821389 
L 426.4865 194.562047 
L 427.636318 146.468271 
L 428.786136 193.315171 
L 431.085773 182.627665 
L 432.235591 173.36516 
L 433.385409 103.005747 
L 434.535227 183.340166 
L 436.834864 193.849546 
L 437.984682 194.562047 
L 439.1345 191.355795 
L 440.284318 162.321404 
L 441.434136 177.640163 
L 442.583955 184.765167 
L 443.733773 186.190167 
L 444.883591 189.574544 
L 446.033409 187.971418 
L 447.183227 194.562047 
L 448.333045 191.712045 
L 449.482864 129.724512 
L 451.7825 187.971418 
L 452.932318 192.780796 
L 454.082136 191.355795 
L 455.231955 188.327668 
L 456.381773 113.158877 
L 457.531591 194.562047 
L 458.681409 188.327668 
L 459.831227 177.818288 
L 460.981045 190.287045 
L 462.130864 191.53392 
L 463.280682 180.490164 
L 464.4305 129.368261 
L 465.580318 117.07763 
L 466.730136 88.755739 
L 467.879955 181.558915 
L 469.029773 180.846414 
L 470.179591 191.89017 
L 471.329409 190.108919 
L 472.479227 137.740141 
L 473.629045 181.024539 
L 474.778864 158.046402 
L 475.928682 187.971418 
L 477.0785 181.202665 
L 478.228318 192.246421 
L 479.378136 158.937027 
L 480.527955 99.086995 
L 481.677773 188.327668 
L 482.827591 189.752669 
L 483.977409 181.202665 
L 485.127227 185.833917 
L 486.277045 193.315171 
L 487.426864 190.643295 
L 488.576682 168.733908 
L 489.7265 141.837018 
L 490.876318 150.565148 
L 492.026136 194.562047 
L 493.175955 193.849546 
L 494.325773 192.958921 
L 495.475591 194.027672 
L 496.625409 144.508895 
L 497.775227 178.530788 
L 498.925045 172.474535 
L 500.074864 194.562047 
L 501.224682 164.102655 
L 502.3745 194.562047 
L 503.524318 194.027672 
L 504.674136 188.149543 
L 505.823955 109.952626 
L 506.973773 150.208898 
L 508.123591 186.368292 
L 509.273409 193.493296 
L 509.273409 193.493296 
" clip-path="url(#p162f41b6f6)" style="fill: none; stroke: #35e0d0; stroke-width: 1.7; stroke-linecap: square"/>
   </g>
   <g id="line2d_27">
    <path d="M 432.235591 194.562047 
L 432.235591 22.698047 
" clip-path="url(#p162f41b6f6)" style="fill: none; stroke: #ffcf5c; stroke-opacity: 0.5; stroke-width: 0.8; stroke-linecap: square"/>
   </g>
   <g id="line2d_28">
    <defs>
     <path id="m84123b7ad6" d="M 0 3 
C 0.795609 3 1.55874 2.683901 2.12132 2.12132 
C 2.683901 1.55874 3 0.795609 3 0 
C 3 -0.795609 2.683901 -1.55874 2.12132 -2.12132 
C 1.55874 -2.683901 0.795609 -3 0 -3 
C -0.795609 -3 -1.55874 -2.683901 -2.12132 -2.12132 
C -2.683901 -1.55874 -3 -0.795609 -3 0 
C -3 0.795609 -2.683901 1.55874 -2.12132 2.12132 
C -1.55874 2.683901 -0.795609 3 0 3 
z
" style="stroke: #0a0c0f"/>
    </defs>
    <g clip-path="url(#p162f41b6f6)">
     <use xlink:href="#m84123b7ad6" x="432.235591" y="173.36516" style="fill: #ffcf5c; stroke: #0a0c0f"/>
    </g>
   </g>
   <g id="patch_3">
    <path d="M 56.5325 194.562047 
L 56.5325 22.698047 
" style="fill: none; stroke: #2a323c; stroke-width: 0.8; stroke-linejoin: miter; stroke-linecap: square"/>
   </g>
   <g id="patch_4">
    <path d="M 530.8325 194.562047 
L 530.8325 22.698047 
" style="fill: none; stroke: #2a323c; stroke-width: 0.8; stroke-linejoin: miter; stroke-linecap: square"/>
   </g>
   <g id="patch_5">
    <path d="M 56.5325 194.562047 
L 530.8325 194.562047 
" style="fill: none; stroke: #2a323c; stroke-width: 0.8; stroke-linejoin: miter; stroke-linecap: square"/>
   </g>
   <g id="patch_6">
    <path d="M 56.5325 22.698047 
L 530.8325 22.698047 
" style="fill: none; stroke: #2a323c; stroke-width: 0.8; stroke-linejoin: miter; stroke-linecap: square"/>
   </g>
   <g id="text_14">
    <text style="font-size: 12.5px; font-family: 'DejaVu Sans'; text-anchor: start; fill: #e6ebf0" x="56.5325" y="16.698047" transform="rotate(-0 56.5325 16.698047)">US Southwest Test Ranges: daily degraded ratio with 28-day baseline</text>
   </g>
   <g id="legend_1">
    <g id="patch_7">
     <path d="M 369.153125 56.318672 
L 524.5325 56.318672 
Q 526.3325 56.318672 526.3325 54.518672 
L 526.3325 28.998047 
Q 526.3325 27.198047 524.5325 27.198047 
L 369.153125 27.198047 
Q 367.353125 27.198047 367.353125 28.998047 
L 367.353125 54.518672 
Q 367.353125 56.318672 369.153125 56.318672 
L 369.153125 56.318672 
z
" style="fill: none; opacity: 0"/>
    </g>
    <g id="patch_8">
     <path d="M 370.953125 37.636641 
L 388.953125 37.636641 
L 388.953125 31.336641 
L 370.953125 31.336641 
z
" style="fill: #3a6690; fill-opacity: 0.28"/>
    </g>
    <g id="text_15">
     <text style="font-size: 9px; font-family: 'DejaVu Sans'; text-anchor: start; fill: #8b96a3" x="396.153125" y="37.636641" transform="rotate(-0 396.153125 37.636641)">28-day baseline ±1σ</text>
    </g>
    <g id="line2d_29">
     <path d="M 370.953125 47.696953 
L 379.953125 47.696953 
L 388.953125 47.696953 
" style="fill: none; stroke: #35e0d0; stroke-width: 1.7; stroke-linecap: square"/>
    </g>
    <g id="text_16">
     <text style="font-size: 9px; font-family: 'DejaVu Sans'; text-anchor: start; fill: #8b96a3" x="396.153125" y="50.846953" transform="rotate(-0 396.153125 50.846953)">degraded ratio (daily mean)</text>
    </g>
   </g>
  </g>
 </g>
 <defs>
  <clipPath id="p162f41b6f6">
   <rect x="56.5325" y="22.698047" width="474.3" height="171.864"/>
  </clipPath>
 </defs>
</svg>
