<?xml version="1.0" encoding="utf-8" standalone="no"?>
<!DOCTYPE svg PUBLIC "-//W3C//DTD SVG 1.1//EN"
  "http://www.w3.org/Graphics/SVG/1.1/DTD/svg11.dtd">
<svg xmlns:xlink="http://www.w3.org/1999/xlink" width="538.0325pt" height="220.375797pt" viewBox="0 0 538.0325 220.375797" xmlns="http://www.w3.org/2000/svg" version="1.1">
 <metadata>
  <rdf:RDF xmlns:dc="http://purl.org/dc/elements/1.1/" xmlns:cc="http://creativecommons.org/ns#" xmlns:rdf="http://www.w3.org/1999/02/22-rdf-syntax-ns#">
   <cc:Work>
    <dc:type rdf:resource="http://purl.org/dc/dcmitype/StillImage"/>
    <dc:date>2026-07-16T15:29:53.939104</dc:date>
    <dc:format>image/svg+xml</dc:format>
    <dc:creator>
     <cc:Agent>
      <dc:title>Matplotlib v3.10.8, https://matplotlib.org/</dc:title>
     </cc:Agent>
    </dc:creator>
   </cc:Work>
  </rdf:RDF>
 </metadata>
 <defs>
  <style type="text/css">*{stroke-linejoin: round; stroke-linecap: butt}</style>
 </defs>
 <g id="figure_1">
  <g id="patch_1">
   <path d="M 0 220.375797 
L 538.0325 220.375797 
L 538.0325 0 
L 0 0 
z
" style="fill: #0a0c0f"/>
  </g>
  <g id="axes_1">
   <g id="patch_2">
    <path d="M 56.5325 194.562047 
L 530.8325 194.562047 
L 530.8325 22.698047 
L 56.5325 22.698047 
z
" style="fill: #10141a"/>
   </g>
   <g id="matplotlib.axis_1">
    <g id="xtick_1">
     <g id="line2d_1">
      <path d="M 68.402112 194.562047 
L 68.402112 22.698047 
" clip-path="url(#p63071d5f01)" style="fill: none; stroke: #2a323c; stroke-opacity: 0.35; stroke-width: 0.8; stroke-linecap: square"/>
     </g>
     <g id="line2d_2">
      <defs>
       <path id="m461574c71c" d="M 0 0 
L 0 3.5 
" style="stroke: #8b96a3; stroke-width: 0.8"/>
      </defs>
      <g>
       <use xlink:href="#m461574c71c" x="68.402112" y="194.562047" style="fill: #8b96a3; stroke: #8b96a3; stroke-width: 0.8"/>
      </g>
     </g>
     <g id="text_1">
      <text style="font-size: 12px; font-family: 'DejaVu Sans'; text-anchor: middle; fill: #8b96a3" x="68.402112" y="210.680172" transform="rotate(-0 68.402112 210.680172)">Apr 15</text>
     </g>
    </g>
    <g id="xtick_2">
     <g id="line2d_3">
      <path d="M 145.917944 194.562047 
L 145.917944 22.698047 
" clip-path="url(#p63071d5f01)" style="fill: none; stroke: #2a323c; stroke-opacity: 0.35; stroke-width: 0.8; stroke-linecap: square"/>
     </g>
     <g id="line2d_4">
      <g>
       <use xlink:href="#m461574c71c" x="145.917944" y="194.562047" style="fill: #8b96a3; stroke: #8b96a3; stroke-width: 0.8"/>
      </g>
     </g>
     <g id="text_2">
      <text style="font-size: 12px; font-family: 'DejaVu Sans'; text-anchor: middle; fill: #8b96a3" x="145.917944" y="210.680172" transform="rotate(-0 145.917944 210.680172)">May 01</text>
     </g>
    </g>
    <g id="xtick_3">
     <g id="line2d_5">
      <path d="M 213.744298 194.562047 
L 213.744298 22.698047 
" clip-path="url(#p63071d5f01)" style="fill: none; stroke: #2a323c; stroke-opacity: 0.35; stroke-width: 0.8; stroke-linecap: square"/>
     </g>
     <g id="line2d_6">
      <g>
       <use xlink:href="#m461574c71c" x="213.744298" y="194.562047" style="fill: #8b96a3; stroke: #8b96a3; stroke-width: 0.8"/>
      </g>
     </g>
     <g id="text_3">
      <text style="font-size: 12px; font-family: 'DejaVu Sans'; text-anchor: middle; fill: #8b96a3" x="213.744298" y="210.680172" transform="rotate(-0 213.744298 210.680172)">May 15</text>
     </g>
    </g>
    <g id="xtick_4">
     <g id="line2d_7">
      <path d="M 296.10487 194.562047 
L 296.10487 22.698047 
" clip-path="url(#p63071d5f01)" style="fill: none; stroke: #2a323c; stroke-opacity: 0.35; stroke-width: 0.8; stroke-linecap: square"/>
     </g>
     <g id="line2d_8">
      <g>
       <use xlink:href="#m461574c71c" x="296.10487" y="194.562047" style="fill: #8b96a3; stroke: #8b96a3; stroke-width: 0.8"/>
      </g>
     </g>
     <g id="text_4">
      <text style="font-size: 12px; font-family: 'DejaVu Sans'; text-anchor: middle; fill: #8b96a3" x="296.10487" y="210.680172" transform="rotate(-0 296.10487 210.680172)">Jun 01</text>
     </g>
    </g>
    <g id="xtick_5">
     <g id="line2d_9">
      <path d="M 363.931223 194.562047 
L 363.931223 22.698047 
" clip-path="url(#p63071d5f01)" style="fill: none; stroke: #2a323c; stroke-opacity: 0.35; stroke-width: 0.8; stroke-linecap: square"/>
     </g>
     <g id="line2d_10">
      <g>
       <use xlink:href="#m461574c71c" x="363.931223" y="194.562047" style="fill: #8b96a3; stroke: #8b96a3; stroke-width: 0.8"/>
      </g>
     </g>
     <g id="text_5">
      <text style="font-size: 12px; font-family: 'DejaVu Sans'; text-anchor: middle; fill: #8b96a3" x="363.931223" y="210.680172" transform="rotate(-0 363.931223 210.680172)">Jun 15</text>
     </g>
    </g>
    <g id="xtick_6">
     <g id="line2d_11">
      <path d="M 441.447056 194.562047 
L 441.447056 22.698047 
" clip-path="url(#p63071d5f01)" style="fill: none; stroke: #2a323c; stroke-opacity: 0.35; stroke-width: 0.8; stroke-linecap: square"/>
     </g>
     <g id="line2d_12">
      <g>
       <use xlink:href="#m461574c71c" x="441.447056" y="194.562047" style="fill: #8b96a3; stroke: #8b96a3; stroke-width: 0.8"/>
      </g>
     </g>
     <g id="text_6">
      <text style="font-size: 12px; font-family: 'DejaVu Sans'; text-anchor: middle; fill: #8b96a3" x="441.447056" y="210.680172" transform="rotate(-0 441.447056 210.680172)">Jul 01</text>
     </g>
    </g>
    <g id="xtick_7">
     <g id="line2d_13">
      <path d="M 509.273409 194.562047 
L 509.273409 22.698047 
" clip-path="url(#p63071d5f01)" style="fill: none; stroke: #2a323c; stroke-opacity: 0.35; stroke-width: 0.8; stroke-linecap: square"/>
     </g>
     <g id="line2d_14">
      <g>
       <use xlink:href="#m461574c71c" x="509.273409" y="194.562047" style="fill: #8b96a3; stroke: #8b96a3; stroke-width: 0.8"/>
      </g>
     </g>
     <g id="text_7">
      <text style="font-size: 12px; font-family: 'DejaVu Sans'; text-anchor: middle; fill: #8b96a3" x="509.273409" y="210.680172" transform="rotate(-0 509.273409 210.680172)">Jul 15</text>
     </g>
    </g>
   </g>
   <g id="matplotlib.axis_2">
    <g id="ytick_1">
     <g id="line2d_15">
      <path d="M 56.5325 194.562047 
L 530.8325 194.562047 
" clip-path="url(#p63071d5f01)" style="fill: none; stroke: #2a323c; stroke-opacity: 0.35; stroke-width: 0.8; stroke-linecap: square"/>
     </g>
     <g id="line2d_16">
      <defs>
       <path id="m0bd82431ee" d="M 0 0 
L -3.5 0 
" style="stroke: #8b96a3; stroke-width: 0.8"/>
      </defs>
      <g>
       <use xlink:href="#m0bd82431ee" x="56.5325" y="194.562047" style="fill: #8b96a3; stroke: #8b96a3; stroke-width: 0.8"/>
      </g>
     </g>
     <g id="text_8">
      <text style="font-size: 12px; font-family: 'DejaVu Sans'; text-anchor: end; fill: #8b96a3" x="49.5325" y="199.121109" transform="rotate(-0 49.5325 199.121109)">0.00</text>
     </g>
    </g>
    <g id="ytick_2">
     <g id="line2d_17">
      <path d="M 56.5325 169.119936 
L 530.8325 169.119936 
" clip-path="url(#p63071d5f01)" style="fill: none; stroke: #2a323c; stroke-opacity: 0.35; stroke-width: 0.8; stroke-linecap: square"/>
     </g>
     <g id="line2d_18">
      <g>
       <use xlink:href="#m0bd82431ee" x="56.5325" y="169.119936" style="fill: #8b96a3; stroke: #8b96a3; stroke-width: 0.8"/>
      </g>
     </g>
     <g id="text_9">
      <text style="font-size: 12px; font-family: 'DejaVu Sans'; text-anchor: end; fill: #8b96a3" x="49.5325" y="173.678999" transform="rotate(-0 49.5325 173.678999)">0.05</text>
     </g>
    </g>
    <g id="ytick_3">
     <g id="line2d_19">
      <path d="M 56.5325 143.677826 
L 530.8325 143.677826 
" clip-path="url(#p63071d5f01)" style="fill: none; stroke: #2a323c; stroke-opacity: 0.35; stroke-width: 0.8; stroke-linecap: square"/>
     </g>
     <g id="line2d_20">
      <g>
       <use xlink:href="#m0bd82431ee" x="56.5325" y="143.677826" style="fill: #8b96a3; stroke: #8b96a3; stroke-width: 0.8"/>
      </g>
     </g>
     <g id="text_10">
      <text style="font-size: 12px; font-family: 'DejaVu Sans'; text-anchor: end; fill: #8b96a3" x="49.5325" y="148.236889" transform="rotate(-0 49.5325 148.236889)">0.10</text>
     </g>
    </g>
    <g id="ytick_4">
     <g id="line2d_21">
      <path d="M 56.5325 118.235716 
L 530.8325 118.235716 
" clip-path="url(#p63071d5f01)" style="fill: none; stroke: #2a323c; stroke-opacity: 0.35; stroke-width: 0.8; stroke-linecap: square"/>
     </g>
     <g id="line2d_22">
      <g>
       <use xlink:href="#m0bd82431ee" x="56.5325" y="118.235716" style="fill: #8b96a3; stroke: #8b96a3; stroke-width: 0.8"/>
      </g>
     </g>
     <g id="text_11">
      <text style="font-size: 12px; font-family: 'DejaVu Sans'; text-anchor: end; fill: #8b96a3" x="49.5325" y="122.794778" transform="rotate(-0 49.5325 122.794778)">0.15</text>
     </g>
    </g>
    <g id="ytick_5">
     <g id="line2d_23">
      <path d="M 56.5325 92.793605 
L 530.8325 92.793605 
" clip-path="url(#p63071d5f01)" style="fill: none; stroke: #2a323c; stroke-opacity: 0.35; stroke-width: 0.8; stroke-linecap: square"/>
     </g>
     <g id="line2d_24">
      <g>
       <use xlink:href="#m0bd82431ee" x="56.5325" y="92.793605" style="fill: #8b96a3; stroke: #8b96a3; stroke-width: 0.8"/>
      </g>
     </g>
     <g id="text_12">
      <text style="font-size: 12px; font-family: 'DejaVu Sans'; text-anchor: end; fill: #8b96a3" x="49.5325" y="97.352668" transform="rotate(-0 49.5325 97.352668)">0.20</text>
     </g>
    </g>
    <g id="ytick_6">
     <g id="line2d_25">
      <path d="M 56.5325 67.351495 
L 530.8325 67.351495 
" clip-path="url(#p63071d5f01)" style="fill: none; stroke: #2a323c; stroke-opacity: 0.35; stroke-width: 0.8; stroke-linecap: square"/>
     </g>
     <g id="line2d_26">
      <g>
       <use xlink:href="#m0bd82431ee" x="56.5325" y="67.351495" style="fill: #8b96a3; stroke: #8b96a3; stroke-width: 0.8"/>
      </g>
     </g>
     <g id="text_13">
      <text style="font-size: 12px; font-family: 'DejaVu Sans'; text-anchor: end; fill: #8b96a3" x="49.5325" y="71.910557" transform="rotate(-0 49.5325 71.910557)">0.25</text>
     </g>
    </g>
    <g id="ytick_7">
     <g id="line2d_27">
      <path d="M 56.5325 41.909384 
L 530.8325 41.909384 
" clip-path="url(#p63071d5f01)" style="fill: none; stroke: #2a323c; stroke-opacity: 0.35; stroke-width: 0.8; stroke-linecap: square"/>
     </g>
     <g id="line2d_28">
      <g>
       <use xlink:href="#m0bd82431ee" x="56.5325" y="41.909384" style="fill: #8b96a3; stroke: #8b96a3; stroke-width: 0.8"/>
      </g>
     </g>
     <g id="text_14">
      <text style="font-size: 12px; font-family: 'DejaVu Sans'; text-anchor: end; fill: #8b96a3" x="49.5325" y="46.468447" transform="rotate(-0 49.5325 46.468447)">0.30</text>
     </g>
    </g>
    <g id="text_15">
     <text style="font-size: 12px; font-family: 'DejaVu Sans'; text-anchor: middle; fill: #8b96a3" x="16.318125" y="108.630047" transform="rotate(-90 16.318125 108.630047)">degraded ratio</text>
    </g>
   </g>
   <g id="FillBetweenPolyCollection_1">
    <defs>
     <path id="me045632de1" d="M 107.160028 -139.878482 
L 107.160028 -84.173835 
L 112.004768 -73.273797 
L 116.849507 -68.238785 
L 121.694247 -62.815218 
L 126.538986 -59.253508 
L 131.383726 -62.163096 
L 136.228465 -62.446854 
L 141.073205 -58.424981 
L 145.917944 -53.626031 
L 150.762684 -51.213992 
L 155.607423 -53.090808 
L 160.452163 -51.4991 
L 179.831121 -51.601278 
L 184.675861 -52.272755 
L 189.5206 -51.098504 
L 194.36534 -50.443703 
L 199.210079 -51.589324 
L 204.054819 -50.932572 
L 208.899558 -50.807321 
L 213.744298 -50.910209 
L 218.589037 -51.224212 
L 223.433777 -51.019811 
L 228.278516 -51.935273 
L 233.123256 -51.782686 
L 237.967995 -51.715903 
L 242.812735 -52.533566 
L 247.657474 -53.840084 
L 252.502214 -54.552444 
L 257.346954 -54.241738 
L 262.191693 -51.871121 
L 267.036433 -51.174193 
L 271.881172 -50.935378 
L 276.725912 -51.168796 
L 281.570651 -50.572268 
L 286.415391 -49.726182 
L 291.26013 -50.618758 
L 296.10487 -52.330579 
L 300.949609 -53.139379 
L 305.794349 -52.798934 
L 310.639088 -52.682534 
L 315.483828 -52.69461 
L 320.328567 -51.375548 
L 325.173307 -50.980357 
L 330.018046 -52.354458 
L 334.862786 -50.412133 
L 339.707526 -50.188694 
L 349.397005 -48.934424 
L 354.241744 -47.851201 
L 359.086484 -47.967408 
L 363.931223 -46.781551 
L 368.775963 -44.385186 
L 373.620702 -43.333786 
L 378.465442 -42.736791 
L 383.310181 -40.934841 
L 388.154921 -38.278542 
L 392.99966 -36.441646 
L 397.8444 -34.672792 
L 402.689139 -37.416586 
L 407.533879 -43.242842 
L 412.378618 -43.145306 
L 417.223358 -42.823018 
L 422.068098 -42.106798 
L 426.912837 -41.040515 
L 431.757577 -40.17176 
L 436.602316 -39.147546 
L 441.447056 -38.438498 
L 446.291795 -38.544575 
L 451.136535 -37.936342 
L 455.981274 -37.940854 
L 460.826014 -37.791336 
L 465.670753 -37.110929 
L 470.515493 -38.125938 
L 475.360232 -37.667621 
L 480.204972 -37.217079 
L 485.049711 -37.263042 
L 489.894451 -37.170101 
L 494.739191 -38.304971 
L 499.58393 -38.339923 
L 504.42867 -38.693674 
L 509.273409 -38.716858 
L 509.273409 -52.255048 
L 509.273409 -52.255048 
L 504.42867 -52.925189 
L 499.58393 -52.4866 
L 494.739191 -52.445225 
L 489.894451 -55.688157 
L 485.049711 -55.86781 
L 480.204972 -55.812004 
L 475.360232 -56.444568 
L 470.515493 -56.814937 
L 465.670753 -61.918857 
L 460.826014 -62.150732 
L 455.981274 -62.397383 
L 451.136535 -63.761231 
L 446.291795 -64.083453 
L 441.447056 -67.195333 
L 436.602316 -67.911043 
L 431.757577 -68.664142 
L 426.912837 -69.380068 
L 422.068098 -70.062021 
L 417.223358 -71.842762 
L 412.378618 -72.200143 
L 407.533879 -72.244355 
L 402.689139 -87.266117 
L 397.8444 -99.307184 
L 392.99966 -102.739426 
L 388.154921 -104.80971 
L 383.310181 -107.463544 
L 378.465442 -108.293034 
L 373.620702 -109.015395 
L 368.775963 -109.704961 
L 363.931223 -110.703301 
L 359.086484 -110.862242 
L 354.241744 -110.767642 
L 349.397005 -111.036486 
L 339.707526 -111.199705 
L 334.862786 -111.230687 
L 330.018046 -112.355953 
L 325.173307 -111.367573 
L 320.328567 -111.379456 
L 315.483828 -111.888591 
L 310.639088 -111.882494 
L 305.794349 -111.886035 
L 300.949609 -112.832234 
L 296.10487 -112.768733 
L 291.26013 -112.750491 
L 286.415391 -112.632651 
L 281.570651 -113.167709 
L 276.725912 -115.755079 
L 271.881172 -115.712269 
L 267.036433 -115.727875 
L 262.191693 -107.638197 
L 257.346954 -96.798991 
L 252.502214 -95.263429 
L 247.657474 -97.825794 
L 242.812735 -101.425737 
L 237.967995 -100.887699 
L 233.123256 -101.129855 
L 228.278516 -103.42698 
L 223.433777 -108.554929 
L 218.589037 -109.499058 
L 213.744298 -110.251447 
L 208.899558 -111.177877 
L 204.054819 -112.254342 
L 199.210079 -113.518838 
L 194.36534 -113.53153 
L 189.5206 -114.940955 
L 184.675861 -116.490222 
L 179.831121 -117.47236 
L 160.452163 -118.920441 
L 155.607423 -120.8444 
L 150.762684 -120.385779 
L 145.917944 -122.613534 
L 141.073205 -124.687346 
L 136.228465 -126.998601 
L 131.383726 -129.048302 
L 126.538986 -126.643573 
L 121.694247 -129.842988 
L 116.849507 -133.203169 
L 112.004768 -136.947098 
L 107.160028 -139.878482 
z
"/>
    </defs>
    <g clip-path="url(#p63071d5f01)">
     <use xlink:href="#me045632de1" x="0" y="220.375797" style="fill: #3a6690; fill-opacity: 0.28"/>
    </g>
   </g>
   <g id="line2d_29">
    <path d="M 107.160028 108.349638 
L 112.004768 115.265349 
L 116.849507 119.65482 
L 121.694247 124.046694 
L 126.538986 127.427256 
L 131.383726 124.770098 
L 136.228465 125.653069 
L 141.073205 128.819634 
L 145.917944 132.256015 
L 150.762684 134.575911 
L 155.607423 133.408193 
L 160.452163 135.166027 
L 179.831121 135.838978 
L 184.675861 135.994309 
L 189.5206 137.356067 
L 194.36534 138.38818 
L 199.210079 137.821716 
L 204.054819 138.78234 
L 208.899558 139.383198 
L 213.744298 139.794969 
L 218.589037 140.014162 
L 223.433777 140.588427 
L 228.278516 142.69467 
L 233.123256 143.919526 
L 237.967995 144.073996 
L 242.812735 143.396146 
L 247.657474 144.542858 
L 252.502214 145.46786 
L 257.346954 144.855432 
L 262.191693 140.621138 
L 267.036433 136.924763 
L 271.881172 137.051974 
L 276.725912 136.913859 
L 281.570651 138.505808 
L 286.415391 139.19638 
L 291.26013 138.691172 
L 296.10487 137.826141 
L 300.949609 137.38999 
L 305.794349 138.033312 
L 310.639088 138.093283 
L 315.483828 138.084196 
L 320.328567 138.998295 
L 325.173307 139.201832 
L 330.018046 138.020591 
L 334.862786 139.554387 
L 339.707526 139.681597 
L 349.397005 140.390342 
L 354.241744 141.066375 
L 359.086484 140.960972 
L 363.931223 141.633371 
L 368.775963 143.330723 
L 373.620702 144.201207 
L 378.465442 144.860884 
L 383.310181 146.176605 
L 388.154921 148.831671 
L 392.99966 150.785261 
L 397.8444 153.385808 
L 402.689139 158.034446 
L 407.533879 162.632198 
L 412.378618 162.703073 
L 417.223358 163.042907 
L 422.068098 164.291387 
L 426.912837 165.165506 
L 431.757577 165.957846 
L 436.602316 166.846502 
L 441.447056 167.558881 
L 446.291795 169.061783 
L 451.136535 169.52701 
L 455.981274 170.206678 
L 460.826014 170.404763 
L 465.670753 170.860904 
L 470.515493 172.905359 
L 475.360232 173.319702 
L 480.204972 173.861255 
L 485.049711 173.810371 
L 489.894451 173.946668 
L 494.739191 175.000699 
L 499.58393 174.962535 
L 504.42867 174.566365 
L 509.273409 174.889844 
" clip-path="url(#p63071d5f01)" style="fill: none; stroke: #3a6690; stroke-opacity: 0.8; stroke-linecap: square"/>
   </g>
   <g id="line2d_30">
    <path d="M 78.091591 73.050528 
L 82.93633 104.089902 
L 87.78107 127.852833 
L 92.625809 158.281597 
L 97.470549 78.240718 
L 102.315289 94.574553 
L 107.160028 122.357338 
L 112.004768 163.675325 
L 116.849507 154.770586 
L 121.694247 163.573556 
L 126.538986 161.232882 
L 131.383726 95.541353 
L 136.228465 136.24873 
L 141.073205 169.984968 
L 145.917944 180.365349 
L 150.762684 169.374358 
L 155.607423 114.724704 
L 160.452163 165.049199 
L 179.831121 147.952101 
L 184.675861 138.945594 
L 189.5206 164.591241 
L 194.36534 160.062545 
L 199.210079 125.359507 
L 204.054819 160.876693 
L 208.899558 153.803786 
L 213.744298 150.089238 
L 218.589037 145.713195 
L 223.433777 156.093576 
L 228.278516 132.025339 
L 233.123256 138.385867 
L 237.967995 132.177992 
L 242.812735 139.301783 
L 247.657474 110.348661 
L 252.502214 120.474621 
L 257.346954 105.209355 
L 262.191693 45.11509 
L 267.036433 51.272081 
L 271.881172 167.135452 
L 276.725912 157.365681 
L 281.570651 140.115931 
L 286.415391 155.584734 
L 291.26013 155.839155 
L 296.10487 156.14446 
L 300.949609 157.162145 
L 305.794349 132.737719 
L 310.639088 166.728378 
L 315.483828 147.69768 
L 320.328567 164.540357 
L 325.173307 170.290274 
L 330.018046 126.987802 
L 334.862786 168.305789 
L 339.707526 164.438588 
L 349.397005 173.648632 
L 354.241744 169.018168 
L 359.086484 142.76191 
L 363.931223 174.920738 
L 368.775963 179.551202 
L 373.620702 162.759409 
L 378.465442 150.648964 
L 383.310181 176.141959 
L 388.154921 184.690508 
L 392.99966 175.175159 
L 397.8444 178.024675 
L 402.689139 175.276927 
L 407.533879 180.00916 
L 412.378618 169.119936 
L 417.223358 166.881031 
L 422.068098 175.07339 
L 426.912837 180.060044 
L 431.757577 178.024675 
L 436.602316 181.026844 
L 441.447056 177.108759 
L 446.291795 174.818969 
L 451.136535 179.754739 
L 455.981274 166.728378 
L 460.826014 170.086737 
L 465.670753 183.062213 
L 470.515493 184.23255 
L 475.360232 179.907391 
L 480.204972 179.602086 
L 485.049711 172.223874 
L 489.894451 172.834485 
L 494.739191 172.274758 
L 499.58393 173.852169 
L 504.42867 168.458442 
L 509.273409 171.8168 
" clip-path="url(#p63071d5f01)" style="fill: none; stroke: #35e0d0; stroke-width: 1.7; stroke-linecap: square"/>
   </g>
   <g id="patch_3">
    <path d="M 56.5325 194.562047 
L 56.5325 22.698047 
" style="fill: none; stroke: #2a323c; stroke-width: 0.8; stroke-linejoin: miter; stroke-linecap: square"/>
   </g>
   <g id="patch_4">
    <path d="M 530.8325 194.562047 
L 530.8325 22.698047 
" style="fill: none; stroke: #2a323c; stroke-width: 0.8; stroke-linejoin: miter; stroke-linecap: square"/>
   </g>
   <g id="patch_5">
    <path d="M 56.5325 194.562047 
L 530.8325 194.562047 
" style="fill: none; stroke: #2a323c; stroke-width: 0.8; stroke-linejoin: miter; stroke-linecap: square"/>
   </g>
   <g id="patch_6">
    <path d="M 56.5325 22.698047 
L 530.8325 22.698047 
" style="fill: none; stroke: #2a323c; stroke-width: 0.8; stroke-linejoin: miter; stroke-linecap: square"/>
   </g>
   <g id="text_16">
    <text style="font-size: 12.5px; font-family: 'DejaVu Sans'; text-anchor: start; fill: #e6ebf0" x="56.5325" y="16.698047" transform="rotate(-0 56.5325 16.698047)">Eastern Mediterranean: daily degraded ratio with 28-day baseline</text>
   </g>
   <g id="legend_1">
    <g id="patch_7">
     <path d="M 369.153125 56.318672 
L 524.5325 56.318672 
Q 526.3325 56.318672 526.3325 54.518672 
L 526.3325 28.998047 
Q 526.3325 27.198047 524.5325 27.198047 
L 369.153125 27.198047 
Q 367.353125 27.198047 367.353125 28.998047 
L 367.353125 54.518672 
Q 367.353125 56.318672 369.153125 56.318672 
L 369.153125 56.318672 
z
" style="fill: none; opacity: 0"/>
    </g>
    <g id="patch_8">
     <path d="M 370.953125 37.636641 
L 388.953125 37.636641 
L 388.953125 31.336641 
L 370.953125 31.336641 
z
" style="fill: #3a6690; fill-opacity: 0.28"/>
    </g>
    <g id="text_17">
     <text style="font-size: 9px; font-family: 'DejaVu Sans'; text-anchor: start; fill: #8b96a3" x="396.153125" y="37.636641" transform="rotate(-0 396.153125 37.636641)">28-day baseline ±1σ</text>
    </g>
    <g id="line2d_31">
     <path d="M 370.953125 47.696953 
L 379.953125 47.696953 
L 388.953125 47.696953 
" style="fill: none; stroke: #35e0d0; stroke-width: 1.7; stroke-linecap: square"/>
    </g>
    <g id="text_18">
     <text style="font-size: 9px; font-family: 'DejaVu Sans'; text-anchor: start; fill: #8b96a3" x="396.153125" y="50.846953" transform="rotate(-0 396.153125 50.846953)">degraded ratio (daily mean)</text>
    </g>
   </g>
  </g>
 </g>
 <defs>
  <clipPath id="p63071d5f01">
   <rect x="56.5325" y="22.698047" width="474.3" height="171.864"/>
  </clipPath>
 </defs>
</svg>
