<?xml version="1.0" encoding="utf-8" standalone="no"?>
<!DOCTYPE svg PUBLIC "-//W3C//DTD SVG 1.1//EN"
  "http://www.w3.org/Graphics/SVG/1.1/DTD/svg11.dtd">
<svg xmlns:xlink="http://www.w3.org/1999/xlink" width="538.0325pt" height="220.375797pt" viewBox="0 0 538.0325 220.375797" xmlns="http://www.w3.org/2000/svg" version="1.1">
 <metadata>
  <rdf:RDF xmlns:dc="http://purl.org/dc/elements/1.1/" xmlns:cc="http://creativecommons.org/ns#" xmlns:rdf="http://www.w3.org/1999/02/22-rdf-syntax-ns#">
   <cc:Work>
    <dc:type rdf:resource="http://purl.org/dc/dcmitype/StillImage"/>
    <dc:date>2026-07-19T21:23:10.942609</dc:date>
    <dc:format>image/svg+xml</dc:format>
    <dc:creator>
     <cc:Agent>
      <dc:title>Matplotlib v3.10.8, https://matplotlib.org/</dc:title>
     </cc:Agent>
    </dc:creator>
   </cc:Work>
  </rdf:RDF>
 </metadata>
 <defs>
  <style type="text/css">*{stroke-linejoin: round; stroke-linecap: butt}</style>
 </defs>
 <g id="figure_1">
  <g id="patch_1">
   <path d="M 0 220.375797 
L 538.0325 220.375797 
L 538.0325 0 
L 0 0 
z
" style="fill: #0a0c0f"/>
  </g>
  <g id="axes_1">
   <g id="patch_2">
    <path d="M 56.5325 194.562047 
L 530.8325 194.562047 
L 530.8325 22.698047 
L 56.5325 22.698047 
z
" style="fill: #10141a"/>
   </g>
   <g id="matplotlib.axis_1">
    <g id="xtick_1">
     <g id="line2d_1">
      <path d="M 70.042864 194.562047 
L 70.042864 22.698047 
" clip-path="url(#p96527b6b3e)" style="fill: none; stroke: #2a323c; stroke-opacity: 0.35; stroke-width: 0.8; stroke-linecap: square"/>
     </g>
     <g id="line2d_2">
      <defs>
       <path id="m3fd74e7a78" d="M 0 0 
L 0 3.5 
" style="stroke: #8b96a3; stroke-width: 0.8"/>
      </defs>
      <g>
       <use xlink:href="#m3fd74e7a78" x="70.042864" y="194.562047" style="fill: #8b96a3; stroke: #8b96a3; stroke-width: 0.8"/>
      </g>
     </g>
     <g id="text_1">
      <text style="font-size: 12px; font-family: 'DejaVu Sans'; text-anchor: middle; fill: #8b96a3" x="70.042864" y="210.680172" transform="rotate(-0 70.042864 210.680172)">Jul 01</text>
     </g>
    </g>
    <g id="xtick_2">
     <g id="line2d_3">
      <path d="M 141.331591 194.562047 
L 141.331591 22.698047 
" clip-path="url(#p96527b6b3e)" style="fill: none; stroke: #2a323c; stroke-opacity: 0.35; stroke-width: 0.8; stroke-linecap: square"/>
     </g>
     <g id="line2d_4">
      <g>
       <use xlink:href="#m3fd74e7a78" x="141.331591" y="194.562047" style="fill: #8b96a3; stroke: #8b96a3; stroke-width: 0.8"/>
      </g>
     </g>
     <g id="text_2">
      <text style="font-size: 12px; font-family: 'DejaVu Sans'; text-anchor: middle; fill: #8b96a3" x="141.331591" y="210.680172" transform="rotate(-0 141.331591 210.680172)">Sep 01</text>
     </g>
    </g>
    <g id="xtick_3">
     <g id="line2d_5">
      <path d="M 211.4705 194.562047 
L 211.4705 22.698047 
" clip-path="url(#p96527b6b3e)" style="fill: none; stroke: #2a323c; stroke-opacity: 0.35; stroke-width: 0.8; stroke-linecap: square"/>
     </g>
     <g id="line2d_6">
      <g>
       <use xlink:href="#m3fd74e7a78" x="211.4705" y="194.562047" style="fill: #8b96a3; stroke: #8b96a3; stroke-width: 0.8"/>
      </g>
     </g>
     <g id="text_3">
      <text style="font-size: 12px; font-family: 'DejaVu Sans'; text-anchor: middle; fill: #8b96a3" x="211.4705" y="210.680172" transform="rotate(-0 211.4705 210.680172)">Nov 01</text>
     </g>
    </g>
    <g id="xtick_4">
     <g id="line2d_7">
      <path d="M 281.609409 194.562047 
L 281.609409 22.698047 
" clip-path="url(#p96527b6b3e)" style="fill: none; stroke: #2a323c; stroke-opacity: 0.35; stroke-width: 0.8; stroke-linecap: square"/>
     </g>
     <g id="line2d_8">
      <g>
       <use xlink:href="#m3fd74e7a78" x="281.609409" y="194.562047" style="fill: #8b96a3; stroke: #8b96a3; stroke-width: 0.8"/>
      </g>
     </g>
     <g id="text_4">
      <text style="font-size: 12px; font-family: 'DejaVu Sans'; text-anchor: middle; fill: #8b96a3" x="281.609409" y="210.680172" transform="rotate(-0 281.609409 210.680172)">Jan 01</text>
     </g>
    </g>
    <g id="xtick_5">
     <g id="line2d_9">
      <path d="M 349.448682 194.562047 
L 349.448682 22.698047 
" clip-path="url(#p96527b6b3e)" style="fill: none; stroke: #2a323c; stroke-opacity: 0.35; stroke-width: 0.8; stroke-linecap: square"/>
     </g>
     <g id="line2d_10">
      <g>
       <use xlink:href="#m3fd74e7a78" x="349.448682" y="194.562047" style="fill: #8b96a3; stroke: #8b96a3; stroke-width: 0.8"/>
      </g>
     </g>
     <g id="text_5">
      <text style="font-size: 12px; font-family: 'DejaVu Sans'; text-anchor: middle; fill: #8b96a3" x="349.448682" y="210.680172" transform="rotate(-0 349.448682 210.680172)">Mar 01</text>
     </g>
    </g>
    <g id="xtick_6">
     <g id="line2d_11">
      <path d="M 419.587591 194.562047 
L 419.587591 22.698047 
" clip-path="url(#p96527b6b3e)" style="fill: none; stroke: #2a323c; stroke-opacity: 0.35; stroke-width: 0.8; stroke-linecap: square"/>
     </g>
     <g id="line2d_12">
      <g>
       <use xlink:href="#m3fd74e7a78" x="419.587591" y="194.562047" style="fill: #8b96a3; stroke: #8b96a3; stroke-width: 0.8"/>
      </g>
     </g>
     <g id="text_6">
      <text style="font-size: 12px; font-family: 'DejaVu Sans'; text-anchor: middle; fill: #8b96a3" x="419.587591" y="210.680172" transform="rotate(-0 419.587591 210.680172)">May 01</text>
     </g>
    </g>
    <g id="xtick_7">
     <g id="line2d_13">
      <path d="M 489.7265 194.562047 
L 489.7265 22.698047 
" clip-path="url(#p96527b6b3e)" style="fill: none; stroke: #2a323c; stroke-opacity: 0.35; stroke-width: 0.8; stroke-linecap: square"/>
     </g>
     <g id="line2d_14">
      <g>
       <use xlink:href="#m3fd74e7a78" x="489.7265" y="194.562047" style="fill: #8b96a3; stroke: #8b96a3; stroke-width: 0.8"/>
      </g>
     </g>
     <g id="text_7">
      <text style="font-size: 12px; font-family: 'DejaVu Sans'; text-anchor: middle; fill: #8b96a3" x="489.7265" y="210.680172" transform="rotate(-0 489.7265 210.680172)">Jul 01</text>
     </g>
    </g>
   </g>
   <g id="matplotlib.axis_2">
    <g id="ytick_1">
     <g id="line2d_15">
      <path d="M 56.5325 194.562047 
L 530.8325 194.562047 
" clip-path="url(#p96527b6b3e)" style="fill: none; stroke: #2a323c; stroke-opacity: 0.35; stroke-width: 0.8; stroke-linecap: square"/>
     </g>
     <g id="line2d_16">
      <defs>
       <path id="md3cc1cfa1c" d="M 0 0 
L -3.5 0 
" style="stroke: #8b96a3; stroke-width: 0.8"/>
      </defs>
      <g>
       <use xlink:href="#md3cc1cfa1c" x="56.5325" y="194.562047" style="fill: #8b96a3; stroke: #8b96a3; stroke-width: 0.8"/>
      </g>
     </g>
     <g id="text_8">
      <text style="font-size: 12px; font-family: 'DejaVu Sans'; text-anchor: end; fill: #8b96a3" x="49.5325" y="199.121109" transform="rotate(-0 49.5325 199.121109)">0.00</text>
     </g>
    </g>
    <g id="ytick_2">
     <g id="line2d_17">
      <path d="M 56.5325 169.119936 
L 530.8325 169.119936 
" clip-path="url(#p96527b6b3e)" style="fill: none; stroke: #2a323c; stroke-opacity: 0.35; stroke-width: 0.8; stroke-linecap: square"/>
     </g>
     <g id="line2d_18">
      <g>
       <use xlink:href="#md3cc1cfa1c" x="56.5325" y="169.119936" style="fill: #8b96a3; stroke: #8b96a3; stroke-width: 0.8"/>
      </g>
     </g>
     <g id="text_9">
      <text style="font-size: 12px; font-family: 'DejaVu Sans'; text-anchor: end; fill: #8b96a3" x="49.5325" y="173.678999" transform="rotate(-0 49.5325 173.678999)">0.05</text>
     </g>
    </g>
    <g id="ytick_3">
     <g id="line2d_19">
      <path d="M 56.5325 143.677826 
L 530.8325 143.677826 
" clip-path="url(#p96527b6b3e)" style="fill: none; stroke: #2a323c; stroke-opacity: 0.35; stroke-width: 0.8; stroke-linecap: square"/>
     </g>
     <g id="line2d_20">
      <g>
       <use xlink:href="#md3cc1cfa1c" x="56.5325" y="143.677826" style="fill: #8b96a3; stroke: #8b96a3; stroke-width: 0.8"/>
      </g>
     </g>
     <g id="text_10">
      <text style="font-size: 12px; font-family: 'DejaVu Sans'; text-anchor: end; fill: #8b96a3" x="49.5325" y="148.236889" transform="rotate(-0 49.5325 148.236889)">0.10</text>
     </g>
    </g>
    <g id="ytick_4">
     <g id="line2d_21">
      <path d="M 56.5325 118.235716 
L 530.8325 118.235716 
" clip-path="url(#p96527b6b3e)" style="fill: none; stroke: #2a323c; stroke-opacity: 0.35; stroke-width: 0.8; stroke-linecap: square"/>
     </g>
     <g id="line2d_22">
      <g>
       <use xlink:href="#md3cc1cfa1c" x="56.5325" y="118.235716" style="fill: #8b96a3; stroke: #8b96a3; stroke-width: 0.8"/>
      </g>
     </g>
     <g id="text_11">
      <text style="font-size: 12px; font-family: 'DejaVu Sans'; text-anchor: end; fill: #8b96a3" x="49.5325" y="122.794778" transform="rotate(-0 49.5325 122.794778)">0.15</text>
     </g>
    </g>
    <g id="ytick_5">
     <g id="line2d_23">
      <path d="M 56.5325 92.793605 
L 530.8325 92.793605 
" clip-path="url(#p96527b6b3e)" style="fill: none; stroke: #2a323c; stroke-opacity: 0.35; stroke-width: 0.8; stroke-linecap: square"/>
     </g>
     <g id="line2d_24">
      <g>
       <use xlink:href="#md3cc1cfa1c" x="56.5325" y="92.793605" style="fill: #8b96a3; stroke: #8b96a3; stroke-width: 0.8"/>
      </g>
     </g>
     <g id="text_12">
      <text style="font-size: 12px; font-family: 'DejaVu Sans'; text-anchor: end; fill: #8b96a3" x="49.5325" y="97.352668" transform="rotate(-0 49.5325 97.352668)">0.20</text>
     </g>
    </g>
    <g id="ytick_6">
     <g id="line2d_25">
      <path d="M 56.5325 67.351495 
L 530.8325 67.351495 
" clip-path="url(#p96527b6b3e)" style="fill: none; stroke: #2a323c; stroke-opacity: 0.35; stroke-width: 0.8; stroke-linecap: square"/>
     </g>
     <g id="line2d_26">
      <g>
       <use xlink:href="#md3cc1cfa1c" x="56.5325" y="67.351495" style="fill: #8b96a3; stroke: #8b96a3; stroke-width: 0.8"/>
      </g>
     </g>
     <g id="text_13">
      <text style="font-size: 12px; font-family: 'DejaVu Sans'; text-anchor: end; fill: #8b96a3" x="49.5325" y="71.910557" transform="rotate(-0 49.5325 71.910557)">0.25</text>
     </g>
    </g>
    <g id="ytick_7">
     <g id="line2d_27">
      <path d="M 56.5325 41.909384 
L 530.8325 41.909384 
" clip-path="url(#p96527b6b3e)" style="fill: none; stroke: #2a323c; stroke-opacity: 0.35; stroke-width: 0.8; stroke-linecap: square"/>
     </g>
     <g id="line2d_28">
      <g>
       <use xlink:href="#md3cc1cfa1c" x="56.5325" y="41.909384" style="fill: #8b96a3; stroke: #8b96a3; stroke-width: 0.8"/>
      </g>
     </g>
     <g id="text_14">
      <text style="font-size: 12px; font-family: 'DejaVu Sans'; text-anchor: end; fill: #8b96a3" x="49.5325" y="46.468447" transform="rotate(-0 49.5325 46.468447)">0.30</text>
     </g>
    </g>
    <g id="text_15">
     <text style="font-size: 12px; font-family: 'DejaVu Sans'; text-anchor: middle; fill: #8b96a3" x="16.318125" y="108.630047" transform="rotate(-90 16.318125 108.630047)">degraded ratio</text>
    </g>
   </g>
   <g id="FillBetweenPolyCollection_1">
    <defs>
     <path id="mb393d57239" d="M 84.9905 -44.687849 
L 84.9905 -38.211639 
L 86.140318 -38.164598 
L 87.290136 -38.638385 
L 88.439955 -39.013323 
L 89.589773 -39.133029 
L 133.282864 -38.627679 
L 134.432682 -38.854603 
L 135.5825 -38.296461 
L 136.732318 -37.566389 
L 137.882136 -37.239767 
L 139.031955 -36.557036 
L 140.181773 -36.679142 
L 141.331591 -36.507591 
L 142.481409 -36.716471 
L 143.631227 -36.712716 
L 144.781045 -36.861933 
L 145.930864 -36.723148 
L 147.080682 -36.752575 
L 148.2305 -36.931676 
L 149.380318 -36.900877 
L 340.250136 -36.026907 
L 341.399955 -35.553339 
L 342.549773 -35.074334 
L 343.699591 -34.180262 
L 344.849409 -33.511661 
L 345.999227 -32.834002 
L 347.149045 -32.10155 
L 348.298864 -29.698562 
L 349.448682 -17.92006 
L 350.5985 -17.295998 
L 351.748318 -16.334478 
L 352.898136 -15.807942 
L 354.047955 -14.923812 
L 355.197773 -15.124092 
L 356.347591 -15.833828 
L 357.497409 -18.091122 
L 358.647227 -20.654079 
L 359.797045 -23.298726 
L 360.946864 -26.388034 
L 362.096682 -29.245643 
L 363.2465 -32.526361 
L 364.396318 -35.502681 
L 365.546136 -39.096068 
L 366.695955 -42.58383 
L 367.845773 -46.571748 
L 368.995591 -50.853115 
L 370.145409 -54.985449 
L 371.295227 -59.954166 
L 372.445045 -66.137267 
L 373.594864 -72.092171 
L 374.744682 -78.595078 
L 375.8945 -86.18528 
L 377.044318 -94.264088 
L 378.194136 -103.268369 
L 379.343955 -114.854216 
L 380.493773 -119.888257 
L 381.643591 -116.678188 
L 382.793409 -117.42678 
L 383.943227 -117.939071 
L 385.093045 -117.981236 
L 386.242864 -117.671607 
L 387.392682 -117.837527 
L 388.5425 -117.343393 
L 389.692318 -117.728734 
L 390.842136 -119.262387 
L 391.991955 -119.440825 
L 393.141773 -119.329311 
L 394.291591 -118.540606 
L 395.441409 -115.921224 
L 396.591227 -115.138273 
L 397.741045 -109.660276 
L 398.890864 -109.084114 
L 400.040682 -109.618545 
L 401.1905 -109.043245 
L 402.340318 -104.904919 
L 403.490136 -104.908039 
L 404.639955 -104.13644 
L 405.789773 -102.101578 
L 406.939591 -97.038045 
L 408.089409 -97.145711 
L 409.239227 -97.062599 
L 410.389045 -95.985553 
L 411.538864 -90.903448 
L 412.688682 -86.877468 
L 413.8385 -83.824443 
L 414.988318 -79.959802 
L 416.138136 -79.776001 
L 417.287955 -78.24694 
L 418.437773 -73.838812 
L 419.587591 -68.777919 
L 420.737409 -65.167748 
L 421.887227 -64.892902 
L 423.037045 -61.993994 
L 426.4865 -58.090282 
L 427.636318 -56.718206 
L 428.786136 -55.86082 
L 429.935955 -53.939029 
L 431.085773 -52.153395 
L 432.235591 -52.958764 
L 433.385409 -51.146746 
L 434.535227 -50.246888 
L 435.685045 -49.423266 
L 436.834864 -49.34448 
L 437.984682 -49.374925 
L 439.1345 -49.405417 
L 440.284318 -49.21375 
L 441.434136 -50.142382 
L 442.583955 -51.389135 
L 443.733773 -52.00951 
L 444.883591 -51.992199 
L 446.033409 -52.90591 
L 447.183227 -50.101732 
L 448.333045 -49.935253 
L 449.482864 -49.554821 
L 450.632682 -48.183979 
L 451.7825 -48.053703 
L 452.932318 -48.936363 
L 454.082136 -50.618758 
L 455.231955 -51.46314 
L 456.381773 -50.097652 
L 457.531591 -51.621719 
L 458.681409 -52.682534 
L 459.831227 -52.69461 
L 460.981045 -51.375548 
L 462.130864 -50.980357 
L 463.280682 -52.354458 
L 464.4305 -50.412133 
L 465.580318 -50.188694 
L 466.730136 -50.275493 
L 467.879955 -48.781034 
L 469.029773 -47.458989 
L 470.179591 -48.088429 
L 471.329409 -45.893726 
L 472.479227 -43.616851 
L 473.629045 -42.368961 
L 474.778864 -41.947199 
L 475.928682 -39.73319 
L 477.0785 -37.07682 
L 478.228318 -35.348496 
L 479.378136 -37.823772 
L 480.527955 -44.018407 
L 481.677773 -43.169935 
L 482.827591 -42.718071 
L 483.977409 -42.407358 
L 485.127227 -41.630484 
L 486.277045 -40.551306 
L 487.426864 -39.674927 
L 488.576682 -38.64846 
L 489.7265 -38.572525 
L 490.876318 -38.231874 
L 492.026136 -37.60631 
L 493.175955 -37.556214 
L 494.325773 -37.563617 
L 495.475591 -38.636549 
L 496.625409 -37.826903 
L 497.775227 -37.326178 
L 498.925045 -37.217079 
L 500.074864 -37.263042 
L 501.224682 -37.170101 
L 502.3745 -38.304971 
L 503.524318 -38.339923 
L 504.674136 -38.693674 
L 505.823955 -38.716858 
L 506.973773 -39.749722 
L 508.123591 -39.810121 
L 509.273409 -40.363764 
L 509.273409 -51.309618 
L 509.273409 -51.309618 
L 508.123591 -50.224062 
L 506.973773 -49.601159 
L 505.823955 -52.255048 
L 504.674136 -52.925189 
L 503.524318 -52.4866 
L 502.3745 -52.445225 
L 501.224682 -55.688157 
L 500.074864 -55.86781 
L 498.925045 -55.812004 
L 497.775227 -56.128151 
L 496.625409 -56.773264 
L 495.475591 -57.143378 
L 494.325773 -62.36997 
L 493.175955 -62.362296 
L 492.026136 -62.474276 
L 490.876318 -64.223308 
L 489.7265 -64.481961 
L 488.576682 -67.69277 
L 487.426864 -68.434058 
L 486.277045 -69.178435 
L 485.127227 -69.893398 
L 483.977409 -70.560127 
L 482.827591 -72.232015 
L 481.677773 -72.650836 
L 480.527955 -72.755972 
L 479.378136 -88.136152 
L 478.228318 -100.456582 
L 477.0785 -103.91091 
L 475.928682 -106.011273 
L 474.778864 -108.670841 
L 473.629045 -109.089611 
L 472.479227 -110.107011 
L 471.329409 -110.87942 
L 470.179591 -111.862154 
L 469.029773 -111.504063 
L 467.879955 -111.908313 
L 466.730136 -112.158994 
L 465.580318 -111.199705 
L 464.4305 -111.230687 
L 463.280682 -112.355953 
L 462.130864 -111.367573 
L 460.981045 -111.379456 
L 459.831227 -111.888591 
L 458.681409 -111.882494 
L 457.531591 -111.96924 
L 456.381773 -111.185344 
L 455.231955 -112.851102 
L 454.082136 -112.750491 
L 452.932318 -112.681015 
L 451.7825 -112.535086 
L 450.632682 -112.681039 
L 449.482864 -115.72622 
L 448.333045 -115.767401 
L 447.183227 -107.579388 
L 446.033409 -96.942674 
L 444.883591 -93.680245 
L 443.733773 -93.528454 
L 442.583955 -95.275552 
L 441.434136 -100.883809 
L 440.284318 -99.947898 
L 439.1345 -100.50859 
L 437.984682 -102.534471 
L 436.834864 -108.496562 
L 435.685045 -108.559525 
L 434.535227 -111.570392 
L 433.385409 -115.835282 
L 432.235591 -117.966792 
L 431.085773 -117.209289 
L 429.935955 -118.894685 
L 428.786136 -119.804238 
L 427.636318 -121.749118 
L 426.4865 -124.476857 
L 423.037045 -127.70784 
L 421.887227 -130.896865 
L 420.737409 -133.496977 
L 419.587591 -135.018843 
L 418.437773 -137.365239 
L 417.287955 -138.812431 
L 416.138136 -143.055095 
L 414.988318 -144.634069 
L 413.8385 -145.239969 
L 412.688682 -144.789309 
L 411.538864 -146.324248 
L 410.389045 -146.032528 
L 409.239227 -146.347529 
L 408.089409 -146.478858 
L 406.939591 -145.961375 
L 405.789773 -145.353846 
L 404.639955 -145.688735 
L 403.490136 -147.021561 
L 402.340318 -146.857491 
L 401.1905 -149.126942 
L 400.040682 -150.161764 
L 398.890864 -149.554934 
L 397.741045 -149.767478 
L 396.591227 -148.883599 
L 395.441409 -148.853008 
L 394.291591 -148.392571 
L 393.141773 -148.799645 
L 391.991955 -148.873495 
L 390.842136 -148.612147 
L 389.692318 -148.08499 
L 388.5425 -147.303628 
L 387.392682 -149.728067 
L 386.242864 -151.391438 
L 385.093045 -153.215311 
L 383.943227 -151.342049 
L 382.793409 -150.389602 
L 381.643591 -150.400372 
L 380.493773 -152.809375 
L 379.343955 -153.416489 
L 378.194136 -158.202023 
L 377.044318 -160.871219 
L 375.8945 -161.920735 
L 374.744682 -162.04186 
L 373.594864 -161.860761 
L 372.445045 -161.146198 
L 371.295227 -159.038806 
L 370.145409 -156.433042 
L 368.995591 -151.915059 
L 367.845773 -148.578332 
L 366.695955 -146.467412 
L 365.546136 -144.00172 
L 364.396318 -140.591258 
L 363.2465 -138.148408 
L 362.096682 -135.130386 
L 360.946864 -131.118626 
L 359.797045 -127.185911 
L 358.647227 -122.939381 
L 357.497409 -120.046823 
L 356.347591 -115.703706 
L 355.197773 -107.853989 
L 354.047955 -99.025955 
L 352.898136 -89.607814 
L 351.748318 -82.429984 
L 350.5985 -75.878469 
L 349.448682 -71.00194 
L 348.298864 -50.024298 
L 347.149045 -44.61914 
L 345.999227 -44.817143 
L 344.849409 -44.859131 
L 343.699591 -45.084639 
L 342.549773 -45.520826 
L 341.399955 -45.459799 
L 340.250136 -45.59213 
L 149.380318 -45.574203 
L 148.2305 -45.727057 
L 147.080682 -45.579312 
L 145.930864 -45.722491 
L 144.781045 -45.920587 
L 143.631227 -45.973544 
L 142.481409 -46.164118 
L 141.331591 -46.148571 
L 140.181773 -46.406114 
L 139.031955 -46.564804 
L 137.882136 -46.813703 
L 136.732318 -47.122286 
L 135.5825 -47.39439 
L 134.432682 -47.710786 
L 133.282864 -47.838551 
L 89.589773 -48.233698 
L 88.439955 -48.538436 
L 87.290136 -48.641992 
L 86.140318 -47.339072 
L 84.9905 -44.687849 
z
"/>
    </defs>
    <g clip-path="url(#p96527b6b3e)">
     <use xlink:href="#mb393d57239" x="0" y="220.375797" style="fill: #3a6690; fill-opacity: 0.28"/>
    </g>
   </g>
   <g id="line2d_29">
    <path d="M 84.9905 178.926053 
L 86.140318 177.623962 
L 87.290136 176.735608 
L 88.439955 176.599917 
L 89.589773 176.692434 
L 134.432682 177.093102 
L 139.031955 178.814877 
L 140.181773 178.833169 
L 141.331591 179.047716 
L 142.481409 178.935503 
L 143.631227 179.032667 
L 144.781045 178.984537 
L 147.080682 179.209853 
L 148.2305 179.04643 
L 149.380318 179.138257 
L 340.250136 179.566279 
L 342.549773 180.078217 
L 343.699591 180.743346 
L 347.149045 182.015452 
L 348.298864 180.514367 
L 349.448682 175.914797 
L 350.5985 173.788564 
L 351.748318 170.993566 
L 352.898136 167.667919 
L 356.347591 154.60703 
L 357.497409 151.306825 
L 358.647227 148.579067 
L 363.2465 135.038412 
L 364.396318 132.328828 
L 365.546136 128.826903 
L 367.845773 122.800757 
L 368.995591 118.99171 
L 370.145409 114.666551 
L 373.594864 103.399331 
L 374.744682 100.057328 
L 377.044318 92.808144 
L 379.343955 86.240445 
L 380.493773 84.026981 
L 381.643591 86.836517 
L 382.793409 86.467606 
L 383.943227 85.735237 
L 385.093045 84.777523 
L 386.242864 85.844275 
L 387.392682 86.592999 
L 388.5425 88.052286 
L 389.692318 87.468935 
L 390.842136 86.43853 
L 391.991955 86.218637 
L 393.141773 86.311319 
L 394.291591 86.909209 
L 395.441409 87.988681 
L 396.591227 88.364861 
L 397.741045 90.66192 
L 398.890864 91.056273 
L 400.040682 90.485642 
L 401.1905 91.290703 
L 402.340318 94.494592 
L 403.490136 94.410997 
L 405.789773 96.648085 
L 406.939591 98.876087 
L 408.089409 98.563512 
L 409.239227 98.670733 
L 410.389045 99.366756 
L 411.538864 101.761949 
L 412.688682 104.542408 
L 413.8385 105.843591 
L 414.988318 108.078862 
L 416.138136 108.960249 
L 418.437773 114.773771 
L 419.587591 118.477416 
L 420.737409 121.043434 
L 421.887227 122.480914 
L 423.037045 125.52488 
L 426.4865 129.092228 
L 427.636318 131.142135 
L 429.935955 133.95894 
L 431.085773 135.694455 
L 432.235591 134.913019 
L 433.385409 136.884783 
L 434.535227 139.467157 
L 435.685045 141.384402 
L 436.834864 141.455276 
L 437.984682 144.421099 
L 439.1345 145.418793 
L 440.284318 145.794973 
L 441.434136 144.862701 
L 442.583955 147.043454 
L 443.733773 147.606815 
L 444.883591 147.539575 
L 446.033409 145.451505 
L 448.333045 137.52447 
L 449.482864 137.735276 
L 450.632682 139.943288 
L 451.7825 140.081402 
L 452.932318 139.567108 
L 454.082136 138.691172 
L 455.231955 138.218676 
L 456.381773 139.734299 
L 457.531591 138.580318 
L 458.681409 138.093283 
L 459.831227 138.084196 
L 460.981045 138.998295 
L 462.130864 139.201832 
L 463.280682 138.020591 
L 464.4305 139.554387 
L 465.580318 139.681597 
L 466.730136 139.158553 
L 469.029773 140.894271 
L 470.179591 140.400505 
L 472.479227 143.513866 
L 473.629045 144.646511 
L 474.778864 145.066777 
L 478.228318 152.473258 
L 480.527955 161.988607 
L 482.827591 162.900754 
L 483.977409 163.892054 
L 485.127227 164.613856 
L 488.576682 167.205182 
L 489.7265 168.848554 
L 490.876318 169.148205 
L 492.026136 170.335504 
L 494.325773 170.409003 
L 495.475591 172.485833 
L 497.775227 173.648632 
L 498.925045 173.861255 
L 500.074864 173.810371 
L 501.224682 173.946668 
L 502.3745 175.000699 
L 503.524318 174.962535 
L 504.674136 174.566365 
L 505.823955 174.889844 
L 506.973773 175.700357 
L 508.123591 175.358705 
L 509.273409 174.539106 
L 509.273409 174.539106 
" clip-path="url(#p96527b6b3e)" style="fill: none; stroke: #3a6690; stroke-opacity: 0.8; stroke-linecap: square"/>
   </g>
   <g id="line2d_30">
    <path d="M 78.091591 183.621939 
L 79.241409 172.936253 
L 80.391227 177.464949 
L 81.541045 181.484802 
L 82.690864 178.787938 
L 83.840682 180.925076 
L 84.9905 177.261412 
L 86.140318 168.509326 
L 87.290136 169.628779 
L 88.439955 175.378696 
L 89.589773 177.617601 
L 133.282864 182.095413 
L 134.432682 176.498148 
L 135.5825 183.214866 
L 136.732318 185.046698 
L 137.882136 183.113097 
L 139.031955 186.267919 
L 140.181773 179.144128 
L 141.331591 182.90956 
L 142.481409 176.803454 
L 143.631227 180.97596 
L 144.781045 177.973791 
L 145.930864 182.858676 
L 147.080682 180.518002 
L 148.2305 175.124275 
L 149.380318 181.433918 
L 340.250136 190.694846 
L 341.399955 188.048867 
L 342.549773 189.473625 
L 343.699591 191.559878 
L 344.849409 189.982467 
L 345.999227 191.559878 
L 347.149045 191.814299 
L 348.298864 138.894709 
L 349.448682 48.473449 
L 350.5985 108.974787 
L 351.748318 91.368847 
L 352.898136 82.260572 
L 354.047955 58.141451 
L 355.197773 55.699008 
L 356.347591 56.665808 
L 357.497409 90.809121 
L 358.647227 108.669482 
L 359.797045 86.636615 
L 360.946864 87.959604 
L 362.096682 82.972951 
L 363.2465 94.727206 
L 364.396318 100.935081 
L 365.546136 82.922066 
L 366.695955 94.625437 
L 367.845773 97.474954 
L 368.995591 73.864675 
L 370.145409 54.019829 
L 371.295227 75.391202 
L 372.445045 74.627938 
L 373.594864 94.676321 
L 374.744682 95.897543 
L 375.8945 86.992804 
L 377.044318 91.572384 
L 378.194136 102.868681 
L 379.343955 96.609922 
L 380.493773 76.917728 
L 381.643591 127.140454 
L 383.943227 70.862506 
L 385.093045 55.444587 
L 386.242864 88.010488 
L 387.392682 76.663307 
L 388.5425 97.525838 
L 389.692318 74.475286 
L 390.842136 79.818129 
L 391.991955 80.479624 
L 394.291591 99.713859 
L 395.441409 124.952433 
L 396.591227 111.468114 
L 397.741045 147.239722 
L 398.890864 105.667313 
L 400.040682 81.497308 
L 401.1905 96.406385 
L 402.340318 143.72871 
L 403.490136 73.050528 
L 404.639955 104.089902 
L 405.789773 127.852833 
L 406.939591 158.281597 
L 408.089409 78.240718 
L 409.239227 94.574553 
L 410.389045 122.357338 
L 411.538864 163.675325 
L 412.688682 154.770586 
L 413.8385 163.573556 
L 414.988318 161.232882 
L 416.138136 95.541353 
L 417.287955 136.24873 
L 418.437773 169.984968 
L 419.587591 180.365349 
L 420.737409 169.374358 
L 421.887227 114.724704 
L 423.037045 165.049199 
L 426.4865 180.365349 
L 427.636318 147.952101 
L 428.786136 138.945594 
L 429.935955 164.591241 
L 431.085773 160.062545 
L 432.235591 125.359507 
L 433.385409 160.876693 
L 434.535227 153.803786 
L 435.685045 150.089238 
L 436.834864 145.713195 
L 437.984682 156.093576 
L 439.1345 132.025339 
L 440.284318 138.385867 
L 441.434136 132.177992 
L 442.583955 139.301783 
L 443.733773 110.348661 
L 444.883591 120.474621 
L 446.033409 105.209355 
L 447.183227 45.11509 
L 448.333045 51.272081 
L 449.482864 167.135452 
L 450.632682 157.365681 
L 451.7825 140.115931 
L 452.932318 155.584734 
L 455.231955 156.14446 
L 456.381773 157.162145 
L 457.531591 132.737719 
L 458.681409 166.728378 
L 459.831227 147.69768 
L 460.981045 164.540357 
L 462.130864 170.290274 
L 463.280682 126.987802 
L 464.4305 168.305789 
L 465.580318 164.438588 
M 467.879955 173.648632 
L 469.029773 169.018168 
L 470.179591 142.76191 
L 471.329409 174.920738 
L 472.479227 179.551202 
L 473.629045 162.759409 
L 474.778864 150.648964 
L 475.928682 176.141959 
L 477.0785 184.690508 
L 478.228318 175.175159 
L 479.378136 178.024675 
L 480.527955 175.276927 
L 481.677773 180.00916 
L 482.827591 169.119936 
L 483.977409 166.881031 
L 485.127227 175.07339 
L 486.277045 180.060044 
L 487.426864 178.024675 
L 488.576682 181.026844 
L 489.7265 177.108759 
L 490.876318 174.818969 
L 492.026136 179.754739 
L 493.175955 166.728378 
L 494.325773 170.086737 
L 495.475591 183.062213 
L 496.625409 184.23255 
L 497.775227 179.907391 
L 498.925045 179.602086 
L 500.074864 172.223874 
L 501.224682 172.834485 
L 502.3745 172.274758 
L 503.524318 173.852169 
L 504.674136 168.458442 
L 505.823955 171.8168 
L 506.973773 173.343327 
L 508.123591 166.575725 
L 509.273409 161.741724 
L 509.273409 161.741724 
" clip-path="url(#p96527b6b3e)" style="fill: none; stroke: #35e0d0; stroke-width: 1.7; stroke-linecap: square"/>
   </g>
   <g id="patch_3">
    <path d="M 56.5325 194.562047 
L 56.5325 22.698047 
" style="fill: none; stroke: #2a323c; stroke-width: 0.8; stroke-linejoin: miter; stroke-linecap: square"/>
   </g>
   <g id="patch_4">
    <path d="M 530.8325 194.562047 
L 530.8325 22.698047 
" style="fill: none; stroke: #2a323c; stroke-width: 0.8; stroke-linejoin: miter; stroke-linecap: square"/>
   </g>
   <g id="patch_5">
    <path d="M 56.5325 194.562047 
L 530.8325 194.562047 
" style="fill: none; stroke: #2a323c; stroke-width: 0.8; stroke-linejoin: miter; stroke-linecap: square"/>
   </g>
   <g id="patch_6">
    <path d="M 56.5325 22.698047 
L 530.8325 22.698047 
" style="fill: none; stroke: #2a323c; stroke-width: 0.8; stroke-linejoin: miter; stroke-linecap: square"/>
   </g>
   <g id="text_16">
    <text style="font-size: 12.5px; font-family: 'DejaVu Sans'; text-anchor: start; fill: #e6ebf0" x="56.5325" y="16.698047" transform="rotate(-0 56.5325 16.698047)">Eastern Mediterranean: daily degraded ratio with 28-day baseline</text>
   </g>
   <g id="legend_1">
    <g id="patch_7">
     <path d="M 369.153125 56.318672 
L 524.5325 56.318672 
Q 526.3325 56.318672 526.3325 54.518672 
L 526.3325 28.998047 
Q 526.3325 27.198047 524.5325 27.198047 
L 369.153125 27.198047 
Q 367.353125 27.198047 367.353125 28.998047 
L 367.353125 54.518672 
Q 367.353125 56.318672 369.153125 56.318672 
L 369.153125 56.318672 
z
" style="fill: none; opacity: 0"/>
    </g>
    <g id="patch_8">
     <path d="M 370.953125 37.636641 
L 388.953125 37.636641 
L 388.953125 31.336641 
L 370.953125 31.336641 
z
" style="fill: #3a6690; fill-opacity: 0.28"/>
    </g>
    <g id="text_17">
     <text style="font-size: 9px; font-family: 'DejaVu Sans'; text-anchor: start; fill: #8b96a3" x="396.153125" y="37.636641" transform="rotate(-0 396.153125 37.636641)">28-day baseline ±1σ</text>
    </g>
    <g id="line2d_31">
     <path d="M 370.953125 47.696953 
L 379.953125 47.696953 
L 388.953125 47.696953 
" style="fill: none; stroke: #35e0d0; stroke-width: 1.7; stroke-linecap: square"/>
    </g>
    <g id="text_18">
     <text style="font-size: 9px; font-family: 'DejaVu Sans'; text-anchor: start; fill: #8b96a3" x="396.153125" y="50.846953" transform="rotate(-0 396.153125 50.846953)">degraded ratio (daily mean)</text>
    </g>
   </g>
  </g>
 </g>
 <defs>
  <clipPath id="p96527b6b3e">
   <rect x="56.5325" y="22.698047" width="474.3" height="171.864"/>
  </clipPath>
 </defs>
</svg>
