<?xml version="1.0" encoding="utf-8" standalone="no"?>
<!DOCTYPE svg PUBLIC "-//W3C//DTD SVG 1.1//EN"
  "http://www.w3.org/Graphics/SVG/1.1/DTD/svg11.dtd">
<svg xmlns:xlink="http://www.w3.org/1999/xlink" width="530.3975pt" height="220.375797pt" viewBox="0 0 530.3975 220.375797" xmlns="http://www.w3.org/2000/svg" version="1.1">
 <metadata>
  <rdf:RDF xmlns:dc="http://purl.org/dc/elements/1.1/" xmlns:cc="http://creativecommons.org/ns#" xmlns:rdf="http://www.w3.org/1999/02/22-rdf-syntax-ns#">
   <cc:Work>
    <dc:type rdf:resource="http://purl.org/dc/dcmitype/StillImage"/>
    <dc:date>2026-07-19T21:23:11.032366</dc:date>
    <dc:format>image/svg+xml</dc:format>
    <dc:creator>
     <cc:Agent>
      <dc:title>Matplotlib v3.10.8, https://matplotlib.org/</dc:title>
     </cc:Agent>
    </dc:creator>
   </cc:Work>
  </rdf:RDF>
 </metadata>
 <defs>
  <style type="text/css">*{stroke-linejoin: round; stroke-linecap: butt}</style>
 </defs>
 <g id="figure_1">
  <g id="patch_1">
   <path d="M 0 220.375797 
L 530.3975 220.375797 
L 530.3975 0 
L 0 0 
z
" style="fill: #0a0c0f"/>
  </g>
  <g id="axes_1">
   <g id="patch_2">
    <path d="M 48.8975 194.562047 
L 523.1975 194.562047 
L 523.1975 22.698047 
L 48.8975 22.698047 
z
" style="fill: #10141a"/>
   </g>
   <g id="matplotlib.axis_1">
    <g id="xtick_1">
     <g id="line2d_1">
      <path d="M 62.407864 194.562047 
L 62.407864 22.698047 
" clip-path="url(#pc3fa59d4ec)" style="fill: none; stroke: #2a323c; stroke-opacity: 0.35; stroke-width: 0.8; stroke-linecap: square"/>
     </g>
     <g id="line2d_2">
      <defs>
       <path id="m1e20777ed5" d="M 0 0 
L 0 3.5 
" style="stroke: #8b96a3; stroke-width: 0.8"/>
      </defs>
      <g>
       <use xlink:href="#m1e20777ed5" x="62.407864" y="194.562047" style="fill: #8b96a3; stroke: #8b96a3; stroke-width: 0.8"/>
      </g>
     </g>
     <g id="text_1">
      <text style="font-size: 12px; font-family: 'DejaVu Sans'; text-anchor: middle; fill: #8b96a3" x="62.407864" y="210.680172" transform="rotate(-0 62.407864 210.680172)">Jul 01</text>
     </g>
    </g>
    <g id="xtick_2">
     <g id="line2d_3">
      <path d="M 133.696591 194.562047 
L 133.696591 22.698047 
" clip-path="url(#pc3fa59d4ec)" style="fill: none; stroke: #2a323c; stroke-opacity: 0.35; stroke-width: 0.8; stroke-linecap: square"/>
     </g>
     <g id="line2d_4">
      <g>
       <use xlink:href="#m1e20777ed5" x="133.696591" y="194.562047" style="fill: #8b96a3; stroke: #8b96a3; stroke-width: 0.8"/>
      </g>
     </g>
     <g id="text_2">
      <text style="font-size: 12px; font-family: 'DejaVu Sans'; text-anchor: middle; fill: #8b96a3" x="133.696591" y="210.680172" transform="rotate(-0 133.696591 210.680172)">Sep 01</text>
     </g>
    </g>
    <g id="xtick_3">
     <g id="line2d_5">
      <path d="M 203.8355 194.562047 
L 203.8355 22.698047 
" clip-path="url(#pc3fa59d4ec)" style="fill: none; stroke: #2a323c; stroke-opacity: 0.35; stroke-width: 0.8; stroke-linecap: square"/>
     </g>
     <g id="line2d_6">
      <g>
       <use xlink:href="#m1e20777ed5" x="203.8355" y="194.562047" style="fill: #8b96a3; stroke: #8b96a3; stroke-width: 0.8"/>
      </g>
     </g>
     <g id="text_3">
      <text style="font-size: 12px; font-family: 'DejaVu Sans'; text-anchor: middle; fill: #8b96a3" x="203.8355" y="210.680172" transform="rotate(-0 203.8355 210.680172)">Nov 01</text>
     </g>
    </g>
    <g id="xtick_4">
     <g id="line2d_7">
      <path d="M 273.974409 194.562047 
L 273.974409 22.698047 
" clip-path="url(#pc3fa59d4ec)" style="fill: none; stroke: #2a323c; stroke-opacity: 0.35; stroke-width: 0.8; stroke-linecap: square"/>
     </g>
     <g id="line2d_8">
      <g>
       <use xlink:href="#m1e20777ed5" x="273.974409" y="194.562047" style="fill: #8b96a3; stroke: #8b96a3; stroke-width: 0.8"/>
      </g>
     </g>
     <g id="text_4">
      <text style="font-size: 12px; font-family: 'DejaVu Sans'; text-anchor: middle; fill: #8b96a3" x="273.974409" y="210.680172" transform="rotate(-0 273.974409 210.680172)">Jan 01</text>
     </g>
    </g>
    <g id="xtick_5">
     <g id="line2d_9">
      <path d="M 341.813682 194.562047 
L 341.813682 22.698047 
" clip-path="url(#pc3fa59d4ec)" style="fill: none; stroke: #2a323c; stroke-opacity: 0.35; stroke-width: 0.8; stroke-linecap: square"/>
     </g>
     <g id="line2d_10">
      <g>
       <use xlink:href="#m1e20777ed5" x="341.813682" y="194.562047" style="fill: #8b96a3; stroke: #8b96a3; stroke-width: 0.8"/>
      </g>
     </g>
     <g id="text_5">
      <text style="font-size: 12px; font-family: 'DejaVu Sans'; text-anchor: middle; fill: #8b96a3" x="341.813682" y="210.680172" transform="rotate(-0 341.813682 210.680172)">Mar 01</text>
     </g>
    </g>
    <g id="xtick_6">
     <g id="line2d_11">
      <path d="M 411.952591 194.562047 
L 411.952591 22.698047 
" clip-path="url(#pc3fa59d4ec)" style="fill: none; stroke: #2a323c; stroke-opacity: 0.35; stroke-width: 0.8; stroke-linecap: square"/>
     </g>
     <g id="line2d_12">
      <g>
       <use xlink:href="#m1e20777ed5" x="411.952591" y="194.562047" style="fill: #8b96a3; stroke: #8b96a3; stroke-width: 0.8"/>
      </g>
     </g>
     <g id="text_6">
      <text style="font-size: 12px; font-family: 'DejaVu Sans'; text-anchor: middle; fill: #8b96a3" x="411.952591" y="210.680172" transform="rotate(-0 411.952591 210.680172)">May 01</text>
     </g>
    </g>
    <g id="xtick_7">
     <g id="line2d_13">
      <path d="M 482.0915 194.562047 
L 482.0915 22.698047 
" clip-path="url(#pc3fa59d4ec)" style="fill: none; stroke: #2a323c; stroke-opacity: 0.35; stroke-width: 0.8; stroke-linecap: square"/>
     </g>
     <g id="line2d_14">
      <g>
       <use xlink:href="#m1e20777ed5" x="482.0915" y="194.562047" style="fill: #8b96a3; stroke: #8b96a3; stroke-width: 0.8"/>
      </g>
     </g>
     <g id="text_7">
      <text style="font-size: 12px; font-family: 'DejaVu Sans'; text-anchor: middle; fill: #8b96a3" x="482.0915" y="210.680172" transform="rotate(-0 482.0915 210.680172)">Jul 01</text>
     </g>
    </g>
   </g>
   <g id="matplotlib.axis_2">
    <g id="ytick_1">
     <g id="line2d_15">
      <path d="M 48.8975 194.562047 
L 523.1975 194.562047 
" clip-path="url(#pc3fa59d4ec)" style="fill: none; stroke: #2a323c; stroke-opacity: 0.35; stroke-width: 0.8; stroke-linecap: square"/>
     </g>
     <g id="line2d_16">
      <defs>
       <path id="m8a81c8baa3" d="M 0 0 
L -3.5 0 
" style="stroke: #8b96a3; stroke-width: 0.8"/>
      </defs>
      <g>
       <use xlink:href="#m8a81c8baa3" x="48.8975" y="194.562047" style="fill: #8b96a3; stroke: #8b96a3; stroke-width: 0.8"/>
      </g>
     </g>
     <g id="text_8">
      <text style="font-size: 12px; font-family: 'DejaVu Sans'; text-anchor: end; fill: #8b96a3" x="41.8975" y="199.121109" transform="rotate(-0 41.8975 199.121109)">0.0</text>
     </g>
    </g>
    <g id="ytick_2">
     <g id="line2d_17">
      <path d="M 48.8975 166.700944 
L 523.1975 166.700944 
" clip-path="url(#pc3fa59d4ec)" style="fill: none; stroke: #2a323c; stroke-opacity: 0.35; stroke-width: 0.8; stroke-linecap: square"/>
     </g>
     <g id="line2d_18">
      <g>
       <use xlink:href="#m8a81c8baa3" x="48.8975" y="166.700944" style="fill: #8b96a3; stroke: #8b96a3; stroke-width: 0.8"/>
      </g>
     </g>
     <g id="text_9">
      <text style="font-size: 12px; font-family: 'DejaVu Sans'; text-anchor: end; fill: #8b96a3" x="41.8975" y="171.260006" transform="rotate(-0 41.8975 171.260006)">0.1</text>
     </g>
    </g>
    <g id="ytick_3">
     <g id="line2d_19">
      <path d="M 48.8975 138.839841 
L 523.1975 138.839841 
" clip-path="url(#pc3fa59d4ec)" style="fill: none; stroke: #2a323c; stroke-opacity: 0.35; stroke-width: 0.8; stroke-linecap: square"/>
     </g>
     <g id="line2d_20">
      <g>
       <use xlink:href="#m8a81c8baa3" x="48.8975" y="138.839841" style="fill: #8b96a3; stroke: #8b96a3; stroke-width: 0.8"/>
      </g>
     </g>
     <g id="text_10">
      <text style="font-size: 12px; font-family: 'DejaVu Sans'; text-anchor: end; fill: #8b96a3" x="41.8975" y="143.398903" transform="rotate(-0 41.8975 143.398903)">0.2</text>
     </g>
    </g>
    <g id="ytick_4">
     <g id="line2d_21">
      <path d="M 48.8975 110.978738 
L 523.1975 110.978738 
" clip-path="url(#pc3fa59d4ec)" style="fill: none; stroke: #2a323c; stroke-opacity: 0.35; stroke-width: 0.8; stroke-linecap: square"/>
     </g>
     <g id="line2d_22">
      <g>
       <use xlink:href="#m8a81c8baa3" x="48.8975" y="110.978738" style="fill: #8b96a3; stroke: #8b96a3; stroke-width: 0.8"/>
      </g>
     </g>
     <g id="text_11">
      <text style="font-size: 12px; font-family: 'DejaVu Sans'; text-anchor: end; fill: #8b96a3" x="41.8975" y="115.5378" transform="rotate(-0 41.8975 115.5378)">0.3</text>
     </g>
    </g>
    <g id="ytick_5">
     <g id="line2d_23">
      <path d="M 48.8975 83.117635 
L 523.1975 83.117635 
" clip-path="url(#pc3fa59d4ec)" style="fill: none; stroke: #2a323c; stroke-opacity: 0.35; stroke-width: 0.8; stroke-linecap: square"/>
     </g>
     <g id="line2d_24">
      <g>
       <use xlink:href="#m8a81c8baa3" x="48.8975" y="83.117635" style="fill: #8b96a3; stroke: #8b96a3; stroke-width: 0.8"/>
      </g>
     </g>
     <g id="text_12">
      <text style="font-size: 12px; font-family: 'DejaVu Sans'; text-anchor: end; fill: #8b96a3" x="41.8975" y="87.676697" transform="rotate(-0 41.8975 87.676697)">0.4</text>
     </g>
    </g>
    <g id="ytick_6">
     <g id="line2d_25">
      <path d="M 48.8975 55.256532 
L 523.1975 55.256532 
" clip-path="url(#pc3fa59d4ec)" style="fill: none; stroke: #2a323c; stroke-opacity: 0.35; stroke-width: 0.8; stroke-linecap: square"/>
     </g>
     <g id="line2d_26">
      <g>
       <use xlink:href="#m8a81c8baa3" x="48.8975" y="55.256532" style="fill: #8b96a3; stroke: #8b96a3; stroke-width: 0.8"/>
      </g>
     </g>
     <g id="text_13">
      <text style="font-size: 12px; font-family: 'DejaVu Sans'; text-anchor: end; fill: #8b96a3" x="41.8975" y="59.815594" transform="rotate(-0 41.8975 59.815594)">0.5</text>
     </g>
    </g>
    <g id="ytick_7">
     <g id="line2d_27">
      <path d="M 48.8975 27.395429 
L 523.1975 27.395429 
" clip-path="url(#pc3fa59d4ec)" style="fill: none; stroke: #2a323c; stroke-opacity: 0.35; stroke-width: 0.8; stroke-linecap: square"/>
     </g>
     <g id="line2d_28">
      <g>
       <use xlink:href="#m8a81c8baa3" x="48.8975" y="27.395429" style="fill: #8b96a3; stroke: #8b96a3; stroke-width: 0.8"/>
      </g>
     </g>
     <g id="text_14">
      <text style="font-size: 12px; font-family: 'DejaVu Sans'; text-anchor: end; fill: #8b96a3" x="41.8975" y="31.954491" transform="rotate(-0 41.8975 31.954491)">0.6</text>
     </g>
    </g>
    <g id="text_15">
     <text style="font-size: 12px; font-family: 'DejaVu Sans'; text-anchor: middle; fill: #8b96a3" x="16.318125" y="108.630047" transform="rotate(-90 16.318125 108.630047)">degraded ratio</text>
    </g>
   </g>
   <g id="FillBetweenPolyCollection_1">
    <defs>
     <path id="m091ba1aa77" d="M 77.3555 -150.123489 
L 77.3555 -120.555963 
L 78.505318 -120.738043 
L 79.655136 -120.030713 
L 80.804955 -121.413207 
L 81.954773 -122.467991 
L 125.647864 -123.707641 
L 126.797682 -123.451653 
L 127.9475 -122.27781 
L 129.097318 -122.567719 
L 130.247136 -122.54973 
L 131.396955 -119.389686 
L 132.546773 -120.238282 
L 133.696591 -120.94574 
L 134.846409 -121.49051 
L 135.996227 -122.178666 
L 137.146045 -122.632774 
L 138.295864 -122.993625 
L 139.445682 -123.228192 
L 140.5955 -123.6073 
L 141.745318 -123.259515 
L 332.615136 -123.484262 
L 333.764955 -123.562919 
L 334.914773 -124.442252 
L 336.064591 -124.878969 
L 337.214409 -125.140952 
L 338.364227 -125.242972 
L 339.514045 -126.991857 
L 340.663864 -127.30388 
L 341.813682 -127.799316 
L 342.9635 -128.234282 
L 344.113318 -129.277958 
L 345.263136 -129.438754 
L 346.412955 -128.519699 
L 347.562773 -128.516821 
L 348.712591 -129.350128 
L 349.862409 -130.61916 
L 351.012227 -130.917008 
L 352.162045 -131.379359 
L 353.311864 -134.113976 
L 354.461682 -134.137061 
L 355.6115 -134.389069 
L 356.761318 -134.827195 
L 357.911136 -134.641304 
L 359.060955 -133.447025 
L 360.210773 -133.789766 
L 361.360591 -133.453259 
L 362.510409 -132.492401 
L 363.660227 -133.409457 
L 364.810045 -132.995442 
L 365.959864 -133.462341 
L 367.109682 -132.629938 
L 368.2595 -130.372333 
L 369.409318 -127.550841 
L 370.559136 -125.613598 
L 371.708955 -125.247459 
L 372.858773 -125.532882 
L 374.008591 -125.563417 
L 375.158409 -125.823546 
L 376.308227 -126.056026 
L 377.458045 -126.001999 
L 378.607864 -124.001496 
L 379.757682 -123.986197 
L 380.9075 -123.547788 
L 382.057318 -123.329576 
L 383.207136 -123.486674 
L 384.356955 -123.488895 
L 385.506773 -124.233374 
L 386.656591 -123.854446 
L 387.806409 -123.850265 
L 388.956227 -123.809808 
L 390.106045 -123.695652 
L 391.255864 -124.648907 
L 392.405682 -124.150625 
L 393.5555 -124.724553 
L 394.705318 -125.450537 
L 395.855136 -125.792333 
L 397.004955 -126.264004 
L 398.154773 -126.022065 
L 399.304591 -126.152521 
L 400.454409 -128.245347 
L 401.604227 -131.215125 
L 402.754045 -133.823342 
L 403.903864 -134.663224 
L 405.053682 -134.199711 
L 406.2035 -133.985026 
L 407.353318 -134.218116 
L 408.503136 -134.432364 
L 409.652955 -134.457005 
L 410.802773 -137.058397 
L 411.952591 -136.925835 
L 413.102409 -138.036785 
L 414.252227 -138.530259 
L 415.402045 -137.590106 
L 418.8515 -133.262119 
L 420.001318 -132.781041 
L 421.151136 -133.498687 
L 422.300955 -133.426231 
L 423.450773 -133.782251 
L 424.600591 -133.855273 
L 425.750409 -134.119541 
L 426.900227 -135.388312 
L 428.050045 -133.698722 
L 429.199864 -132.426319 
L 430.349682 -131.997819 
L 431.4995 -130.430927 
L 432.649318 -130.522951 
L 433.799136 -131.004357 
L 434.948955 -130.913307 
L 436.098773 -129.05875 
L 437.248591 -128.715139 
L 438.398409 -128.105209 
L 439.548227 -126.987506 
L 440.698045 -127.050699 
L 441.847864 -126.597506 
L 442.997682 -126.601438 
L 444.1475 -126.589868 
L 445.297318 -127.393444 
L 446.447136 -126.957544 
L 447.596955 -126.53019 
L 448.746773 -125.30363 
L 449.896591 -125.675336 
L 451.046409 -128.920487 
L 452.196227 -129.077461 
L 453.346045 -129.070505 
L 454.495864 -128.651474 
L 455.645682 -128.228283 
L 456.7955 -127.923453 
L 457.945318 -128.030634 
L 459.095136 -119.206311 
L 460.244955 -119.394263 
L 461.394773 -119.998423 
L 462.544591 -120.115505 
L 463.694409 -120.236691 
L 464.844227 -120.538632 
L 465.994045 -120.736106 
L 467.143864 -120.274077 
L 468.293682 -120.713432 
L 469.4435 -116.629438 
L 470.593318 -113.500236 
L 471.743136 -113.795355 
L 472.892955 -112.493208 
L 474.042773 -111.980655 
L 475.192591 -110.904188 
L 476.342409 -109.959003 
L 477.492227 -109.458207 
L 478.642045 -109.285763 
L 479.791864 -109.233492 
L 480.941682 -108.795872 
L 482.0915 -108.283764 
L 483.241318 -108.119874 
L 484.391136 -107.335006 
L 485.540955 -106.895291 
L 486.690773 -106.603659 
L 487.840591 -107.279093 
L 488.990409 -107.332798 
L 490.140227 -107.294591 
L 491.290045 -113.580661 
L 492.439864 -113.343146 
L 493.589682 -113.379705 
L 494.7395 -113.346132 
L 495.889318 -112.357035 
L 497.039136 -112.474511 
L 498.188955 -112.10547 
L 499.338773 -111.128856 
L 500.488591 -110.968614 
L 501.638409 -114.312916 
L 501.638409 -138.135425 
L 501.638409 -138.135425 
L 500.488591 -138.381174 
L 499.338773 -138.533374 
L 498.188955 -139.194595 
L 497.039136 -137.96783 
L 495.889318 -139.140048 
L 494.7395 -139.350969 
L 493.589682 -140.43582 
L 492.439864 -140.971888 
L 491.290045 -141.198061 
L 490.140227 -142.761675 
L 488.990409 -142.962277 
L 487.840591 -142.387117 
L 486.690773 -146.385983 
L 485.540955 -146.856551 
L 484.391136 -148.432786 
L 483.241318 -149.415108 
L 482.0915 -150.678104 
L 480.941682 -151.740149 
L 479.791864 -151.83786 
L 478.642045 -151.922904 
L 477.492227 -152.112655 
L 476.342409 -153.036755 
L 475.192591 -154.017967 
L 474.042773 -155.381336 
L 472.892955 -155.752378 
L 471.743136 -157.411468 
L 470.593318 -157.296631 
L 469.4435 -157.112746 
L 468.293682 -156.756169 
L 467.143864 -156.719895 
L 465.994045 -157.37032 
L 464.844227 -157.127987 
L 463.694409 -156.623946 
L 462.544591 -156.605827 
L 461.394773 -156.368674 
L 460.244955 -155.770827 
L 459.095136 -155.708028 
L 457.945318 -153.528579 
L 456.7955 -156.083557 
L 455.645682 -156.268286 
L 454.495864 -155.009262 
L 453.346045 -155.495717 
L 452.196227 -155.582295 
L 451.046409 -155.452698 
L 449.896591 -155.099786 
L 448.746773 -154.603818 
L 447.596955 -154.865836 
L 446.447136 -155.598699 
L 445.297318 -155.936939 
L 444.1475 -155.419102 
L 442.997682 -155.443354 
L 441.847864 -155.409475 
L 440.698045 -156.253813 
L 439.548227 -155.618489 
L 438.398409 -155.858019 
L 437.248591 -157.562551 
L 436.098773 -158.631896 
L 434.948955 -159.256976 
L 433.799136 -159.524141 
L 432.649318 -159.464246 
L 431.4995 -159.438854 
L 430.349682 -160.926734 
L 429.199864 -162.315176 
L 428.050045 -164.055752 
L 426.900227 -164.815949 
L 425.750409 -164.0628 
L 424.600591 -162.35291 
L 423.450773 -162.326428 
L 422.300955 -161.355066 
L 421.151136 -161.471667 
L 420.001318 -160.919643 
L 418.8515 -161.266437 
L 415.402045 -161.47981 
L 414.252227 -161.980474 
L 413.102409 -161.986379 
L 411.952591 -161.670442 
L 410.802773 -161.754799 
L 409.652955 -162.795969 
L 408.503136 -162.778818 
L 407.353318 -162.547289 
L 406.2035 -162.211217 
L 405.053682 -162.635346 
L 403.903864 -163.08329 
L 402.754045 -161.85747 
L 401.604227 -161.223849 
L 400.454409 -160.977659 
L 399.304591 -160.306266 
L 398.154773 -160.293437 
L 397.004955 -160.431602 
L 395.855136 -158.80971 
L 394.705318 -157.047993 
L 393.5555 -154.538109 
L 392.405682 -152.962752 
L 391.255864 -153.439608 
L 390.106045 -152.880403 
L 388.956227 -153.102571 
L 387.806409 -154.136757 
L 386.656591 -154.212179 
L 385.506773 -154.969586 
L 384.356955 -154.169763 
L 383.207136 -151.972947 
L 382.057318 -150.910128 
L 380.9075 -151.145653 
L 379.757682 -151.8595 
L 378.607864 -152.258137 
L 377.458045 -151.865618 
L 376.308227 -152.29717 
L 375.158409 -154.135644 
L 374.008591 -153.760937 
L 372.858773 -153.972569 
L 371.708955 -153.093797 
L 370.559136 -153.911754 
L 369.409318 -154.653157 
L 368.2595 -155.139177 
L 367.109682 -155.227874 
L 365.959864 -155.279066 
L 364.810045 -155.174812 
L 363.660227 -156.726996 
L 362.510409 -156.768417 
L 361.360591 -156.768766 
L 360.210773 -156.762613 
L 359.060955 -156.579973 
L 357.911136 -156.478247 
L 356.761318 -156.845598 
L 355.6115 -155.824996 
L 354.461682 -155.358586 
L 353.311864 -155.254306 
L 352.162045 -156.345118 
L 351.012227 -156.286068 
L 349.862409 -156.197841 
L 348.712591 -156.11959 
L 347.562773 -155.585712 
L 346.412955 -155.644527 
L 345.263136 -156.775253 
L 344.113318 -156.380817 
L 342.9635 -154.292109 
L 341.813682 -154.163883 
L 340.663864 -152.768744 
L 339.514045 -152.623049 
L 338.364227 -151.75299 
L 337.214409 -151.114701 
L 336.064591 -152.113013 
L 334.914773 -151.443246 
L 333.764955 -151.086741 
L 332.615136 -151.467521 
L 141.745318 -149.580857 
L 140.5955 -150.091022 
L 139.445682 -150.231732 
L 138.295864 -150.572999 
L 137.146045 -150.827361 
L 135.996227 -151.008286 
L 134.846409 -150.039104 
L 133.696591 -150.180328 
L 132.546773 -150.052441 
L 131.396955 -149.085695 
L 130.247136 -149.462578 
L 129.097318 -150.198928 
L 127.9475 -150.845459 
L 126.797682 -151.900504 
L 125.647864 -152.944701 
L 81.954773 -151.192237 
L 80.804955 -147.943241 
L 79.655136 -147.074557 
L 78.505318 -148.617012 
L 77.3555 -150.123489 
z
"/>
    </defs>
    <g clip-path="url(#pc3fa59d4ec)">
     <use xlink:href="#m091ba1aa77" x="0" y="220.375797" style="fill: #3a6690; fill-opacity: 0.28"/>
    </g>
   </g>
   <g id="line2d_29">
    <path d="M 77.3555 85.036071 
L 78.505318 85.69827 
L 79.655136 86.823162 
L 80.804955 85.697573 
L 81.954773 83.545683 
L 125.647864 82.049626 
L 126.797682 82.699718 
L 127.9475 83.814162 
L 129.097318 83.992473 
L 130.247136 84.369643 
L 131.396955 86.138106 
L 132.546773 85.230435 
L 133.696591 84.812763 
L 134.846409 84.61099 
L 135.996227 83.782321 
L 138.295864 83.592485 
L 139.445682 83.645835 
L 140.5955 83.526636 
L 141.745318 83.955611 
L 332.615136 82.899905 
L 333.764955 83.050967 
L 336.064591 81.879806 
L 337.214409 82.24797 
L 338.364227 81.877816 
L 339.514045 80.568344 
L 340.663864 80.339485 
L 341.813682 79.394197 
L 342.9635 79.112601 
L 344.113318 77.546409 
L 345.263136 77.268793 
L 346.412955 78.293684 
L 347.562773 78.32453 
L 349.862409 76.967296 
L 352.162045 76.513558 
L 353.311864 75.691656 
L 354.461682 75.627973 
L 355.6115 75.268764 
L 356.761318 74.5394 
L 357.911136 74.816021 
L 359.060955 75.362298 
L 360.210773 75.099607 
L 361.360591 75.264784 
L 362.510409 75.745388 
L 363.660227 75.307571 
L 364.810045 76.29067 
L 365.959864 76.005093 
L 367.109682 76.446891 
L 368.2595 77.620042 
L 369.409318 79.273798 
L 370.559136 80.613121 
L 371.708955 81.205169 
L 372.858773 80.623071 
L 374.008591 80.71362 
L 375.158409 80.396202 
L 376.308227 81.199199 
L 377.458045 81.441989 
L 378.607864 82.24598 
L 379.757682 82.452949 
L 380.9075 83.029076 
L 382.057318 83.255945 
L 383.207136 82.645986 
L 384.356955 81.546468 
L 385.506773 80.774317 
L 386.656591 81.342485 
L 387.806409 81.382286 
L 388.956227 81.919607 
L 390.106045 82.087769 
L 391.255864 81.331539 
L 392.405682 81.819108 
L 393.5555 80.744466 
L 394.705318 79.126532 
L 397.004955 77.027994 
L 398.154773 77.218046 
L 399.304591 77.146403 
L 400.454409 75.764294 
L 402.754045 72.535391 
L 403.903864 71.50254 
L 405.053682 71.958268 
L 406.2035 72.277676 
L 408.503136 71.770206 
L 409.652955 71.74931 
L 410.802773 70.969199 
L 411.952591 71.077658 
L 413.102409 70.364215 
L 414.252227 70.12043 
L 418.8515 73.111519 
L 420.001318 73.525455 
L 421.151136 72.89062 
L 422.300955 72.985149 
L 423.450773 72.321457 
L 424.600591 72.271705 
L 426.900227 70.273666 
L 428.050045 71.49856 
L 429.199864 73.00505 
L 430.349682 73.91352 
L 431.4995 75.440906 
L 432.649318 75.382199 
L 433.799136 75.111548 
L 434.948955 75.290655 
L 436.098773 76.530474 
L 437.248591 77.236952 
L 438.398409 78.394183 
L 439.548227 79.0728 
L 440.698045 78.723541 
L 441.847864 79.372307 
L 444.1475 79.371312 
L 445.297318 78.710605 
L 446.447136 79.097676 
L 447.596955 79.677784 
L 448.746773 80.422073 
L 449.896591 79.988236 
L 451.046409 78.189205 
L 452.196227 78.045919 
L 453.346045 78.092686 
L 454.495864 78.545429 
L 455.645682 78.127512 
L 456.7955 78.372292 
L 457.945318 79.59619 
L 459.095136 82.918627 
L 460.244955 82.793252 
L 461.394773 82.192248 
L 463.694409 81.945478 
L 464.844227 81.542487 
L 465.994045 81.322584 
L 467.143864 81.878811 
L 468.293682 81.640996 
L 469.4435 83.504705 
L 470.593318 84.977363 
L 471.743136 84.772385 
L 472.892955 86.253004 
L 474.042773 86.694801 
L 475.192591 87.91472 
L 476.342409 88.877918 
L 477.492227 89.590366 
L 480.941682 90.107787 
L 484.391136 92.491901 
L 485.540955 93.499876 
L 486.690773 93.880976 
L 487.840591 95.542692 
L 488.990409 95.228259 
L 490.140227 95.347664 
L 491.290045 92.986436 
L 493.589682 93.468035 
L 497.039136 95.154626 
L 498.188955 94.725764 
L 499.338773 95.544682 
L 500.488591 95.700903 
L 501.638409 94.151627 
L 501.638409 94.151627 
" clip-path="url(#pc3fa59d4ec)" style="fill: none; stroke: #3a6690; stroke-opacity: 0.8; stroke-linecap: square"/>
   </g>
   <g id="line2d_30">
    <path d="M 70.456591 97.159631 
L 71.606409 87.04605 
L 72.756227 54.142088 
L 73.906045 77.740442 
L 75.055864 103.929879 
L 76.205682 88.2998 
L 77.3555 86.934606 
L 78.505318 90.333661 
L 79.655136 95.822298 
L 80.804955 75.567276 
L 81.954773 62.02678 
L 125.647864 65.593001 
L 126.797682 90.500827 
L 127.9475 98.301936 
L 129.097318 86.488828 
L 130.247136 90.027188 
L 131.396955 114.433515 
L 132.546773 69.800028 
L 133.696591 77.294664 
L 134.846409 80.777302 
L 135.996227 67.208945 
L 137.146045 80.777302 
L 138.295864 82.421107 
L 139.445682 84.872884 
L 140.5955 80.665858 
L 141.745318 94.679993 
L 332.615136 55.45156 
L 333.764955 87.129634 
L 334.914773 79.857886 
L 336.064591 71.555277 
L 337.214409 64.450696 
L 338.364227 67.376112 
L 339.514045 67.264667 
L 340.663864 81.891746 
L 341.813682 60.466558 
L 342.9635 82.448968 
L 344.113318 51.968922 
L 345.263136 67.794028 
L 346.412955 90.723716 
L 347.562773 66.456695 
L 348.712591 71.360249 
L 349.862409 79.439969 
L 352.162045 82.727579 
L 353.311864 91.420244 
L 354.461682 68.016917 
L 355.6115 67.236806 
L 356.761318 60.355114 
L 357.911136 74.954332 
L 359.060955 96.073048 
L 360.210773 75.065776 
L 361.360591 89.497827 
L 362.510409 94.122771 
L 363.660227 82.421107 
L 364.810045 82.978329 
L 365.959864 79.133497 
L 368.2595 104.403518 
L 369.409318 110.755849 
L 370.559136 104.877156 
L 371.708955 83.842024 
L 372.858773 65.593001 
L 374.008591 63.001918 
L 375.158409 73.561277 
L 376.308227 74.452832 
L 377.458045 74.592137 
L 378.607864 113.235487 
L 379.757682 72.251805 
L 380.9075 87.491828 
L 382.057318 85.792301 
L 383.207136 64.004918 
L 384.356955 51.941061 
L 385.506773 69.800028 
L 386.656591 83.925607 
L 387.806409 68.35125 
L 388.956227 75.400109 
L 390.106045 79.662858 
L 391.255864 74.898609 
L 392.405682 88.717717 
L 393.5555 59.407836 
L 394.705318 48.820617 
L 395.855136 52.971921 
L 397.004955 53.668449 
L 398.154773 84.454968 
L 399.304591 90.222216 
L 400.454409 65.704445 
L 401.604227 65.732307 
L 402.754045 59.49142 
L 403.903864 54.922199 
L 405.053682 78.353386 
L 407.353318 65.593001 
L 408.503136 68.211945 
L 409.652955 74.007054 
L 410.802773 91.392382 
L 411.952591 75.288665 
L 413.102409 67.515417 
L 414.252227 78.966331 
L 415.402045 84.176357 
L 418.8515 115.520098 
L 420.001318 81.390246 
L 421.151136 66.150223 
L 422.300955 70.998055 
L 423.450773 56.816754 
L 424.600591 78.269803 
L 425.750409 47.260395 
L 426.900227 60.410836 
L 428.050045 93.704854 
L 429.199864 91.002327 
L 430.349682 78.409108 
L 431.4995 96.435242 
L 432.649318 82.811163 
L 433.799136 82.643996 
L 434.948955 70.719444 
L 436.098773 100.447241 
L 437.248591 79.272803 
L 438.398409 87.324661 
L 439.548227 97.354658 
L 440.698045 62.166085 
L 441.847864 83.75844 
L 442.997682 67.682584 
L 444.1475 74.508554 
L 445.297318 72.89261 
L 446.447136 86.126634 
L 447.596955 83.75844 
L 448.746773 99.806436 
L 449.896591 72.028916 
L 451.046409 65.147223 
L 452.196227 77.378248 
L 453.346045 67.459695 
L 454.495864 83.674857 
L 455.645682 45.11509 
L 456.7955 85.123634 
L 457.945318 81.529552 
L 459.095136 153.439059 
L 460.244955 90.194355 
L 461.394773 74.174221 
L 462.544591 73.449832 
L 463.694409 94.484965 
L 464.844227 71.527416 
L 465.994045 76.486692 
L 467.143864 86.293801 
L 468.293682 93.788437 
L 469.4435 131.456649 
L 470.593318 128.559094 
L 471.743136 91.615271 
L 472.892955 103.623407 
L 474.042773 96.12877 
L 475.192591 101.840296 
L 476.342409 101.478102 
L 477.492227 92.84116 
L 478.642045 91.197355 
L 479.791864 85.680856 
L 480.941682 107.301072 
L 482.0915 94.067048 
L 483.241318 85.123634 
L 484.391136 102.118907 
L 485.540955 95.682992 
L 486.690773 94.345659 
L 487.840591 91.643132 
L 488.990409 76.319526 
L 490.140227 84.872884 
L 491.290045 87.324661 
L 492.439864 96.685992 
L 493.589682 81.167358 
L 494.7395 89.107772 
L 495.889318 111.28521 
L 497.039136 86.293801 
L 498.188955 64.478557 
L 499.338773 109.223488 
L 501.638409 88.076911 
L 501.638409 88.076911 
" clip-path="url(#pc3fa59d4ec)" style="fill: none; stroke: #35e0d0; stroke-width: 1.7; stroke-linecap: square"/>
   </g>
   <g id="line2d_31">
    <path d="M 133.696591 194.562047 
L 133.696591 22.698047 
" clip-path="url(#pc3fa59d4ec)" style="fill: none; stroke: #ffcf5c; stroke-opacity: 0.5; stroke-width: 0.8; stroke-linecap: square"/>
   </g>
   <g id="line2d_32">
    <defs>
     <path id="ma4b0a5cb51" d="M 0 3 
C 0.795609 3 1.55874 2.683901 2.12132 2.12132 
C 2.683901 1.55874 3 0.795609 3 0 
C 3 -0.795609 2.683901 -1.55874 2.12132 -2.12132 
C 1.55874 -2.683901 0.795609 -3 0 -3 
C -0.795609 -3 -1.55874 -2.683901 -2.12132 -2.12132 
C -2.683901 -1.55874 -3 -0.795609 -3 0 
C -3 0.795609 -2.683901 1.55874 -2.12132 2.12132 
C -1.55874 2.683901 -0.795609 3 0 3 
z
" style="stroke: #0a0c0f"/>
    </defs>
    <g clip-path="url(#pc3fa59d4ec)">
     <use xlink:href="#ma4b0a5cb51" x="133.696591" y="77.294664" style="fill: #ffcf5c; stroke: #0a0c0f"/>
    </g>
   </g>
   <g id="patch_3">
    <path d="M 48.8975 194.562047 
L 48.8975 22.698047 
" style="fill: none; stroke: #2a323c; stroke-width: 0.8; stroke-linejoin: miter; stroke-linecap: square"/>
   </g>
   <g id="patch_4">
    <path d="M 523.1975 194.562047 
L 523.1975 22.698047 
" style="fill: none; stroke: #2a323c; stroke-width: 0.8; stroke-linejoin: miter; stroke-linecap: square"/>
   </g>
   <g id="patch_5">
    <path d="M 48.8975 194.562047 
L 523.1975 194.562047 
" style="fill: none; stroke: #2a323c; stroke-width: 0.8; stroke-linejoin: miter; stroke-linecap: square"/>
   </g>
   <g id="patch_6">
    <path d="M 48.8975 22.698047 
L 523.1975 22.698047 
" style="fill: none; stroke: #2a323c; stroke-width: 0.8; stroke-linejoin: miter; stroke-linecap: square"/>
   </g>
   <g id="text_16">
    <text style="font-size: 12.5px; font-family: 'DejaVu Sans'; text-anchor: start; fill: #e6ebf0" x="48.8975" y="16.698047" transform="rotate(-0 48.8975 16.698047)">Black Sea: daily degraded ratio with 28-day baseline</text>
   </g>
   <g id="legend_1">
    <g id="patch_7">
     <path d="M 361.518125 56.318672 
L 516.8975 56.318672 
Q 518.6975 56.318672 518.6975 54.518672 
L 518.6975 28.998047 
Q 518.6975 27.198047 516.8975 27.198047 
L 361.518125 27.198047 
Q 359.718125 27.198047 359.718125 28.998047 
L 359.718125 54.518672 
Q 359.718125 56.318672 361.518125 56.318672 
L 361.518125 56.318672 
z
" style="fill: none; opacity: 0"/>
    </g>
    <g id="patch_8">
     <path d="M 363.318125 37.636641 
L 381.318125 37.636641 
L 381.318125 31.336641 
L 363.318125 31.336641 
z
" style="fill: #3a6690; fill-opacity: 0.28"/>
    </g>
    <g id="text_17">
     <text style="font-size: 9px; font-family: 'DejaVu Sans'; text-anchor: start; fill: #8b96a3" x="388.518125" y="37.636641" transform="rotate(-0 388.518125 37.636641)">28-day baseline ±1σ</text>
    </g>
    <g id="line2d_33">
     <path d="M 363.318125 47.696953 
L 372.318125 47.696953 
L 381.318125 47.696953 
" style="fill: none; stroke: #35e0d0; stroke-width: 1.7; stroke-linecap: square"/>
    </g>
    <g id="text_18">
     <text style="font-size: 9px; font-family: 'DejaVu Sans'; text-anchor: start; fill: #8b96a3" x="388.518125" y="50.846953" transform="rotate(-0 388.518125 50.846953)">degraded ratio (daily mean)</text>
    </g>
   </g>
  </g>
 </g>
 <defs>
  <clipPath id="pc3fa59d4ec">
   <rect x="48.8975" y="22.698047" width="474.3" height="171.864"/>
  </clipPath>
 </defs>
</svg>
