<?xml version="1.0" encoding="utf-8" standalone="no"?>
<!DOCTYPE svg PUBLIC "-//W3C//DTD SVG 1.1//EN"
  "http://www.w3.org/Graphics/SVG/1.1/DTD/svg11.dtd">
<svg xmlns:xlink="http://www.w3.org/1999/xlink" width="530.3975pt" height="220.375797pt" viewBox="0 0 530.3975 220.375797" xmlns="http://www.w3.org/2000/svg" version="1.1">
 <metadata>
  <rdf:RDF xmlns:dc="http://purl.org/dc/elements/1.1/" xmlns:cc="http://creativecommons.org/ns#" xmlns:rdf="http://www.w3.org/1999/02/22-rdf-syntax-ns#">
   <cc:Work>
    <dc:type rdf:resource="http://purl.org/dc/dcmitype/StillImage"/>
    <dc:date>2026-07-21T13:52:56.367947</dc:date>
    <dc:format>image/svg+xml</dc:format>
    <dc:creator>
     <cc:Agent>
      <dc:title>Matplotlib v3.10.8, https://matplotlib.org/</dc:title>
     </cc:Agent>
    </dc:creator>
   </cc:Work>
  </rdf:RDF>
 </metadata>
 <defs>
  <style type="text/css">*{stroke-linejoin: round; stroke-linecap: butt}</style>
 </defs>
 <g id="figure_1">
  <g id="patch_1">
   <path d="M 0 220.375797 
L 530.3975 220.375797 
L 530.3975 0 
L 0 0 
z
" style="fill: #0a0c0f"/>
  </g>
  <g id="axes_1">
   <g id="patch_2">
    <path d="M 48.8975 194.562047 
L 523.1975 194.562047 
L 523.1975 22.698047 
L 48.8975 22.698047 
z
" style="fill: #10141a"/>
   </g>
   <g id="matplotlib.axis_1">
    <g id="xtick_1">
     <g id="line2d_1">
      <path d="M 68.509946 194.562047 
L 68.509946 22.698047 
" clip-path="url(#p25b2fb7cfb)" style="fill: none; stroke: #2a323c; stroke-opacity: 0.35; stroke-width: 0.8; stroke-linecap: square"/>
     </g>
     <g id="line2d_2">
      <defs>
       <path id="m7cbad61a16" d="M 0 0 
L 0 3.5 
" style="stroke: #8b96a3; stroke-width: 0.8"/>
      </defs>
      <g>
       <use xlink:href="#m7cbad61a16" x="68.509946" y="194.562047" style="fill: #8b96a3; stroke: #8b96a3; stroke-width: 0.8"/>
      </g>
     </g>
     <g id="text_1">
      <text style="font-size: 12px; font-family: 'DejaVu Sans'; text-anchor: middle; fill: #8b96a3" x="68.509946" y="210.680172" transform="rotate(-0 68.509946 210.680172)">May 01</text>
     </g>
    </g>
    <g id="xtick_2">
     <g id="line2d_3">
      <path d="M 127.882612 194.562047 
L 127.882612 22.698047 
" clip-path="url(#p25b2fb7cfb)" style="fill: none; stroke: #2a323c; stroke-opacity: 0.35; stroke-width: 0.8; stroke-linecap: square"/>
     </g>
     <g id="line2d_4">
      <g>
       <use xlink:href="#m7cbad61a16" x="127.882612" y="194.562047" style="fill: #8b96a3; stroke: #8b96a3; stroke-width: 0.8"/>
      </g>
     </g>
     <g id="text_2">
      <text style="font-size: 12px; font-family: 'DejaVu Sans'; text-anchor: middle; fill: #8b96a3" x="127.882612" y="210.680172" transform="rotate(-0 127.882612 210.680172)">Jul 01</text>
     </g>
    </g>
    <g id="xtick_3">
     <g id="line2d_5">
      <path d="M 188.2286 194.562047 
L 188.2286 22.698047 
" clip-path="url(#p25b2fb7cfb)" style="fill: none; stroke: #2a323c; stroke-opacity: 0.35; stroke-width: 0.8; stroke-linecap: square"/>
     </g>
     <g id="line2d_6">
      <g>
       <use xlink:href="#m7cbad61a16" x="188.2286" y="194.562047" style="fill: #8b96a3; stroke: #8b96a3; stroke-width: 0.8"/>
      </g>
     </g>
     <g id="text_3">
      <text style="font-size: 12px; font-family: 'DejaVu Sans'; text-anchor: middle; fill: #8b96a3" x="188.2286" y="210.680172" transform="rotate(-0 188.2286 210.680172)">Sep 01</text>
     </g>
    </g>
    <g id="xtick_4">
     <g id="line2d_7">
      <path d="M 247.601266 194.562047 
L 247.601266 22.698047 
" clip-path="url(#p25b2fb7cfb)" style="fill: none; stroke: #2a323c; stroke-opacity: 0.35; stroke-width: 0.8; stroke-linecap: square"/>
     </g>
     <g id="line2d_8">
      <g>
       <use xlink:href="#m7cbad61a16" x="247.601266" y="194.562047" style="fill: #8b96a3; stroke: #8b96a3; stroke-width: 0.8"/>
      </g>
     </g>
     <g id="text_4">
      <text style="font-size: 12px; font-family: 'DejaVu Sans'; text-anchor: middle; fill: #8b96a3" x="247.601266" y="210.680172" transform="rotate(-0 247.601266 210.680172)">Nov 01</text>
     </g>
    </g>
    <g id="xtick_5">
     <g id="line2d_9">
      <path d="M 306.973931 194.562047 
L 306.973931 22.698047 
" clip-path="url(#p25b2fb7cfb)" style="fill: none; stroke: #2a323c; stroke-opacity: 0.35; stroke-width: 0.8; stroke-linecap: square"/>
     </g>
     <g id="line2d_10">
      <g>
       <use xlink:href="#m7cbad61a16" x="306.973931" y="194.562047" style="fill: #8b96a3; stroke: #8b96a3; stroke-width: 0.8"/>
      </g>
     </g>
     <g id="text_5">
      <text style="font-size: 12px; font-family: 'DejaVu Sans'; text-anchor: middle; fill: #8b96a3" x="306.973931" y="210.680172" transform="rotate(-0 306.973931 210.680172)">Jan 01</text>
     </g>
    </g>
    <g id="xtick_6">
     <g id="line2d_11">
      <path d="M 364.399952 194.562047 
L 364.399952 22.698047 
" clip-path="url(#p25b2fb7cfb)" style="fill: none; stroke: #2a323c; stroke-opacity: 0.35; stroke-width: 0.8; stroke-linecap: square"/>
     </g>
     <g id="line2d_12">
      <g>
       <use xlink:href="#m7cbad61a16" x="364.399952" y="194.562047" style="fill: #8b96a3; stroke: #8b96a3; stroke-width: 0.8"/>
      </g>
     </g>
     <g id="text_6">
      <text style="font-size: 12px; font-family: 'DejaVu Sans'; text-anchor: middle; fill: #8b96a3" x="364.399952" y="210.680172" transform="rotate(-0 364.399952 210.680172)">Mar 01</text>
     </g>
    </g>
    <g id="xtick_7">
     <g id="line2d_13">
      <path d="M 423.772618 194.562047 
L 423.772618 22.698047 
" clip-path="url(#p25b2fb7cfb)" style="fill: none; stroke: #2a323c; stroke-opacity: 0.35; stroke-width: 0.8; stroke-linecap: square"/>
     </g>
     <g id="line2d_14">
      <g>
       <use xlink:href="#m7cbad61a16" x="423.772618" y="194.562047" style="fill: #8b96a3; stroke: #8b96a3; stroke-width: 0.8"/>
      </g>
     </g>
     <g id="text_7">
      <text style="font-size: 12px; font-family: 'DejaVu Sans'; text-anchor: middle; fill: #8b96a3" x="423.772618" y="210.680172" transform="rotate(-0 423.772618 210.680172)">May 01</text>
     </g>
    </g>
    <g id="xtick_8">
     <g id="line2d_15">
      <path d="M 483.145284 194.562047 
L 483.145284 22.698047 
" clip-path="url(#p25b2fb7cfb)" style="fill: none; stroke: #2a323c; stroke-opacity: 0.35; stroke-width: 0.8; stroke-linecap: square"/>
     </g>
     <g id="line2d_16">
      <g>
       <use xlink:href="#m7cbad61a16" x="483.145284" y="194.562047" style="fill: #8b96a3; stroke: #8b96a3; stroke-width: 0.8"/>
      </g>
     </g>
     <g id="text_8">
      <text style="font-size: 12px; font-family: 'DejaVu Sans'; text-anchor: middle; fill: #8b96a3" x="483.145284" y="210.680172" transform="rotate(-0 483.145284 210.680172)">Jul 01</text>
     </g>
    </g>
   </g>
   <g id="matplotlib.axis_2">
    <g id="ytick_1">
     <g id="line2d_17">
      <path d="M 48.8975 194.562047 
L 523.1975 194.562047 
" clip-path="url(#p25b2fb7cfb)" style="fill: none; stroke: #2a323c; stroke-opacity: 0.35; stroke-width: 0.8; stroke-linecap: square"/>
     </g>
     <g id="line2d_18">
      <defs>
       <path id="m1a3a0241c0" d="M 0 0 
L -3.5 0 
" style="stroke: #8b96a3; stroke-width: 0.8"/>
      </defs>
      <g>
       <use xlink:href="#m1a3a0241c0" x="48.8975" y="194.562047" style="fill: #8b96a3; stroke: #8b96a3; stroke-width: 0.8"/>
      </g>
     </g>
     <g id="text_9">
      <text style="font-size: 12px; font-family: 'DejaVu Sans'; text-anchor: end; fill: #8b96a3" x="41.8975" y="199.121109" transform="rotate(-0 41.8975 199.121109)">0.0</text>
     </g>
    </g>
    <g id="ytick_2">
     <g id="line2d_19">
      <path d="M 48.8975 166.716517 
L 523.1975 166.716517 
" clip-path="url(#p25b2fb7cfb)" style="fill: none; stroke: #2a323c; stroke-opacity: 0.35; stroke-width: 0.8; stroke-linecap: square"/>
     </g>
     <g id="line2d_20">
      <g>
       <use xlink:href="#m1a3a0241c0" x="48.8975" y="166.716517" style="fill: #8b96a3; stroke: #8b96a3; stroke-width: 0.8"/>
      </g>
     </g>
     <g id="text_10">
      <text style="font-size: 12px; font-family: 'DejaVu Sans'; text-anchor: end; fill: #8b96a3" x="41.8975" y="171.27558" transform="rotate(-0 41.8975 171.27558)">0.1</text>
     </g>
    </g>
    <g id="ytick_3">
     <g id="line2d_21">
      <path d="M 48.8975 138.870988 
L 523.1975 138.870988 
" clip-path="url(#p25b2fb7cfb)" style="fill: none; stroke: #2a323c; stroke-opacity: 0.35; stroke-width: 0.8; stroke-linecap: square"/>
     </g>
     <g id="line2d_22">
      <g>
       <use xlink:href="#m1a3a0241c0" x="48.8975" y="138.870988" style="fill: #8b96a3; stroke: #8b96a3; stroke-width: 0.8"/>
      </g>
     </g>
     <g id="text_11">
      <text style="font-size: 12px; font-family: 'DejaVu Sans'; text-anchor: end; fill: #8b96a3" x="41.8975" y="143.43005" transform="rotate(-0 41.8975 143.43005)">0.2</text>
     </g>
    </g>
    <g id="ytick_4">
     <g id="line2d_23">
      <path d="M 48.8975 111.025459 
L 523.1975 111.025459 
" clip-path="url(#p25b2fb7cfb)" style="fill: none; stroke: #2a323c; stroke-opacity: 0.35; stroke-width: 0.8; stroke-linecap: square"/>
     </g>
     <g id="line2d_24">
      <g>
       <use xlink:href="#m1a3a0241c0" x="48.8975" y="111.025459" style="fill: #8b96a3; stroke: #8b96a3; stroke-width: 0.8"/>
      </g>
     </g>
     <g id="text_12">
      <text style="font-size: 12px; font-family: 'DejaVu Sans'; text-anchor: end; fill: #8b96a3" x="41.8975" y="115.584521" transform="rotate(-0 41.8975 115.584521)">0.3</text>
     </g>
    </g>
    <g id="ytick_5">
     <g id="line2d_25">
      <path d="M 48.8975 83.179929 
L 523.1975 83.179929 
" clip-path="url(#p25b2fb7cfb)" style="fill: none; stroke: #2a323c; stroke-opacity: 0.35; stroke-width: 0.8; stroke-linecap: square"/>
     </g>
     <g id="line2d_26">
      <g>
       <use xlink:href="#m1a3a0241c0" x="48.8975" y="83.179929" style="fill: #8b96a3; stroke: #8b96a3; stroke-width: 0.8"/>
      </g>
     </g>
     <g id="text_13">
      <text style="font-size: 12px; font-family: 'DejaVu Sans'; text-anchor: end; fill: #8b96a3" x="41.8975" y="87.738992" transform="rotate(-0 41.8975 87.738992)">0.4</text>
     </g>
    </g>
    <g id="ytick_6">
     <g id="line2d_27">
      <path d="M 48.8975 55.3344 
L 523.1975 55.3344 
" clip-path="url(#p25b2fb7cfb)" style="fill: none; stroke: #2a323c; stroke-opacity: 0.35; stroke-width: 0.8; stroke-linecap: square"/>
     </g>
     <g id="line2d_28">
      <g>
       <use xlink:href="#m1a3a0241c0" x="48.8975" y="55.3344" style="fill: #8b96a3; stroke: #8b96a3; stroke-width: 0.8"/>
      </g>
     </g>
     <g id="text_14">
      <text style="font-size: 12px; font-family: 'DejaVu Sans'; text-anchor: end; fill: #8b96a3" x="41.8975" y="59.893462" transform="rotate(-0 41.8975 59.893462)">0.5</text>
     </g>
    </g>
    <g id="ytick_7">
     <g id="line2d_29">
      <path d="M 48.8975 27.48887 
L 523.1975 27.48887 
" clip-path="url(#p25b2fb7cfb)" style="fill: none; stroke: #2a323c; stroke-opacity: 0.35; stroke-width: 0.8; stroke-linecap: square"/>
     </g>
     <g id="line2d_30">
      <g>
       <use xlink:href="#m1a3a0241c0" x="48.8975" y="27.48887" style="fill: #8b96a3; stroke: #8b96a3; stroke-width: 0.8"/>
      </g>
     </g>
     <g id="text_15">
      <text style="font-size: 12px; font-family: 'DejaVu Sans'; text-anchor: end; fill: #8b96a3" x="41.8975" y="32.047933" transform="rotate(-0 41.8975 32.047933)">0.6</text>
     </g>
    </g>
    <g id="text_16">
     <text style="font-size: 12px; font-family: 'DejaVu Sans'; text-anchor: middle; fill: #8b96a3" x="16.318125" y="108.630047" transform="rotate(-90 16.318125 108.630047)">degraded ratio</text>
    </g>
   </g>
   <g id="FillBetweenPolyCollection_1">
    <defs>
     <path id="m31be647803" d="M 108.416164 -88.663429 
L 108.416164 -50.144446 
L 109.389486 -49.212219 
L 110.362809 -51.789725 
L 111.336131 -54.893505 
L 112.309454 -58.116337 
L 113.282776 -60.741896 
L 114.256098 -60.884938 
L 115.229421 -62.943936 
L 116.202743 -65.154493 
L 117.176066 -66.590885 
L 134.695869 -64.27046 
L 135.669191 -62.49931 
L 136.642513 -62.445573 
L 137.615836 -62.175767 
L 138.589158 -62.342102 
L 139.562481 -62.176824 
L 140.535803 -62.550993 
L 141.509125 -62.727615 
L 142.482448 -63.326801 
L 143.45577 -64.382814 
L 144.429092 -64.585763 
L 145.402415 -65.088372 
L 146.375737 -65.700245 
L 147.34906 -67.484228 
L 148.322382 -69.004016 
L 149.295704 -70.370222 
L 150.269027 -70.547658 
L 151.242349 -70.311417 
L 152.215672 -70.009782 
L 153.188994 -70.090481 
L 154.162316 -69.054037 
L 155.135639 -68.871203 
L 156.108961 -68.780931 
L 157.082284 -68.835381 
L 158.055606 -69.642048 
L 159.028928 -69.693557 
L 160.002251 -69.546735 
L 160.975573 -69.871866 
L 161.948895 -72.659489 
L 162.922218 -75.373803 
L 163.89554 -75.94838 
L 164.868863 -77.7192 
L 165.842185 -79.440263 
L 166.815507 -81.390512 
L 167.78883 -81.37579 
L 168.762152 -82.584815 
L 169.735475 -80.533084 
L 170.708797 -78.004254 
L 171.682119 -77.883318 
L 172.655442 -78.563892 
L 173.628764 -80.184553 
L 174.602086 -79.550105 
L 175.575409 -78.881831 
L 176.548731 -80.90545 
L 177.522054 -80.895671 
L 178.495376 -81.796669 
L 179.468698 -80.72161 
L 180.442021 -78.0252 
L 181.415343 -77.929358 
L 182.388666 -77.262474 
L 183.361988 -76.872635 
L 184.33531 -74.830904 
L 185.308633 -74.118877 
L 186.281955 -73.043075 
L 187.255278 -72.523438 
L 188.2286 -71.980132 
L 189.201922 -72.232588 
L 190.175245 -72.26802 
L 191.148567 -71.409794 
L 192.121889 -70.571177 
L 193.095212 -71.323315 
L 194.068534 -70.557682 
L 195.041857 -70.050974 
L 196.015179 -68.613875 
L 196.988501 -68.638903 
L 197.961824 -68.911697 
L 198.935146 -69.155066 
L 199.908469 -68.233027 
L 200.881791 -67.118035 
L 201.855113 -66.032335 
L 202.828436 -65.747098 
L 203.801758 -65.522625 
L 204.775081 -65.343029 
L 206.721725 -64.511119 
L 207.695048 -63.596933 
L 208.66837 -62.898284 
L 209.641692 -62.616202 
L 210.615015 -62.560352 
L 211.588337 -62.591344 
L 212.56166 -62.217164 
L 213.534982 -61.798894 
L 214.508304 -61.562769 
L 215.481627 -61.448538 
L 216.454949 -61.462241 
L 356.613373 -61.175076 
L 357.586696 -61.531008 
L 358.560018 -61.108163 
L 359.53334 -60.728052 
L 360.506663 -60.545035 
L 361.479985 -60.383506 
L 362.453308 -59.926799 
L 363.42663 -59.358381 
L 364.399952 -58.398599 
L 365.373275 -57.668518 
L 366.346597 -56.929273 
L 367.319919 -56.249672 
L 368.293242 -56.022336 
L 369.266564 -55.94503 
L 370.239887 -56.156042 
L 371.213209 -55.702476 
L 372.186531 -54.926035 
L 373.159854 -54.366488 
L 374.133176 -54.619469 
L 375.106499 -54.398907 
L 376.079821 -54.69405 
L 377.053143 -53.895515 
L 378.026466 -52.970252 
L 378.999788 -52.218385 
L 379.973111 -51.376256 
L 380.946433 -50.458282 
L 381.919755 -49.534739 
L 382.893078 -48.552085 
L 383.8664 -48.113126 
L 384.839722 -46.998077 
L 385.813045 -45.803419 
L 386.786367 -45.119475 
L 387.75969 -44.557948 
L 388.733012 -43.940935 
L 389.706334 -43.227923 
L 390.679657 -43.410427 
L 391.652979 -43.601247 
L 392.626302 -43.366998 
L 393.599624 -43.005148 
L 394.572946 -43.129754 
L 395.546269 -43.515353 
L 396.519591 -43.925789 
L 397.492914 -44.016382 
L 398.466236 -44.59069 
L 399.439558 -47.17282 
L 400.412881 -47.771699 
L 401.386203 -47.892974 
L 402.359525 -48.39583 
L 403.332848 -48.12952 
L 404.30617 -48.561182 
L 405.279493 -49.362377 
L 406.252815 -50.290718 
L 407.226137 -50.99615 
L 408.19946 -51.646864 
L 409.172782 -52.078818 
L 410.146105 -52.896756 
L 411.119427 -52.918724 
L 412.092749 -56.614447 
L 413.066072 -56.665892 
L 414.039394 -56.273935 
L 415.012716 -56.185557 
L 415.986039 -55.928748 
L 416.959361 -55.778853 
L 417.932684 -55.114281 
L 418.906006 -55.047193 
L 419.879328 -55.229301 
L 420.852651 -54.959283 
L 421.825973 -55.408325 
L 422.799296 -54.812805 
L 423.772618 -54.485084 
L 424.74594 -53.340499 
L 425.719263 -53.286534 
L 426.692585 -52.67459 
L 429.612552 -52.54095 
L 430.585875 -52.595798 
L 431.559197 -45.39058 
L 432.532519 -44.294242 
L 433.505842 -43.514554 
L 434.479164 -44.118998 
L 435.452487 -44.205118 
L 436.425809 -44.375457 
L 437.399131 -45.251929 
L 438.372454 -46.310223 
L 439.345776 -46.615471 
L 440.319099 -47.394203 
L 441.292421 -48.779798 
L 442.265743 -50.102059 
L 443.239066 -52.0098 
L 444.212388 -53.650257 
L 445.185711 -56.213082 
L 446.159033 -58.950547 
L 447.132355 -61.872139 
L 448.105678 -64.513471 
L 449.079 -65.82182 
L 450.052322 -68.936665 
L 451.025645 -69.512677 
L 451.998967 -71.668826 
L 452.97229 -73.179412 
L 453.945612 -71.887369 
L 454.918934 -71.695532 
L 455.892257 -73.688747 
L 456.865579 -74.489567 
L 457.838902 -75.262299 
L 458.812224 -76.952895 
L 459.785546 -77.790319 
L 460.758869 -78.384773 
L 461.732191 -76.750832 
L 462.705514 -76.631987 
L 463.678836 -75.377041 
L 464.652158 -75.449317 
L 465.625481 -75.352968 
L 466.598803 -75.552213 
L 467.572125 -75.150679 
L 468.545448 -74.748575 
L 469.51877 -74.84655 
L 470.492093 -74.840397 
L 471.465415 -74.799042 
L 472.438737 -74.817428 
L 473.41206 -74.817525 
L 474.385382 -74.798879 
L 475.358705 -74.681641 
L 476.332027 -75.462783 
L 477.305349 -75.193394 
L 478.278672 -75.622085 
L 479.251994 -75.855577 
L 480.225317 -76.499184 
L 481.198639 -77.446757 
L 482.171961 -77.842936 
L 483.145284 -78.328828 
L 484.118606 -79.012709 
L 485.091928 -78.719513 
L 486.065251 -78.488183 
L 487.038573 -78.398242 
L 488.011896 -79.90647 
L 488.985218 -81.741336 
L 489.95854 -82.569333 
L 490.931863 -86.351294 
L 491.905185 -86.710133 
L 492.878508 -87.066297 
L 493.85183 -87.22637 
L 494.825152 -88.442475 
L 495.798475 -89.518573 
L 496.771797 -91.121651 
L 497.74512 -91.53424 
L 498.718442 -92.022562 
L 499.691764 -91.983933 
L 500.665087 -92.003435 
L 501.638409 -92.625639 
L 501.638409 -111.655032 
L 501.638409 -111.655032 
L 500.665087 -111.425957 
L 499.691764 -111.393746 
L 498.718442 -111.559981 
L 497.74512 -111.354154 
L 496.771797 -110.821984 
L 495.798475 -110.438085 
L 494.825152 -109.465547 
L 493.85183 -109.02882 
L 492.878508 -108.731431 
L 491.905185 -108.650024 
L 490.931863 -108.342559 
L 489.95854 -108.733331 
L 488.985218 -106.528154 
L 488.011896 -105.278134 
L 487.038573 -104.156948 
L 486.065251 -102.449978 
L 485.091928 -100.358965 
L 484.118606 -100.65848 
L 483.145284 -103.508345 
L 482.171961 -103.135004 
L 481.198639 -102.920571 
L 480.225317 -101.694204 
L 479.251994 -100.860009 
L 478.278672 -100.490844 
L 477.305349 -100.304944 
L 476.332027 -101.23689 
L 475.358705 -100.786863 
L 474.385382 -101.7556 
L 473.41206 -103.256525 
L 472.438737 -103.179051 
L 471.465415 -103.276996 
L 470.492093 -103.356968 
L 469.51877 -103.374683 
L 468.545448 -103.355309 
L 467.572125 -104.864602 
L 466.598803 -105.103515 
L 465.625481 -104.753805 
L 464.652158 -104.838452 
L 463.678836 -104.757577 
L 462.705514 -104.38971 
L 461.732191 -104.408104 
L 460.758869 -105.57065 
L 459.785546 -111.917195 
L 458.812224 -116.839955 
L 457.838902 -124.533252 
L 456.865579 -124.287633 
L 455.892257 -122.626112 
L 454.918934 -122.733788 
L 453.945612 -122.79455 
L 452.97229 -123.461639 
L 451.998967 -123.532213 
L 451.025645 -123.49652 
L 450.052322 -123.438052 
L 449.079 -122.781817 
L 448.105678 -122.749603 
L 447.132355 -121.689469 
L 446.159033 -120.131908 
L 445.185711 -119.008789 
L 444.212388 -117.285392 
L 443.239066 -116.334226 
L 442.265743 -115.21476 
L 441.292421 -114.758885 
L 440.319099 -112.705557 
L 439.345776 -111.914995 
L 438.372454 -111.470403 
L 437.399131 -110.531774 
L 436.425809 -109.649999 
L 435.452487 -109.549839 
L 434.479164 -109.445019 
L 433.505842 -107.68657 
L 432.532519 -101.297997 
L 431.559197 -93.966249 
L 430.585875 -79.256661 
L 429.612552 -78.806311 
L 426.692585 -78.282835 
L 425.719263 -78.774767 
L 424.74594 -77.879469 
L 423.772618 -74.344146 
L 422.799296 -74.654883 
L 421.825973 -75.061802 
L 420.852651 -74.693379 
L 419.879328 -74.660048 
L 418.906006 -74.653205 
L 417.932684 -74.651753 
L 416.959361 -74.621661 
L 415.986039 -74.583148 
L 415.012716 -74.53518 
L 414.039394 -74.550229 
L 413.066072 -74.552087 
L 412.092749 -74.559775 
L 411.119427 -83.106586 
L 410.146105 -83.082808 
L 409.172782 -82.210125 
L 408.19946 -82.087157 
L 407.226137 -81.864715 
L 406.252815 -81.577653 
L 405.279493 -80.634376 
L 404.30617 -79.854344 
L 403.332848 -79.257709 
L 402.359525 -79.755163 
L 401.386203 -79.281436 
L 400.412881 -78.996962 
L 399.439558 -77.445769 
L 398.466236 -84.302187 
L 397.492914 -87.77243 
L 396.519591 -87.65617 
L 395.546269 -87.316767 
L 394.572946 -86.944569 
L 393.599624 -86.886191 
L 392.626302 -87.067328 
L 391.652979 -87.171204 
L 390.679657 -87.115392 
L 389.706334 -87.031374 
L 388.733012 -87.364559 
L 387.75969 -87.720151 
L 386.786367 -90.175885 
L 385.813045 -92.662354 
L 384.839722 -94.94043 
L 383.8664 -91.402821 
L 382.893078 -93.098023 
L 381.919755 -93.857704 
L 380.946433 -94.298591 
L 379.973111 -94.593887 
L 378.999788 -94.791987 
L 378.026466 -94.917254 
L 377.053143 -95.133658 
L 376.079821 -95.512591 
L 375.106499 -95.322426 
L 374.133176 -95.344518 
L 373.159854 -95.261364 
L 372.186531 -95.328341 
L 371.213209 -89.796281 
L 370.239887 -86.208105 
L 369.266564 -86.118783 
L 368.293242 -86.127003 
L 367.319919 -86.176133 
L 366.346597 -86.310019 
L 365.373275 -87.794439 
L 364.399952 -88.074752 
L 363.42663 -88.053763 
L 362.453308 -88.044243 
L 361.479985 -88.277708 
L 360.506663 -88.342921 
L 359.53334 -86.528952 
L 358.560018 -84.219543 
L 357.586696 -81.746074 
L 356.613373 -82.513723 
L 216.454949 -81.757161 
L 215.481627 -82.085121 
L 214.508304 -82.412441 
L 213.534982 -82.755105 
L 212.56166 -83.657509 
L 211.588337 -83.804438 
L 210.615015 -86.114785 
L 209.641692 -87.506903 
L 208.66837 -89.913903 
L 207.695048 -89.969073 
L 206.721725 -90.296001 
L 204.775081 -90.558023 
L 203.801758 -90.567378 
L 202.828436 -93.0479 
L 201.855113 -93.03714 
L 200.881791 -93.067251 
L 199.908469 -94.897918 
L 198.935146 -96.814133 
L 197.961824 -96.315619 
L 196.988501 -96.288079 
L 196.015179 -96.291228 
L 195.041857 -97.71824 
L 194.068534 -97.989219 
L 193.095212 -100.419855 
L 192.121889 -105.396557 
L 191.148567 -107.161497 
L 190.175245 -107.472783 
L 189.201922 -108.417173 
L 188.2286 -111.756505 
L 187.255278 -114.113111 
L 186.281955 -118.024891 
L 185.308633 -121.225367 
L 184.33531 -124.628511 
L 183.361988 -126.152998 
L 182.388666 -128.446275 
L 181.415343 -131.110909 
L 180.442021 -134.841838 
L 179.468698 -136.662371 
L 178.495376 -136.816493 
L 177.522054 -136.93185 
L 176.548731 -136.930026 
L 175.575409 -136.439592 
L 174.602086 -136.354085 
L 173.628764 -136.350139 
L 172.655442 -135.953989 
L 171.682119 -135.558531 
L 170.708797 -135.570856 
L 169.735475 -136.307909 
L 168.762152 -136.181498 
L 167.78883 -135.884875 
L 166.815507 -135.886065 
L 165.842185 -135.127341 
L 164.868863 -132.846604 
L 163.89554 -131.999944 
L 162.922218 -131.890317 
L 161.948895 -130.877308 
L 160.975573 -128.461794 
L 160.002251 -127.29719 
L 159.028928 -126.084282 
L 158.055606 -124.095111 
L 157.082284 -120.504174 
L 156.108961 -119.780938 
L 155.135639 -119.426133 
L 154.162316 -118.793793 
L 153.188994 -116.046838 
L 152.215672 -116.324445 
L 151.242349 -117.283814 
L 150.269027 -117.278293 
L 149.295704 -117.290645 
L 148.322382 -117.419714 
L 147.34906 -117.515402 
L 146.375737 -117.370087 
L 145.402415 -117.287811 
L 144.429092 -117.742464 
L 143.45577 -118.480667 
L 142.482448 -117.657663 
L 141.509125 -118.177396 
L 140.535803 -119.08123 
L 139.562481 -119.932295 
L 138.589158 -121.116743 
L 137.615836 -122.241494 
L 136.642513 -123.626005 
L 135.669191 -125.032938 
L 134.695869 -126.820556 
L 117.176066 -128.698663 
L 116.202743 -129.186915 
L 115.229421 -127.123581 
L 114.256098 -126.97146 
L 113.282776 -129.138658 
L 112.309454 -128.825247 
L 111.336131 -123.726316 
L 110.362809 -116.37441 
L 109.389486 -106.362643 
L 108.416164 -88.663429 
z
"/>
    </defs>
    <g clip-path="url(#p25b2fb7cfb)">
     <use xlink:href="#m31be647803" x="0" y="220.375797" style="fill: #3a6690; fill-opacity: 0.28"/>
    </g>
   </g>
   <g id="line2d_31">
    <path d="M 108.416164 150.971859 
L 109.389486 142.588366 
L 110.362809 136.29373 
L 111.336131 131.065886 
L 112.309454 126.905005 
L 113.282776 125.43552 
L 114.256098 126.447598 
L 115.229421 125.342039 
L 116.202743 123.205093 
L 117.176066 122.731023 
L 134.695869 124.830289 
L 135.669191 126.609673 
L 137.615836 128.167166 
L 138.589158 128.646375 
L 139.562481 129.321237 
L 140.535803 129.559685 
L 141.509125 129.923291 
L 142.482448 129.883565 
L 143.45577 128.944057 
L 144.429092 129.211683 
L 145.402415 129.187705 
L 146.375737 128.84063 
L 147.34906 127.875982 
L 149.295704 126.545363 
L 150.269027 126.462821 
L 151.242349 126.578181 
L 152.215672 127.208684 
L 153.188994 127.307137 
L 154.162316 126.451882 
L 157.082284 125.706019 
L 158.055606 123.507217 
L 159.028928 122.486877 
L 160.002251 121.953834 
L 160.975573 121.208966 
L 161.948895 118.607398 
L 162.922218 116.743737 
L 163.89554 116.401635 
L 164.868863 115.092895 
L 165.842185 113.091995 
L 166.815507 111.737509 
L 167.78883 111.745464 
L 168.762152 110.992641 
L 169.735475 111.9553 
L 170.708797 113.588242 
L 171.682119 113.654872 
L 172.655442 113.116857 
L 173.628764 112.108451 
L 175.575409 112.715085 
L 176.548731 111.458059 
L 177.522054 111.462037 
L 178.495376 111.069216 
L 179.468698 111.683806 
L 180.442021 113.942278 
L 181.415343 115.855663 
L 182.388666 117.521423 
L 183.361988 118.862981 
L 184.33531 120.646089 
L 187.255278 127.057522 
L 189.201922 130.050917 
L 190.175245 130.505395 
L 191.148567 131.090151 
L 192.121889 132.39193 
L 193.095212 134.504212 
L 194.068534 136.102347 
L 195.041857 136.49119 
L 196.015179 137.923246 
L 196.988501 137.912306 
L 197.961824 137.762139 
L 198.935146 137.391197 
L 200.881791 140.283154 
L 201.855113 140.841059 
L 202.828436 140.978298 
L 203.801758 142.330795 
L 204.775081 142.425271 
L 206.721725 142.972237 
L 207.695048 143.592794 
L 208.66837 143.969703 
L 209.641692 145.314245 
L 210.615015 146.038228 
L 211.588337 147.177906 
L 212.56166 147.438461 
L 213.534982 148.098798 
L 215.481627 148.608967 
L 216.454949 148.766096 
L 356.613373 148.531398 
L 357.586696 148.737256 
L 359.53334 146.747295 
L 360.506663 145.931819 
L 361.479985 146.04519 
L 364.399952 147.139121 
L 365.373275 147.644319 
L 366.346597 148.756151 
L 367.319919 149.162895 
L 369.266564 149.343891 
L 370.239887 149.193724 
L 371.213209 147.626418 
L 372.186531 145.248609 
L 373.159854 145.561871 
L 374.133176 145.393803 
L 375.106499 145.51513 
L 376.079821 145.272476 
L 378.026466 146.432044 
L 379.973111 147.390726 
L 381.919755 148.679576 
L 382.893078 149.550743 
L 383.8664 150.617823 
L 384.839722 149.406543 
L 386.786367 152.728117 
L 387.75969 154.236748 
L 389.706334 155.246148 
L 391.652979 154.989572 
L 393.599624 155.430128 
L 394.572946 155.338635 
L 396.519591 154.584817 
L 397.492914 154.481391 
L 398.466236 155.929358 
L 399.439558 158.066503 
L 400.412881 156.991466 
L 401.386203 156.788592 
L 402.359525 156.3003 
L 403.332848 156.682182 
L 404.30617 156.168034 
L 405.279493 155.37742 
L 406.252815 154.441611 
L 408.19946 153.508786 
L 409.172782 153.231325 
L 410.146105 152.386015 
L 411.119427 152.363141 
L 412.092749 154.788686 
L 413.066072 154.766807 
L 414.039394 154.963715 
L 416.959361 155.17554 
L 417.932684 155.49278 
L 418.906006 155.525598 
L 419.879328 155.431122 
L 420.852651 155.549466 
L 421.825973 155.140733 
L 422.799296 155.641953 
L 423.772618 155.961182 
L 424.74594 154.765813 
L 425.719263 154.345146 
L 426.692585 154.897085 
L 429.612552 154.702166 
L 430.585875 154.449567 
L 431.559197 150.697382 
L 433.505842 144.775235 
L 434.479164 143.593789 
L 436.425809 143.363069 
L 438.372454 141.485484 
L 439.345776 141.110564 
L 440.319099 140.325917 
L 441.292421 138.606455 
L 442.265743 137.717387 
L 443.239066 136.203784 
L 444.212388 134.907972 
L 447.132355 128.594993 
L 448.105678 126.74426 
L 449.079 126.073978 
L 450.052322 124.188438 
L 451.025645 123.871198 
L 451.998967 122.775277 
L 452.97229 122.055272 
L 453.945612 123.034838 
L 454.918934 123.161137 
L 455.892257 122.218367 
L 456.865579 120.987197 
L 457.838902 120.478021 
L 458.812224 123.479372 
L 459.785546 125.52204 
L 460.758869 128.398085 
L 461.732191 129.796329 
L 462.705514 129.864948 
L 463.678836 130.308488 
L 464.652158 130.231912 
L 465.625481 130.32241 
L 466.598803 130.047933 
L 467.572125 130.368157 
L 468.545448 131.323855 
L 470.492093 131.277114 
L 472.438737 131.377557 
L 473.41206 131.338772 
L 474.385382 132.098557 
L 475.358705 132.641545 
L 476.332027 132.02596 
L 477.305349 132.626628 
L 479.251994 132.018004 
L 480.225317 131.279103 
L 481.198639 130.192133 
L 482.171961 129.886827 
L 483.145284 129.45721 
L 484.118606 130.540202 
L 485.091928 130.836558 
L 487.038573 129.098202 
L 488.011896 127.783495 
L 490.931863 123.028871 
L 492.878508 122.476933 
L 493.85183 122.248201 
L 494.825152 121.421786 
L 496.771797 119.403979 
L 497.74512 118.9316 
L 498.718442 118.584525 
L 499.691764 118.686957 
L 500.665087 118.661101 
L 501.638409 118.235462 
L 501.638409 118.235462 
" clip-path="url(#p25b2fb7cfb)" style="fill: none; stroke: #3a6690; stroke-opacity: 0.8; stroke-linecap: square"/>
   </g>
   <g id="line2d_32">
    <path d="M 70.456591 153.68481 
L 71.429913 163.45859 
L 72.403236 165.407778 
L 73.376558 164.321802 
L 74.34988 154.575867 
L 75.323203 149.452289 
L 108.416164 105.901881 
L 109.389486 83.903913 
L 110.362809 85.936637 
L 111.336131 84.015295 
L 112.309454 85.296189 
L 113.282776 109.27119 
L 114.256098 138.592533 
L 115.229421 110.969767 
L 116.202743 93.287856 
L 117.176066 115.619971 
L 134.695869 158.41855 
L 135.669191 156.8592 
L 136.642513 140.486029 
L 137.615836 143.883183 
L 138.589158 138.230541 
L 139.562481 143.493346 
L 140.535803 134.805541 
L 141.509125 138.286232 
L 142.482448 128.930134 
L 143.45577 105.456353 
L 144.429092 136.169972 
L 145.402415 128.540297 
L 146.375737 143.96672 
L 147.34906 136.448427 
L 148.322382 145.470378 
L 149.295704 147.001883 
L 150.269027 152.264688 
L 151.242349 152.682371 
L 152.215672 123.555947 
L 153.188994 86.66062 
L 154.162316 61.989481 
L 155.135639 77.722205 
L 156.108961 81.592734 
L 157.082284 98.383588 
L 158.055606 77.026067 
L 159.028928 82.400254 
L 160.002251 78.362653 
L 160.975573 94.763669 
L 161.948895 85.574645 
L 162.922218 104.676678 
L 163.89554 130.907167 
L 165.842185 82.205336 
L 166.815507 105.567735 
L 167.78883 135.028305 
L 168.762152 117.207166 
L 169.735475 155.884606 
L 170.708797 151.178712 
L 171.682119 138.035622 
L 172.655442 113.475865 
L 173.628764 115.731353 
L 174.602086 145.27546 
L 175.575409 153.629119 
L 176.548731 111.805133 
L 177.522054 152.37607 
L 178.495376 141.683386 
L 179.468698 140.764484 
L 180.442021 149.897818 
L 181.415343 115.56428 
L 182.388666 124.363467 
L 183.361988 119.156353 
L 184.33531 148.310622 
L 185.308633 134.638468 
L 186.281955 142.268143 
L 187.255278 140.402492 
L 188.2286 135.362451 
L 189.201922 128.790906 
L 190.175245 117.402085 
L 191.148567 147.280338 
L 192.121889 143.688265 
L 193.095212 141.34924 
L 194.068534 150.315501 
L 195.041857 145.915907 
L 196.015179 157.304728 
L 196.988501 155.578306 
L 197.961824 146.974037 
L 198.935146 127.64924 
L 199.908469 153.211436 
L 201.855113 160.896802 
L 202.828436 157.471802 
L 203.801758 149.675053 
L 204.775081 155.021395 
L 207.695048 158.140094 
L 208.66837 160.451273 
L 209.641692 153.211436 
L 210.615015 144.635013 
L 211.588337 151.06733 
L 212.56166 155.606151 
L 214.508304 150.371192 
L 215.481627 146.5842 
L 216.454949 139.762045 
L 356.613373 122.219361 
L 357.586696 123.166109 
L 358.560018 118.571597 
L 359.53334 116.678101 
L 360.506663 118.515906 
L 361.479985 153.489891 
L 362.453308 155.578306 
L 363.42663 165.129322 
L 364.399952 168.721396 
L 365.373275 161.119566 
L 366.346597 158.780542 
L 367.319919 164.600257 
L 368.293242 160.841111 
L 369.266564 162.09416 
L 370.239887 153.267127 
L 371.213209 105.790499 
L 372.186531 88.442734 
L 373.159854 165.769769 
L 374.133176 153.4342 
L 375.106499 163.848428 
L 376.079821 146.417126 
L 377.053143 161.119566 
L 378.026466 167.050664 
L 378.999788 167.88603 
L 379.973111 167.691111 
L 380.946433 167.356965 
L 382.893078 164.154729 
L 383.8664 152.097614 
L 384.839722 89.250255 
L 385.813045 167.189891 
L 386.786367 161.063875 
L 387.75969 160.757574 
L 388.733012 167.106355 
L 389.706334 170.225054 
L 390.679657 161.398021 
L 391.652979 165.26855 
L 393.599624 166.382371 
L 394.572946 162.038468 
L 395.546269 150.231964 
L 396.519591 151.596395 
L 397.492914 150.371192 
L 398.466236 146.33359 
L 399.439558 148.282777 
L 400.412881 135.668752 
L 401.386203 147.753712 
L 402.359525 150.176273 
L 403.332848 157.10981 
L 404.30617 146.723427 
L 405.279493 144.913468 
L 406.252815 141.683386 
L 407.226137 153.796192 
L 408.19946 155.132777 
L 409.172782 157.91733 
L 410.146105 140.486029 
L 411.119427 151.457167 
L 412.092749 157.165501 
L 413.066072 166.57729 
L 414.039394 166.57729 
L 415.012716 162.205542 
L 415.986039 170.030135 
L 416.959361 171.784404 
L 417.932684 170.280745 
L 418.906006 166.187452 
L 419.879328 163.207981 
L 420.852651 169.695989 
L 421.825973 150.593956 
L 422.799296 164.266111 
L 423.772618 160.53481 
L 424.74594 116.900865 
L 425.719263 134.554931 
L 426.692585 163.737046 
L 429.612552 130.211028 
L 430.585875 140.680947 
L 431.559197 45.11509 
L 432.532519 69.814075 
L 433.505842 68.199034 
L 434.479164 111.832979 
L 435.452487 139.010216 
L 436.425809 150.0092 
L 437.399131 130.517329 
L 438.372454 129.960419 
L 439.345776 129.988264 
L 440.319099 129.487045 
L 441.292421 109.02058 
L 442.265743 141.683386 
L 443.239066 124.196394 
L 444.212388 125.922817 
L 445.185711 110.023019 
L 446.159033 117.736231 
L 447.132355 107.572613 
L 448.105678 114.366922 
L 449.079 144.440094 
L 450.052322 116.900865 
L 451.025645 141.711232 
L 451.998967 133.580337 
L 452.97229 140.374647 
L 453.945612 144.328712 
L 454.918934 138.091313 
L 455.892257 137.339484 
L 456.865579 95.738263 
L 457.838902 126.424036 
L 458.812224 129.152898 
L 459.785546 127.008792 
L 460.758869 148.728305 
L 461.732191 150.983793 
L 462.705514 140.931557 
L 463.678836 162.428306 
L 464.652158 128.373223 
L 465.625481 132.494362 
L 466.598803 122.302898 
L 467.572125 138.453305 
L 468.545448 135.780134 
L 469.51877 140.0405 
L 470.492093 124.53054 
L 471.465415 127.621394 
L 472.438737 111.136841 
L 473.41206 116.650255 
L 474.385382 128.846597 
L 475.358705 129.570581 
L 476.332027 127.203711 
L 477.305349 133.719565 
L 478.278672 133.106963 
L 479.251994 125.143142 
L 481.198639 113.893548 
L 482.171961 129.542736 
L 483.145284 125.310215 
L 484.118606 126.062044 
L 485.091928 134.722004 
L 486.065251 103.117328 
L 487.038573 104.370377 
L 488.011896 111.916515 
L 488.985218 107.795377 
L 489.95854 98.467125 
L 490.931863 114.951678 
L 491.905185 119.044971 
L 492.878508 126.368345 
L 493.85183 115.898426 
L 494.825152 115.31367 
L 495.798475 107.099239 
L 496.771797 112.222816 
L 497.74512 111.303914 
L 498.718442 117.903304 
L 499.691764 114.00493 
L 500.665087 115.926272 
L 501.638409 116.928711 
L 501.638409 116.928711 
" clip-path="url(#p25b2fb7cfb)" style="fill: none; stroke: #35e0d0; stroke-width: 1.7; stroke-linecap: square"/>
   </g>
   <g id="patch_3">
    <path d="M 48.8975 194.562047 
L 48.8975 22.698047 
" style="fill: none; stroke: #2a323c; stroke-width: 0.8; stroke-linejoin: miter; stroke-linecap: square"/>
   </g>
   <g id="patch_4">
    <path d="M 523.1975 194.562047 
L 523.1975 22.698047 
" style="fill: none; stroke: #2a323c; stroke-width: 0.8; stroke-linejoin: miter; stroke-linecap: square"/>
   </g>
   <g id="patch_5">
    <path d="M 48.8975 194.562047 
L 523.1975 194.562047 
" style="fill: none; stroke: #2a323c; stroke-width: 0.8; stroke-linejoin: miter; stroke-linecap: square"/>
   </g>
   <g id="patch_6">
    <path d="M 48.8975 22.698047 
L 523.1975 22.698047 
" style="fill: none; stroke: #2a323c; stroke-width: 0.8; stroke-linejoin: miter; stroke-linecap: square"/>
   </g>
   <g id="text_17">
    <text style="font-size: 12.5px; font-family: 'DejaVu Sans'; text-anchor: start; fill: #e6ebf0" x="48.8975" y="16.698047" transform="rotate(-0 48.8975 16.698047)">Baltic Sea: daily degraded ratio with 28-day baseline</text>
   </g>
   <g id="legend_1">
    <g id="patch_7">
     <path d="M 361.518125 56.318672 
L 516.8975 56.318672 
Q 518.6975 56.318672 518.6975 54.518672 
L 518.6975 28.998047 
Q 518.6975 27.198047 516.8975 27.198047 
L 361.518125 27.198047 
Q 359.718125 27.198047 359.718125 28.998047 
L 359.718125 54.518672 
Q 359.718125 56.318672 361.518125 56.318672 
L 361.518125 56.318672 
z
" style="fill: none; opacity: 0"/>
    </g>
    <g id="patch_8">
     <path d="M 363.318125 37.636641 
L 381.318125 37.636641 
L 381.318125 31.336641 
L 363.318125 31.336641 
z
" style="fill: #3a6690; fill-opacity: 0.28"/>
    </g>
    <g id="text_18">
     <text style="font-size: 9px; font-family: 'DejaVu Sans'; text-anchor: start; fill: #8b96a3" x="388.518125" y="37.636641" transform="rotate(-0 388.518125 37.636641)">28-day baseline ±1σ</text>
    </g>
    <g id="line2d_33">
     <path d="M 363.318125 47.696953 
L 372.318125 47.696953 
L 381.318125 47.696953 
" style="fill: none; stroke: #35e0d0; stroke-width: 1.7; stroke-linecap: square"/>
    </g>
    <g id="text_19">
     <text style="font-size: 9px; font-family: 'DejaVu Sans'; text-anchor: start; fill: #8b96a3" x="388.518125" y="50.846953" transform="rotate(-0 388.518125 50.846953)">degraded ratio (daily mean)</text>
    </g>
   </g>
  </g>
 </g>
 <defs>
  <clipPath id="p25b2fb7cfb">
   <rect x="48.8975" y="22.698047" width="474.3" height="171.864"/>
  </clipPath>
 </defs>
</svg>
