<?xml version="1.0" encoding="utf-8" standalone="no"?>
<!DOCTYPE svg PUBLIC "-//W3C//DTD SVG 1.1//EN"
  "http://www.w3.org/Graphics/SVG/1.1/DTD/svg11.dtd">
<svg xmlns:xlink="http://www.w3.org/1999/xlink" width="538.0325pt" height="220.375797pt" viewBox="0 0 538.0325 220.375797" xmlns="http://www.w3.org/2000/svg" version="1.1">
 <metadata>
  <rdf:RDF xmlns:dc="http://purl.org/dc/elements/1.1/" xmlns:cc="http://creativecommons.org/ns#" xmlns:rdf="http://www.w3.org/1999/02/22-rdf-syntax-ns#">
   <cc:Work>
    <dc:type rdf:resource="http://purl.org/dc/dcmitype/StillImage"/>
    <dc:date>2026-07-21T13:52:56.674561</dc:date>
    <dc:format>image/svg+xml</dc:format>
    <dc:creator>
     <cc:Agent>
      <dc:title>Matplotlib v3.10.8, https://matplotlib.org/</dc:title>
     </cc:Agent>
    </dc:creator>
   </cc:Work>
  </rdf:RDF>
 </metadata>
 <defs>
  <style type="text/css">*{stroke-linejoin: round; stroke-linecap: butt}</style>
 </defs>
 <g id="figure_1">
  <g id="patch_1">
   <path d="M 0 220.375797 
L 538.0325 220.375797 
L 538.0325 0 
L 0 0 
z
" style="fill: #0a0c0f"/>
  </g>
  <g id="axes_1">
   <g id="patch_2">
    <path d="M 56.5325 194.562047 
L 530.8325 194.562047 
L 530.8325 22.698047 
L 56.5325 22.698047 
z
" style="fill: #10141a"/>
   </g>
   <g id="matplotlib.axis_1">
    <g id="xtick_1">
     <g id="line2d_1">
      <path d="M 76.144946 194.562047 
L 76.144946 22.698047 
" clip-path="url(#p0da220fde6)" style="fill: none; stroke: #2a323c; stroke-opacity: 0.35; stroke-width: 0.8; stroke-linecap: square"/>
     </g>
     <g id="line2d_2">
      <defs>
       <path id="mc216f317ac" d="M 0 0 
L 0 3.5 
" style="stroke: #8b96a3; stroke-width: 0.8"/>
      </defs>
      <g>
       <use xlink:href="#mc216f317ac" x="76.144946" y="194.562047" style="fill: #8b96a3; stroke: #8b96a3; stroke-width: 0.8"/>
      </g>
     </g>
     <g id="text_1">
      <text style="font-size: 12px; font-family: 'DejaVu Sans'; text-anchor: middle; fill: #8b96a3" x="76.144946" y="210.680172" transform="rotate(-0 76.144946 210.680172)">May 01</text>
     </g>
    </g>
    <g id="xtick_2">
     <g id="line2d_3">
      <path d="M 135.517612 194.562047 
L 135.517612 22.698047 
" clip-path="url(#p0da220fde6)" style="fill: none; stroke: #2a323c; stroke-opacity: 0.35; stroke-width: 0.8; stroke-linecap: square"/>
     </g>
     <g id="line2d_4">
      <g>
       <use xlink:href="#mc216f317ac" x="135.517612" y="194.562047" style="fill: #8b96a3; stroke: #8b96a3; stroke-width: 0.8"/>
      </g>
     </g>
     <g id="text_2">
      <text style="font-size: 12px; font-family: 'DejaVu Sans'; text-anchor: middle; fill: #8b96a3" x="135.517612" y="210.680172" transform="rotate(-0 135.517612 210.680172)">Jul 01</text>
     </g>
    </g>
    <g id="xtick_3">
     <g id="line2d_5">
      <path d="M 195.8636 194.562047 
L 195.8636 22.698047 
" clip-path="url(#p0da220fde6)" style="fill: none; stroke: #2a323c; stroke-opacity: 0.35; stroke-width: 0.8; stroke-linecap: square"/>
     </g>
     <g id="line2d_6">
      <g>
       <use xlink:href="#mc216f317ac" x="195.8636" y="194.562047" style="fill: #8b96a3; stroke: #8b96a3; stroke-width: 0.8"/>
      </g>
     </g>
     <g id="text_3">
      <text style="font-size: 12px; font-family: 'DejaVu Sans'; text-anchor: middle; fill: #8b96a3" x="195.8636" y="210.680172" transform="rotate(-0 195.8636 210.680172)">Sep 01</text>
     </g>
    </g>
    <g id="xtick_4">
     <g id="line2d_7">
      <path d="M 255.236266 194.562047 
L 255.236266 22.698047 
" clip-path="url(#p0da220fde6)" style="fill: none; stroke: #2a323c; stroke-opacity: 0.35; stroke-width: 0.8; stroke-linecap: square"/>
     </g>
     <g id="line2d_8">
      <g>
       <use xlink:href="#mc216f317ac" x="255.236266" y="194.562047" style="fill: #8b96a3; stroke: #8b96a3; stroke-width: 0.8"/>
      </g>
     </g>
     <g id="text_4">
      <text style="font-size: 12px; font-family: 'DejaVu Sans'; text-anchor: middle; fill: #8b96a3" x="255.236266" y="210.680172" transform="rotate(-0 255.236266 210.680172)">Nov 01</text>
     </g>
    </g>
    <g id="xtick_5">
     <g id="line2d_9">
      <path d="M 314.608931 194.562047 
L 314.608931 22.698047 
" clip-path="url(#p0da220fde6)" style="fill: none; stroke: #2a323c; stroke-opacity: 0.35; stroke-width: 0.8; stroke-linecap: square"/>
     </g>
     <g id="line2d_10">
      <g>
       <use xlink:href="#mc216f317ac" x="314.608931" y="194.562047" style="fill: #8b96a3; stroke: #8b96a3; stroke-width: 0.8"/>
      </g>
     </g>
     <g id="text_5">
      <text style="font-size: 12px; font-family: 'DejaVu Sans'; text-anchor: middle; fill: #8b96a3" x="314.608931" y="210.680172" transform="rotate(-0 314.608931 210.680172)">Jan 01</text>
     </g>
    </g>
    <g id="xtick_6">
     <g id="line2d_11">
      <path d="M 372.034952 194.562047 
L 372.034952 22.698047 
" clip-path="url(#p0da220fde6)" style="fill: none; stroke: #2a323c; stroke-opacity: 0.35; stroke-width: 0.8; stroke-linecap: square"/>
     </g>
     <g id="line2d_12">
      <g>
       <use xlink:href="#mc216f317ac" x="372.034952" y="194.562047" style="fill: #8b96a3; stroke: #8b96a3; stroke-width: 0.8"/>
      </g>
     </g>
     <g id="text_6">
      <text style="font-size: 12px; font-family: 'DejaVu Sans'; text-anchor: middle; fill: #8b96a3" x="372.034952" y="210.680172" transform="rotate(-0 372.034952 210.680172)">Mar 01</text>
     </g>
    </g>
    <g id="xtick_7">
     <g id="line2d_13">
      <path d="M 431.407618 194.562047 
L 431.407618 22.698047 
" clip-path="url(#p0da220fde6)" style="fill: none; stroke: #2a323c; stroke-opacity: 0.35; stroke-width: 0.8; stroke-linecap: square"/>
     </g>
     <g id="line2d_14">
      <g>
       <use xlink:href="#mc216f317ac" x="431.407618" y="194.562047" style="fill: #8b96a3; stroke: #8b96a3; stroke-width: 0.8"/>
      </g>
     </g>
     <g id="text_7">
      <text style="font-size: 12px; font-family: 'DejaVu Sans'; text-anchor: middle; fill: #8b96a3" x="431.407618" y="210.680172" transform="rotate(-0 431.407618 210.680172)">May 01</text>
     </g>
    </g>
    <g id="xtick_8">
     <g id="line2d_15">
      <path d="M 490.780284 194.562047 
L 490.780284 22.698047 
" clip-path="url(#p0da220fde6)" style="fill: none; stroke: #2a323c; stroke-opacity: 0.35; stroke-width: 0.8; stroke-linecap: square"/>
     </g>
     <g id="line2d_16">
      <g>
       <use xlink:href="#mc216f317ac" x="490.780284" y="194.562047" style="fill: #8b96a3; stroke: #8b96a3; stroke-width: 0.8"/>
      </g>
     </g>
     <g id="text_8">
      <text style="font-size: 12px; font-family: 'DejaVu Sans'; text-anchor: middle; fill: #8b96a3" x="490.780284" y="210.680172" transform="rotate(-0 490.780284 210.680172)">Jul 01</text>
     </g>
    </g>
   </g>
   <g id="matplotlib.axis_2">
    <g id="ytick_1">
     <g id="line2d_17">
      <path d="M 56.5325 194.562047 
L 530.8325 194.562047 
" clip-path="url(#p0da220fde6)" style="fill: none; stroke: #2a323c; stroke-opacity: 0.35; stroke-width: 0.8; stroke-linecap: square"/>
     </g>
     <g id="line2d_18">
      <defs>
       <path id="mfd15d3a09d" d="M 0 0 
L -3.5 0 
" style="stroke: #8b96a3; stroke-width: 0.8"/>
      </defs>
      <g>
       <use xlink:href="#mfd15d3a09d" x="56.5325" y="194.562047" style="fill: #8b96a3; stroke: #8b96a3; stroke-width: 0.8"/>
      </g>
     </g>
     <g id="text_9">
      <text style="font-size: 12px; font-family: 'DejaVu Sans'; text-anchor: end; fill: #8b96a3" x="49.5325" y="199.121109" transform="rotate(-0 49.5325 199.121109)">0.00</text>
     </g>
    </g>
    <g id="ytick_2">
     <g id="line2d_19">
      <path d="M 56.5325 158.937027 
L 530.8325 158.937027 
" clip-path="url(#p0da220fde6)" style="fill: none; stroke: #2a323c; stroke-opacity: 0.35; stroke-width: 0.8; stroke-linecap: square"/>
     </g>
     <g id="line2d_20">
      <g>
       <use xlink:href="#mfd15d3a09d" x="56.5325" y="158.937027" style="fill: #8b96a3; stroke: #8b96a3; stroke-width: 0.8"/>
      </g>
     </g>
     <g id="text_10">
      <text style="font-size: 12px; font-family: 'DejaVu Sans'; text-anchor: end; fill: #8b96a3" x="49.5325" y="163.49609" transform="rotate(-0 49.5325 163.49609)">0.02</text>
     </g>
    </g>
    <g id="ytick_3">
     <g id="line2d_21">
      <path d="M 56.5325 123.312008 
L 530.8325 123.312008 
" clip-path="url(#p0da220fde6)" style="fill: none; stroke: #2a323c; stroke-opacity: 0.35; stroke-width: 0.8; stroke-linecap: square"/>
     </g>
     <g id="line2d_22">
      <g>
       <use xlink:href="#mfd15d3a09d" x="56.5325" y="123.312008" style="fill: #8b96a3; stroke: #8b96a3; stroke-width: 0.8"/>
      </g>
     </g>
     <g id="text_11">
      <text style="font-size: 12px; font-family: 'DejaVu Sans'; text-anchor: end; fill: #8b96a3" x="49.5325" y="127.871071" transform="rotate(-0 49.5325 127.871071)">0.04</text>
     </g>
    </g>
    <g id="ytick_4">
     <g id="line2d_23">
      <path d="M 56.5325 87.686989 
L 530.8325 87.686989 
" clip-path="url(#p0da220fde6)" style="fill: none; stroke: #2a323c; stroke-opacity: 0.35; stroke-width: 0.8; stroke-linecap: square"/>
     </g>
     <g id="line2d_24">
      <g>
       <use xlink:href="#mfd15d3a09d" x="56.5325" y="87.686989" style="fill: #8b96a3; stroke: #8b96a3; stroke-width: 0.8"/>
      </g>
     </g>
     <g id="text_12">
      <text style="font-size: 12px; font-family: 'DejaVu Sans'; text-anchor: end; fill: #8b96a3" x="49.5325" y="92.246051" transform="rotate(-0 49.5325 92.246051)">0.06</text>
     </g>
    </g>
    <g id="ytick_5">
     <g id="line2d_25">
      <path d="M 56.5325 52.061969 
L 530.8325 52.061969 
" clip-path="url(#p0da220fde6)" style="fill: none; stroke: #2a323c; stroke-opacity: 0.35; stroke-width: 0.8; stroke-linecap: square"/>
     </g>
     <g id="line2d_26">
      <g>
       <use xlink:href="#mfd15d3a09d" x="56.5325" y="52.061969" style="fill: #8b96a3; stroke: #8b96a3; stroke-width: 0.8"/>
      </g>
     </g>
     <g id="text_13">
      <text style="font-size: 12px; font-family: 'DejaVu Sans'; text-anchor: end; fill: #8b96a3" x="49.5325" y="56.621032" transform="rotate(-0 49.5325 56.621032)">0.08</text>
     </g>
    </g>
    <g id="text_14">
     <text style="font-size: 12px; font-family: 'DejaVu Sans'; text-anchor: middle; fill: #8b96a3" x="16.318125" y="108.630047" transform="rotate(-90 16.318125 108.630047)">degraded ratio</text>
    </g>
   </g>
   <g id="FillBetweenPolyCollection_1">
    <defs>
     <path id="m058ac41976" d="M 116.051164 -26.340413 
L 116.051164 -25.592444 
L 117.024486 -25.593888 
L 117.997809 -25.596624 
L 118.971131 -25.6193 
L 119.944454 -25.620713 
L 120.917776 -25.51969 
L 121.891098 -25.535045 
L 122.864421 -24.102334 
L 123.837743 -24.116812 
L 124.811066 -24.132914 
L 142.330869 -24.190716 
L 143.304191 -24.313913 
L 144.277513 -21.446341 
L 145.250836 -21.714288 
L 146.224158 -21.895669 
L 147.197481 -21.865208 
L 148.170803 -21.84285 
L 149.144125 -22.125272 
L 150.117448 -22.098206 
L 151.09077 -22.231174 
L 152.064092 -22.487409 
L 153.037415 -21.654715 
L 154.010737 -21.654715 
L 154.98406 -21.654715 
L 155.957382 -22.053742 
L 156.930704 -21.995261 
L 157.904027 -22.107998 
L 158.877349 -22.107998 
L 159.850672 -22.107998 
L 160.823994 -22.176278 
L 161.797316 -22.442198 
L 162.770639 -22.582586 
L 163.743961 -22.70851 
L 164.717284 -23.05998 
L 165.690606 -23.216324 
L 166.663928 -22.903998 
L 167.637251 -22.925187 
L 168.610573 -23.226419 
L 169.583895 -23.070766 
L 170.557218 -22.94798 
L 171.53054 -23.263171 
L 172.503863 -23.450352 
L 173.477185 -22.988611 
L 174.450507 -22.988611 
L 175.42383 -22.988611 
L 176.397152 -22.987232 
L 177.370475 -22.976589 
L 178.343797 -22.942448 
L 179.317119 -22.724228 
L 180.290442 -23.453019 
L 181.263764 -23.453019 
L 182.237086 -23.453019 
L 183.210409 -23.170457 
L 184.183731 -23.47495 
L 185.157054 -23.411489 
L 186.130376 -23.550431 
L 187.103698 -23.674383 
L 188.077021 -23.769025 
L 189.050343 -23.770716 
L 190.023666 -23.639136 
L 190.996988 -23.876331 
L 191.97031 -23.569685 
L 192.943633 -23.614538 
L 193.916955 -23.673373 
L 194.890278 -23.992112 
L 195.8636 -24.383405 
L 196.836922 -24.217074 
L 197.810245 -24.217074 
L 198.783567 -24.172077 
L 199.756889 -24.2973 
L 200.730212 -24.3577 
L 201.703534 -24.3577 
L 202.676857 -24.591065 
L 203.650179 -24.483811 
L 204.623501 -24.605273 
L 205.596824 -24.730156 
L 206.570146 -24.007783 
L 207.543469 -24.226804 
L 208.516791 -24.4159 
L 209.490113 -24.4159 
L 210.463436 -24.430129 
L 211.436758 -24.38326 
L 212.410081 -24.716166 
L 214.356725 -24.83228 
L 215.330048 -24.69248 
L 216.30337 -24.615339 
L 217.276692 -24.398313 
L 218.250015 -24.203251 
L 219.223337 -23.866285 
L 220.19666 -23.866285 
L 221.169982 -23.633441 
L 222.143304 -23.448185 
L 223.116627 -23.378011 
L 224.089949 -23.323474 
L 364.248373 -23.76558 
L 365.221696 -24.018003 
L 366.195018 -24.139401 
L 367.16834 -11.53385 
L 368.141663 -12.411094 
L 369.114985 -12.935436 
L 370.088308 -13.553576 
L 371.06163 -13.850755 
L 372.034952 -13.423025 
L 373.008275 -13.826569 
L 373.981597 -13.772851 
L 374.954919 -13.445048 
L 375.928242 -14.387867 
L 376.901564 -14.970261 
L 377.874887 -14.395294 
L 378.848209 -14.042346 
L 379.821531 -13.578235 
L 380.794854 -14.347714 
L 381.768176 -14.721102 
L 382.741499 -14.944363 
L 383.714821 -13.895046 
L 384.688143 -13.117709 
L 385.661466 -12.902113 
L 386.634788 -13.748068 
L 387.608111 -14.747558 
L 388.581433 -15.266233 
L 389.554755 -14.905177 
L 390.528078 -15.675499 
L 391.5014 -15.245376 
L 392.474722 -15.000906 
L 393.448045 -15.025679 
L 394.421367 -26.307723 
L 395.39469 -26.279406 
L 396.368012 -26.512355 
L 397.341334 -25.662955 
L 398.314657 -25.718813 
L 399.287979 -25.573814 
L 400.261302 -25.041991 
L 401.234624 -24.628468 
L 402.207946 -24.604377 
L 403.181269 -23.891375 
L 404.154591 -23.88011 
L 405.127914 -23.676631 
L 406.101236 -23.734204 
L 407.074558 -24.369605 
L 408.047881 -24.335143 
L 409.021203 -24.731816 
L 409.994525 -25.345107 
L 410.967848 -26.091052 
L 411.94117 -25.718093 
L 412.914493 -26.438673 
L 413.887815 -25.868735 
L 414.861137 -25.383285 
L 415.83446 -25.545938 
L 416.807782 -26.290937 
L 417.781105 -25.580063 
L 418.754427 -25.753318 
L 419.727749 -25.99184 
L 420.701072 -26.363253 
L 421.674394 -26.558535 
L 422.647716 -26.432221 
L 423.621039 -24.677072 
L 424.594361 -25.74345 
L 425.567684 -26.009826 
L 426.541006 -26.140836 
L 427.514328 -26.163644 
L 428.487651 -25.319359 
L 429.460973 -25.477407 
L 430.434296 -26.305322 
L 431.407618 -26.295143 
L 432.38094 -26.306516 
L 433.354263 -26.545897 
L 434.327585 -26.572184 
L 437.247552 -25.257521 
L 438.220875 -25.533637 
L 439.194197 -24.409746 
L 440.167519 -23.961938 
L 441.140842 -24.536405 
L 442.114164 -24.808147 
L 443.087487 -24.088867 
L 444.060809 -23.211842 
L 445.034131 -22.749324 
L 446.007454 -21.363972 
L 446.980776 -21.262175 
L 447.954099 -21.230424 
L 448.927421 -22.338018 
L 449.900743 -22.227866 
L 450.874066 -21.404092 
L 451.847388 -20.9105 
L 452.820711 -21.034338 
L 453.794033 -20.445322 
L 454.767355 -19.838101 
L 455.740678 -19.79838 
L 456.714 -20.130102 
L 457.687322 -21.035702 
L 458.660645 -21.280399 
L 459.633967 -20.624549 
L 460.60729 -19.561006 
L 461.580612 -19.665893 
L 462.553934 -19.596571 
L 463.527257 -18.463934 
L 464.500579 -18.815939 
L 465.473902 -18.414677 
L 466.447224 -18.585081 
L 467.420546 -18.404633 
L 468.393869 -18.491885 
L 469.367191 -18.403624 
L 470.340514 -19.257157 
L 471.313836 -17.635246 
L 472.287158 -18.000938 
L 473.260481 -18.693376 
L 474.233803 -18.856376 
L 475.207125 -18.928728 
L 476.180448 -19.129672 
L 477.15377 -18.978558 
L 478.127093 -19.927214 
L 479.100415 -19.829048 
L 480.073737 -20.274679 
L 481.04706 -20.022073 
L 482.020382 -21.571891 
L 482.993705 -22.402298 
L 483.967027 -20.875734 
L 484.940349 -19.568247 
L 485.913672 -19.926986 
L 486.886994 -20.33551 
L 487.860317 -20.213145 
L 488.833639 -20.076459 
L 489.806961 -20.034735 
L 490.780284 -21.777402 
L 491.753606 -23.15814 
L 492.726928 -22.196864 
L 493.700251 -21.969198 
L 494.673573 -21.878073 
L 495.646896 -21.099824 
L 496.620218 -21.155109 
L 497.59354 -20.748091 
L 498.566863 -22.898664 
L 499.540185 -22.171332 
L 500.513508 -22.696799 
L 501.48683 -22.524958 
L 502.460152 -22.281168 
L 503.433475 -21.535291 
L 504.406797 -20.811526 
L 505.38012 -20.867939 
L 506.353442 -20.954675 
L 507.326764 -20.290787 
L 508.300087 -20.312247 
L 509.273409 -19.983286 
L 509.273409 -70.729949 
L 509.273409 -70.729949 
L 508.300087 -71.406123 
L 507.326764 -71.402136 
L 506.353442 -71.616151 
L 505.38012 -71.588378 
L 504.406797 -71.084969 
L 503.433475 -65.284638 
L 502.460152 -68.139433 
L 501.48683 -68.175555 
L 500.513508 -68.194562 
L 499.540185 -67.524046 
L 498.566863 -67.725509 
L 497.59354 -75.855996 
L 496.620218 -79.838489 
L 495.646896 -80.975248 
L 494.673573 -81.163964 
L 493.700251 -81.174625 
L 492.726928 -81.201423 
L 491.753606 -81.43613 
L 490.780284 -80.119545 
L 489.806961 -78.096139 
L 488.833639 -82.024059 
L 487.860317 -82.052775 
L 486.886994 -82.070366 
L 485.913672 -81.982684 
L 484.940349 -81.857941 
L 483.967027 -82.815187 
L 482.993705 -85.474563 
L 482.020382 -79.688895 
L 481.04706 -78.694069 
L 480.073737 -78.74682 
L 479.100415 -78.59446 
L 478.127093 -78.623525 
L 477.15377 -77.663699 
L 476.180448 -77.754326 
L 475.207125 -76.199466 
L 474.233803 -76.182755 
L 473.260481 -76.154907 
L 472.287158 -75.91855 
L 471.313836 -75.762589 
L 470.340514 -67.384648 
L 469.367191 -69.243315 
L 468.393869 -66.012419 
L 467.420546 -65.946992 
L 466.447224 -66.008285 
L 465.473902 -65.962395 
L 464.500579 -67.80042 
L 463.527257 -67.707112 
L 462.553934 -70.913093 
L 461.580612 -65.347339 
L 460.60729 -65.312271 
L 459.633967 -66.78065 
L 458.660645 -67.040871 
L 457.687322 -66.980211 
L 456.714 -65.722863 
L 455.740678 -61.72869 
L 454.767355 -61.739862 
L 453.794033 -61.972373 
L 452.820711 -62.490277 
L 451.847388 -67.665234 
L 450.874066 -67.998652 
L 449.900743 -69.910371 
L 448.927421 -70.00379 
L 447.954099 -69.062945 
L 446.980776 -69.069364 
L 446.007454 -69.082076 
L 445.034131 -70.470386 
L 444.060809 -70.644029 
L 443.087487 -72.044461 
L 442.114164 -65.078079 
L 441.140842 -64.840893 
L 440.167519 -64.690136 
L 439.194197 -64.891212 
L 438.220875 -65.510403 
L 437.247552 -63.712633 
L 434.327585 -64.573641 
L 433.354263 -61.177381 
L 432.38094 -61.162298 
L 431.407618 -61.160948 
L 430.434296 -60.998091 
L 429.460973 -60.782702 
L 428.487651 -60.775347 
L 427.514328 -62.399367 
L 426.541006 -62.396728 
L 425.567684 -62.387783 
L 424.594361 -62.297909 
L 423.621039 -61.799331 
L 422.647716 -56.061814 
L 421.674394 -56.520768 
L 420.701072 -53.764263 
L 419.727749 -53.372283 
L 418.754427 -53.35634 
L 417.781105 -53.338747 
L 416.807782 -53.671176 
L 415.83446 -51.591621 
L 414.861137 -51.436193 
L 413.887815 -49.602082 
L 412.914493 -50.139063 
L 411.94117 -49.85451 
L 410.967848 -49.952309 
L 409.994525 -49.591334 
L 409.021203 -51.642349 
L 408.047881 -51.186566 
L 407.074558 -50.872194 
L 406.101236 -50.591523 
L 405.127914 -50.58548 
L 404.154591 -50.674634 
L 403.181269 -48.894842 
L 402.207946 -50.446573 
L 401.234624 -50.447928 
L 400.261302 -48.851146 
L 399.287979 -49.37535 
L 398.314657 -49.395753 
L 397.341334 -49.375272 
L 396.368012 -50.128998 
L 395.39469 -49.725786 
L 394.421367 -49.443004 
L 393.448045 -70.916348 
L 392.474722 -70.902952 
L 391.5014 -70.976563 
L 390.528078 -71.144431 
L 389.554755 -70.75694 
L 388.581433 -70.879366 
L 387.608111 -70.672818 
L 386.634788 -69.941949 
L 385.661466 -69.38835 
L 384.688143 -69.465388 
L 383.714821 -70.711043 
L 382.741499 -71.49387 
L 381.768176 -70.3303 
L 380.794854 -70.194759 
L 379.821531 -69.437452 
L 378.848209 -69.634948 
L 377.874887 -69.765483 
L 376.901564 -70.322883 
L 375.928242 -70.065544 
L 374.954919 -68.998094 
L 373.981597 -69.128327 
L 373.008275 -69.24001 
L 372.034952 -68.892884 
L 371.06163 -69.152209 
L 370.088308 -69.042244 
L 369.114985 -68.464401 
L 368.141663 -68.199904 
L 367.16834 -67.397682 
L 366.195018 -44.11735 
L 365.221696 -44.022452 
L 364.248373 -43.956795 
L 224.089949 -43.724571 
L 223.116627 -43.73365 
L 222.143304 -43.803431 
L 221.169982 -43.847192 
L 220.19666 -43.906982 
L 219.223337 -43.906982 
L 218.250015 -44.33341 
L 217.276692 -41.54281 
L 216.30337 -40.75324 
L 215.330048 -39.022081 
L 214.356725 -39.047682 
L 212.410081 -38.985671 
L 211.436758 -38.720586 
L 210.463436 -38.800949 
L 209.490113 -37.097543 
L 208.516791 -37.097543 
L 207.543469 -37.032175 
L 206.570146 -36.856775 
L 205.596824 -34.429491 
L 204.623501 -34.159954 
L 203.650179 -33.314451 
L 202.676857 -34.199608 
L 201.703534 -34.013107 
L 200.730212 -34.013107 
L 199.756889 -33.997168 
L 198.783567 -35.534669 
L 197.810245 -35.655073 
L 196.836922 -35.655073 
L 195.8636 -35.71776 
L 194.890278 -37.941197 
L 193.916955 -37.661945 
L 192.943633 -37.631717 
L 191.97031 -37.600231 
L 190.996988 -38.54046 
L 190.023666 -37.88703 
L 189.050343 -37.933576 
L 188.077021 -37.082811 
L 187.103698 -37.037497 
L 186.130376 -36.996047 
L 185.157054 -36.944141 
L 184.183731 -36.969742 
L 183.210409 -36.663521 
L 182.237086 -37.487879 
L 181.263764 -37.487879 
L 180.290442 -37.487879 
L 179.317119 -40.621359 
L 178.343797 -40.823006 
L 177.370475 -40.839756 
L 176.397152 -40.841837 
L 175.42383 -40.865905 
L 174.450507 -40.865905 
L 173.477185 -40.865905 
L 172.503863 -41.676485 
L 171.53054 -40.794916 
L 170.557218 -42.776849 
L 169.583895 -42.806742 
L 168.610573 -42.905553 
L 167.637251 -41.311025 
L 166.663928 -41.306768 
L 165.690606 -41.605156 
L 164.717284 -41.557929 
L 163.743961 -40.789756 
L 162.770639 -40.750277 
L 161.797316 -40.699817 
L 160.823994 -40.558594 
L 159.850672 -40.537811 
L 158.877349 -40.537811 
L 157.904027 -40.537811 
L 156.930704 -40.49787 
L 155.957382 -40.515728 
L 154.98406 -39.807835 
L 154.010737 -39.807835 
L 153.037415 -39.807835 
L 152.064092 -36.75329 
L 151.09077 -36.644647 
L 150.117448 -36.796798 
L 149.144125 -37.057701 
L 148.170803 -36.429491 
L 147.197481 -36.709171 
L 146.224158 -37.009514 
L 145.250836 -35.773527 
L 144.277513 -35.843663 
L 143.304191 -29.82713 
L 142.330869 -29.846712 
L 124.811066 -29.20904 
L 123.837743 -29.339439 
L 122.864421 -29.484542 
L 121.891098 -26.585725 
L 120.917776 -26.612497 
L 119.944454 -26.233492 
L 118.971131 -26.257575 
L 117.997809 -26.268376 
L 117.024486 -26.3008 
L 116.051164 -26.340413 
z
"/>
    </defs>
    <g clip-path="url(#p0da220fde6)">
     <use xlink:href="#m058ac41976" x="0" y="220.375797" style="fill: #3a6690; fill-opacity: 0.28"/>
    </g>
   </g>
   <g id="line2d_27">
    <path d="M 116.051164 194.409368 
L 119.944454 194.448695 
L 120.917776 194.309703 
L 121.891098 194.315412 
L 122.864421 193.582359 
L 124.811066 193.70482 
L 143.304191 193.305275 
L 144.277513 191.730795 
L 145.250836 191.631889 
L 146.224158 190.923206 
L 148.170803 191.239627 
L 149.144125 190.78431 
L 150.117448 190.928295 
L 151.09077 190.937886 
L 152.064092 190.755448 
L 153.037415 189.644522 
L 154.98406 189.644522 
L 155.957382 189.091062 
L 156.930704 189.129231 
L 158.877349 189.052892 
L 160.823994 189.008361 
L 162.770639 188.709365 
L 163.743961 188.626664 
L 164.717284 188.066842 
L 165.690606 187.965057 
L 166.663928 188.270414 
L 167.637251 188.257691 
L 168.610573 187.309811 
L 170.557218 187.513382 
L 171.53054 188.346753 
L 172.503863 187.812378 
L 173.477185 188.448539 
L 178.343797 188.49307 
L 179.317119 188.703004 
L 180.290442 189.905348 
L 182.237086 189.905348 
L 183.210409 190.458808 
L 184.183731 190.153451 
L 185.157054 190.197982 
L 188.077021 189.949879 
L 189.050343 189.523651 
L 190.023666 189.612714 
L 190.996988 189.167401 
L 191.97031 189.790839 
L 193.916955 189.708138 
L 194.890278 189.409142 
L 195.8636 190.325214 
L 196.836922 190.439723 
L 198.783567 190.522424 
L 199.756889 191.228563 
L 201.703534 191.190393 
L 202.676857 190.98046 
L 203.650179 191.476666 
L 204.623501 190.993183 
L 205.596824 190.795973 
L 206.570146 189.943518 
L 208.516791 189.619075 
L 209.490113 189.619075 
L 210.463436 188.760258 
L 211.436758 188.823874 
L 212.410081 188.524878 
L 214.356725 188.435816 
L 215.330048 188.518517 
L 216.30337 187.691507 
L 217.276692 187.405235 
L 218.250015 186.107466 
L 219.223337 186.489163 
L 220.19666 186.489163 
L 223.116627 186.819967 
L 224.089949 186.851775 
L 364.248373 186.514609 
L 366.195018 186.247422 
L 367.16834 180.91003 
L 368.141663 180.070298 
L 369.114985 179.675878 
L 370.088308 179.077887 
L 371.06163 178.874315 
L 372.034952 179.217842 
L 373.008275 178.842507 
L 373.981597 178.925208 
L 374.954919 179.154226 
L 375.928242 178.149091 
L 376.901564 177.729225 
L 377.874887 178.295409 
L 379.821531 178.867953 
L 380.794854 178.10456 
L 381.768176 177.850096 
L 382.741499 177.15668 
L 384.688143 179.084248 
L 385.661466 179.230565 
L 386.634788 178.530788 
L 387.608111 177.665609 
L 388.581433 177.302997 
L 389.554755 177.544738 
L 390.528078 176.965832 
L 391.5014 177.264828 
L 392.474722 177.423868 
L 393.448045 177.404783 
L 394.421367 182.500433 
L 395.39469 182.373201 
L 396.368012 182.05512 
L 397.341334 182.856683 
L 398.314657 182.818514 
L 399.287979 182.901215 
L 400.261302 183.429228 
L 401.234624 182.837599 
L 402.207946 182.850322 
L 403.181269 183.982688 
L 404.154591 183.098425 
L 405.127914 183.244742 
L 406.101236 183.212934 
L 407.074558 182.754898 
L 408.047881 182.614942 
L 409.021203 182.188714 
L 409.994525 182.907576 
L 410.967848 182.354116 
L 411.94117 182.589496 
L 412.914493 182.086928 
L 413.887815 182.640389 
L 414.861137 181.966058 
L 415.83446 181.807018 
L 416.807782 180.39474 
L 417.781105 180.916392 
L 419.727749 180.693736 
L 420.701072 180.312039 
L 421.674394 178.836145 
L 422.647716 179.12878 
L 423.621039 177.137595 
L 424.594361 176.355117 
L 426.541006 176.107014 
L 427.514328 176.094291 
L 428.487651 177.328444 
L 429.460973 177.245743 
L 430.434296 176.724091 
L 433.354263 176.514158 
L 434.327585 174.802884 
L 437.247552 175.89072 
L 438.220875 174.853777 
L 439.194197 175.725318 
L 440.167519 176.04976 
L 442.114164 175.432684 
L 443.087487 172.309133 
L 444.060809 173.447861 
L 445.034131 173.765942 
L 446.007454 175.152773 
L 447.954099 175.229112 
L 448.927421 174.204893 
L 449.900743 174.306679 
L 450.874066 175.674425 
L 451.847388 176.08793 
L 452.820711 178.613489 
L 453.794033 179.166949 
L 454.767355 179.586815 
L 455.740678 179.612262 
L 456.714 177.449314 
L 457.687322 176.367841 
L 458.660645 176.215162 
L 459.633967 176.673198 
L 460.60729 177.939158 
L 461.580612 177.869181 
L 462.553934 175.120965 
L 463.527257 177.290274 
L 464.500579 177.067618 
L 465.473902 178.187261 
L 466.447224 178.079114 
L 467.420546 178.199984 
L 468.393869 178.123645 
L 469.367191 176.552327 
L 470.340514 177.054894 
L 471.313836 173.676879 
L 472.287158 173.416053 
L 473.260481 172.951656 
L 475.207125 172.8117 
L 476.180448 171.933798 
L 477.15377 172.054669 
L 478.127093 171.100427 
L 479.100415 171.164043 
L 480.073737 170.865047 
L 481.04706 171.017726 
L 482.020382 169.745404 
L 482.993705 166.437366 
L 483.967027 168.530336 
L 484.940349 169.662703 
L 486.886994 169.172859 
L 488.833639 169.325538 
L 489.806961 171.31036 
L 490.780284 169.427323 
L 491.753606 168.078662 
L 492.726928 168.676653 
L 494.673573 168.854778 
L 496.620218 169.878998 
L 497.59354 172.073753 
L 498.566863 175.06371 
L 499.540185 175.528108 
L 500.513508 174.930117 
L 502.460152 175.165496 
L 503.433475 176.965832 
L 504.406797 174.427549 
L 505.38012 174.147638 
L 506.353442 174.090384 
L 507.326764 174.529335 
L 508.300087 174.516612 
L 509.273409 175.019179 
L 509.273409 175.019179 
" clip-path="url(#p0da220fde6)" style="fill: none; stroke: #3a6690; stroke-opacity: 0.8; stroke-linecap: square"/>
   </g>
   <g id="line2d_28">
    <path d="M 78.091591 194.562047 
L 80.038236 194.562047 
L 81.011558 193.493296 
L 81.98488 194.562047 
L 117.997809 194.562047 
L 118.971131 194.383922 
L 119.944454 194.562047 
L 120.917776 192.780796 
L 121.891098 194.383922 
L 122.864421 184.052666 
L 123.837743 194.562047 
L 124.811066 194.562047 
L 142.330869 187.793293 
L 143.304191 192.424546 
L 144.277513 163.390155 
L 145.250836 189.752669 
L 146.224158 176.749537 
L 147.197481 194.562047 
L 148.170803 194.562047 
L 149.144125 180.312039 
L 150.117448 194.383922 
L 151.09077 191.17767 
L 152.064092 186.012042 
L 153.037415 159.649528 
L 154.010737 194.562047 
L 154.98406 194.562047 
L 155.957382 179.065163 
L 156.930704 194.562047 
L 157.904027 192.424546 
L 158.877349 194.562047 
L 159.850672 194.562047 
L 160.823994 193.315171 
L 161.797316 188.862044 
L 162.770639 191.712045 
L 163.743961 192.246421 
L 164.717284 177.105787 
L 165.690606 191.53392 
L 166.663928 192.602671 
L 167.637251 194.205797 
L 168.610573 168.021407 
L 169.583895 191.355795 
L 170.557218 194.562047 
L 171.53054 186.724543 
L 172.503863 174.790161 
L 173.477185 194.562047 
L 175.42383 194.562047 
L 176.397152 180.668289 
L 177.370475 194.562047 
L 178.343797 191.89017 
L 179.317119 191.89017 
L 181.263764 194.562047 
L 183.210409 194.562047 
L 184.183731 186.012042 
L 185.157054 193.671421 
L 186.130376 191.89017 
L 187.103698 192.246421 
L 188.077021 191.355795 
L 189.050343 176.927662 
L 190.023666 194.205797 
L 190.996988 179.777664 
L 191.97031 194.562047 
L 192.943633 190.46517 
L 193.916955 191.355795 
L 194.890278 185.833917 
L 195.8636 193.671421 
L 196.836922 194.562047 
L 197.810245 194.562047 
L 198.783567 189.040169 
L 199.756889 194.562047 
L 200.730212 193.493296 
L 201.703534 194.562047 
L 202.676857 188.683919 
L 203.650179 194.562047 
L 204.623501 181.024539 
L 205.596824 186.368292 
L 206.570146 168.021407 
L 207.543469 187.793293 
L 209.490113 194.562047 
L 210.463436 170.515159 
L 211.436758 187.793293 
L 212.410081 185.299542 
L 214.356725 189.396419 
L 215.330048 194.562047 
L 216.30337 168.199532 
L 217.276692 168.912033 
L 218.250015 157.868277 
L 219.223337 190.46517 
L 220.19666 194.562047 
L 222.143304 194.562047 
L 223.116627 187.793293 
L 224.089949 194.562047 
L 364.248373 185.121417 
L 365.221696 190.108919 
L 366.195018 186.012042 
L 367.16834 45.11509 
L 368.141663 169.980783 
L 369.114985 183.518291 
L 370.088308 171.94016 
L 371.06163 188.862044 
L 372.034952 190.643295 
L 373.008275 175.858912 
L 373.981597 170.337034 
L 374.954919 194.205797 
L 375.928242 162.85578 
L 376.901564 182.80579 
L 377.874887 186.368292 
L 378.848209 194.562047 
L 379.821531 194.562047 
L 380.794854 168.021407 
L 381.768176 187.437043 
L 382.741499 148.783897 
L 383.714821 194.562047 
L 384.688143 186.190167 
L 385.661466 194.562047 
L 386.634788 174.968286 
L 387.608111 170.337034 
L 388.581433 184.408916 
L 389.554755 194.562047 
L 390.528078 178.352663 
L 391.5014 193.493296 
L 392.474722 194.562047 
L 393.448045 185.477667 
L 394.421367 187.793293 
L 395.39469 166.418282 
L 396.368012 174.612036 
L 397.341334 194.383922 
L 398.314657 187.793293 
L 399.287979 192.958921 
L 400.261302 190.643295 
L 401.234624 153.7714 
L 402.207946 194.562047 
L 403.181269 194.562047 
L 404.154591 158.046402 
L 405.127914 190.46517 
L 406.101236 193.671421 
L 407.074558 181.73704 
L 408.047881 164.102655 
L 409.021203 175.502661 
L 409.994525 168.912033 
L 410.967848 179.065163 
L 411.94117 192.780796 
L 412.914493 180.490164 
L 413.887815 190.46517 
L 414.861137 151.455773 
L 415.83446 179.955789 
L 416.807782 155.018275 
L 417.781105 192.958921 
L 418.754427 190.82142 
L 419.727749 190.999545 
L 420.701072 174.790161 
L 421.674394 146.468271 
L 422.647716 174.612036 
L 423.621039 118.858881 
L 424.594361 172.474535 
L 425.567684 182.80579 
L 426.541006 190.999545 
L 427.514328 190.287045 
L 428.487651 188.327668 
L 429.460973 192.246421 
L 430.434296 179.955789 
L 431.407618 155.908901 
L 432.38094 190.287045 
L 433.354263 190.108919 
L 434.327585 133.821389 
L 437.247552 194.562047 
L 438.220875 146.468271 
L 439.194197 193.315171 
L 441.140842 182.627665 
L 442.114164 173.36516 
L 443.087487 103.005747 
L 444.060809 183.340166 
L 446.007454 193.849546 
L 446.980776 194.562047 
L 447.954099 191.355795 
L 448.927421 162.321404 
L 449.900743 177.640163 
L 450.874066 184.765167 
L 451.847388 186.190167 
L 452.820711 189.574544 
L 453.794033 187.971418 
L 454.767355 194.562047 
L 455.740678 191.712045 
L 456.714 129.724512 
L 458.660645 187.971418 
L 459.633967 192.780796 
L 460.60729 191.355795 
L 461.580612 188.327668 
L 462.553934 113.158877 
L 463.527257 194.562047 
L 464.500579 188.327668 
L 465.473902 177.818288 
L 466.447224 190.287045 
L 467.420546 191.53392 
L 468.393869 180.490164 
L 469.367191 129.368261 
L 470.340514 117.07763 
L 471.313836 88.755739 
L 472.287158 181.558915 
L 473.260481 180.846414 
L 474.233803 191.89017 
L 475.207125 190.108919 
L 476.180448 137.740141 
L 477.15377 181.024539 
L 478.127093 158.046402 
L 479.100415 187.971418 
L 480.073737 181.202665 
L 481.04706 192.246421 
L 482.020382 158.937027 
L 482.993705 99.086995 
L 483.967027 188.327668 
L 484.940349 189.752669 
L 485.913672 181.202665 
L 486.886994 185.833917 
L 487.860317 193.315171 
L 488.833639 190.643295 
L 489.806961 168.733908 
L 490.780284 141.837018 
L 491.753606 150.565148 
L 492.726928 194.562047 
L 493.700251 193.849546 
L 494.673573 192.958921 
L 495.646896 194.027672 
L 496.620218 144.508895 
L 497.59354 178.530788 
L 498.566863 172.474535 
L 499.540185 194.562047 
L 500.513508 164.102655 
L 501.48683 194.562047 
L 502.460152 194.027672 
L 503.433475 188.149543 
L 504.406797 109.952626 
L 506.353442 186.368292 
L 507.326764 193.493296 
L 508.300087 191.89017 
L 509.273409 173.00891 
L 509.273409 173.00891 
" clip-path="url(#p0da220fde6)" style="fill: none; stroke: #35e0d0; stroke-width: 1.7; stroke-linecap: square"/>
   </g>
   <g id="line2d_29">
    <path d="M 442.114164 194.562047 
L 442.114164 22.698047 
" clip-path="url(#p0da220fde6)" style="fill: none; stroke: #ffcf5c; stroke-opacity: 0.5; stroke-width: 0.8; stroke-linecap: square"/>
   </g>
   <g id="line2d_30">
    <defs>
     <path id="m7d8400bda8" d="M 0 3 
C 0.795609 3 1.55874 2.683901 2.12132 2.12132 
C 2.683901 1.55874 3 0.795609 3 0 
C 3 -0.795609 2.683901 -1.55874 2.12132 -2.12132 
C 1.55874 -2.683901 0.795609 -3 0 -3 
C -0.795609 -3 -1.55874 -2.683901 -2.12132 -2.12132 
C -2.683901 -1.55874 -3 -0.795609 -3 0 
C -3 0.795609 -2.683901 1.55874 -2.12132 2.12132 
C -1.55874 2.683901 -0.795609 3 0 3 
z
" style="stroke: #0a0c0f"/>
    </defs>
    <g clip-path="url(#p0da220fde6)">
     <use xlink:href="#m7d8400bda8" x="442.114164" y="173.36516" style="fill: #ffcf5c; stroke: #0a0c0f"/>
    </g>
   </g>
   <g id="patch_3">
    <path d="M 56.5325 194.562047 
L 56.5325 22.698047 
" style="fill: none; stroke: #2a323c; stroke-width: 0.8; stroke-linejoin: miter; stroke-linecap: square"/>
   </g>
   <g id="patch_4">
    <path d="M 530.8325 194.562047 
L 530.8325 22.698047 
" style="fill: none; stroke: #2a323c; stroke-width: 0.8; stroke-linejoin: miter; stroke-linecap: square"/>
   </g>
   <g id="patch_5">
    <path d="M 56.5325 194.562047 
L 530.8325 194.562047 
" style="fill: none; stroke: #2a323c; stroke-width: 0.8; stroke-linejoin: miter; stroke-linecap: square"/>
   </g>
   <g id="patch_6">
    <path d="M 56.5325 22.698047 
L 530.8325 22.698047 
" style="fill: none; stroke: #2a323c; stroke-width: 0.8; stroke-linejoin: miter; stroke-linecap: square"/>
   </g>
   <g id="text_15">
    <text style="font-size: 12.5px; font-family: 'DejaVu Sans'; text-anchor: start; fill: #e6ebf0" x="56.5325" y="16.698047" transform="rotate(-0 56.5325 16.698047)">US Southwest Test Ranges: daily degraded ratio with 28-day baseline</text>
   </g>
   <g id="legend_1">
    <g id="patch_7">
     <path d="M 369.153125 56.318672 
L 524.5325 56.318672 
Q 526.3325 56.318672 526.3325 54.518672 
L 526.3325 28.998047 
Q 526.3325 27.198047 524.5325 27.198047 
L 369.153125 27.198047 
Q 367.353125 27.198047 367.353125 28.998047 
L 367.353125 54.518672 
Q 367.353125 56.318672 369.153125 56.318672 
L 369.153125 56.318672 
z
" style="fill: none; opacity: 0"/>
    </g>
    <g id="patch_8">
     <path d="M 370.953125 37.636641 
L 388.953125 37.636641 
L 388.953125 31.336641 
L 370.953125 31.336641 
z
" style="fill: #3a6690; fill-opacity: 0.28"/>
    </g>
    <g id="text_16">
     <text style="font-size: 9px; font-family: 'DejaVu Sans'; text-anchor: start; fill: #8b96a3" x="396.153125" y="37.636641" transform="rotate(-0 396.153125 37.636641)">28-day baseline ±1σ</text>
    </g>
    <g id="line2d_31">
     <path d="M 370.953125 47.696953 
L 379.953125 47.696953 
L 388.953125 47.696953 
" style="fill: none; stroke: #35e0d0; stroke-width: 1.7; stroke-linecap: square"/>
    </g>
    <g id="text_17">
     <text style="font-size: 9px; font-family: 'DejaVu Sans'; text-anchor: start; fill: #8b96a3" x="396.153125" y="50.846953" transform="rotate(-0 396.153125 50.846953)">degraded ratio (daily mean)</text>
    </g>
   </g>
  </g>
 </g>
 <defs>
  <clipPath id="p0da220fde6">
   <rect x="56.5325" y="22.698047" width="474.3" height="171.864"/>
  </clipPath>
 </defs>
</svg>
