<?xml version="1.0" encoding="utf-8" standalone="no"?>
<!DOCTYPE svg PUBLIC "-//W3C//DTD SVG 1.1//EN"
  "http://www.w3.org/Graphics/SVG/1.1/DTD/svg11.dtd">
<svg xmlns:xlink="http://www.w3.org/1999/xlink" width="530.3975pt" height="220.375797pt" viewBox="0 0 530.3975 220.375797" xmlns="http://www.w3.org/2000/svg" version="1.1">
 <metadata>
  <rdf:RDF xmlns:dc="http://purl.org/dc/elements/1.1/" xmlns:cc="http://creativecommons.org/ns#" xmlns:rdf="http://www.w3.org/1999/02/22-rdf-syntax-ns#">
   <cc:Work>
    <dc:type rdf:resource="http://purl.org/dc/dcmitype/StillImage"/>
    <dc:date>2026-07-19T21:23:10.852139</dc:date>
    <dc:format>image/svg+xml</dc:format>
    <dc:creator>
     <cc:Agent>
      <dc:title>Matplotlib v3.10.8, https://matplotlib.org/</dc:title>
     </cc:Agent>
    </dc:creator>
   </cc:Work>
  </rdf:RDF>
 </metadata>
 <defs>
  <style type="text/css">*{stroke-linejoin: round; stroke-linecap: butt}</style>
 </defs>
 <g id="figure_1">
  <g id="patch_1">
   <path d="M 0 220.375797 
L 530.3975 220.375797 
L 530.3975 0 
L 0 0 
z
" style="fill: #0a0c0f"/>
  </g>
  <g id="axes_1">
   <g id="patch_2">
    <path d="M 48.8975 194.562047 
L 523.1975 194.562047 
L 523.1975 22.698047 
L 48.8975 22.698047 
z
" style="fill: #10141a"/>
   </g>
   <g id="matplotlib.axis_1">
    <g id="xtick_1">
     <g id="line2d_1">
      <path d="M 62.407864 194.562047 
L 62.407864 22.698047 
" clip-path="url(#pd3cf7513aa)" style="fill: none; stroke: #2a323c; stroke-opacity: 0.35; stroke-width: 0.8; stroke-linecap: square"/>
     </g>
     <g id="line2d_2">
      <defs>
       <path id="m816af44699" d="M 0 0 
L 0 3.5 
" style="stroke: #8b96a3; stroke-width: 0.8"/>
      </defs>
      <g>
       <use xlink:href="#m816af44699" x="62.407864" y="194.562047" style="fill: #8b96a3; stroke: #8b96a3; stroke-width: 0.8"/>
      </g>
     </g>
     <g id="text_1">
      <text style="font-size: 12px; font-family: 'DejaVu Sans'; text-anchor: middle; fill: #8b96a3" x="62.407864" y="210.680172" transform="rotate(-0 62.407864 210.680172)">Jul 01</text>
     </g>
    </g>
    <g id="xtick_2">
     <g id="line2d_3">
      <path d="M 133.696591 194.562047 
L 133.696591 22.698047 
" clip-path="url(#pd3cf7513aa)" style="fill: none; stroke: #2a323c; stroke-opacity: 0.35; stroke-width: 0.8; stroke-linecap: square"/>
     </g>
     <g id="line2d_4">
      <g>
       <use xlink:href="#m816af44699" x="133.696591" y="194.562047" style="fill: #8b96a3; stroke: #8b96a3; stroke-width: 0.8"/>
      </g>
     </g>
     <g id="text_2">
      <text style="font-size: 12px; font-family: 'DejaVu Sans'; text-anchor: middle; fill: #8b96a3" x="133.696591" y="210.680172" transform="rotate(-0 133.696591 210.680172)">Sep 01</text>
     </g>
    </g>
    <g id="xtick_3">
     <g id="line2d_5">
      <path d="M 203.8355 194.562047 
L 203.8355 22.698047 
" clip-path="url(#pd3cf7513aa)" style="fill: none; stroke: #2a323c; stroke-opacity: 0.35; stroke-width: 0.8; stroke-linecap: square"/>
     </g>
     <g id="line2d_6">
      <g>
       <use xlink:href="#m816af44699" x="203.8355" y="194.562047" style="fill: #8b96a3; stroke: #8b96a3; stroke-width: 0.8"/>
      </g>
     </g>
     <g id="text_3">
      <text style="font-size: 12px; font-family: 'DejaVu Sans'; text-anchor: middle; fill: #8b96a3" x="203.8355" y="210.680172" transform="rotate(-0 203.8355 210.680172)">Nov 01</text>
     </g>
    </g>
    <g id="xtick_4">
     <g id="line2d_7">
      <path d="M 273.974409 194.562047 
L 273.974409 22.698047 
" clip-path="url(#pd3cf7513aa)" style="fill: none; stroke: #2a323c; stroke-opacity: 0.35; stroke-width: 0.8; stroke-linecap: square"/>
     </g>
     <g id="line2d_8">
      <g>
       <use xlink:href="#m816af44699" x="273.974409" y="194.562047" style="fill: #8b96a3; stroke: #8b96a3; stroke-width: 0.8"/>
      </g>
     </g>
     <g id="text_4">
      <text style="font-size: 12px; font-family: 'DejaVu Sans'; text-anchor: middle; fill: #8b96a3" x="273.974409" y="210.680172" transform="rotate(-0 273.974409 210.680172)">Jan 01</text>
     </g>
    </g>
    <g id="xtick_5">
     <g id="line2d_9">
      <path d="M 341.813682 194.562047 
L 341.813682 22.698047 
" clip-path="url(#pd3cf7513aa)" style="fill: none; stroke: #2a323c; stroke-opacity: 0.35; stroke-width: 0.8; stroke-linecap: square"/>
     </g>
     <g id="line2d_10">
      <g>
       <use xlink:href="#m816af44699" x="341.813682" y="194.562047" style="fill: #8b96a3; stroke: #8b96a3; stroke-width: 0.8"/>
      </g>
     </g>
     <g id="text_5">
      <text style="font-size: 12px; font-family: 'DejaVu Sans'; text-anchor: middle; fill: #8b96a3" x="341.813682" y="210.680172" transform="rotate(-0 341.813682 210.680172)">Mar 01</text>
     </g>
    </g>
    <g id="xtick_6">
     <g id="line2d_11">
      <path d="M 411.952591 194.562047 
L 411.952591 22.698047 
" clip-path="url(#pd3cf7513aa)" style="fill: none; stroke: #2a323c; stroke-opacity: 0.35; stroke-width: 0.8; stroke-linecap: square"/>
     </g>
     <g id="line2d_12">
      <g>
       <use xlink:href="#m816af44699" x="411.952591" y="194.562047" style="fill: #8b96a3; stroke: #8b96a3; stroke-width: 0.8"/>
      </g>
     </g>
     <g id="text_6">
      <text style="font-size: 12px; font-family: 'DejaVu Sans'; text-anchor: middle; fill: #8b96a3" x="411.952591" y="210.680172" transform="rotate(-0 411.952591 210.680172)">May 01</text>
     </g>
    </g>
    <g id="xtick_7">
     <g id="line2d_13">
      <path d="M 482.0915 194.562047 
L 482.0915 22.698047 
" clip-path="url(#pd3cf7513aa)" style="fill: none; stroke: #2a323c; stroke-opacity: 0.35; stroke-width: 0.8; stroke-linecap: square"/>
     </g>
     <g id="line2d_14">
      <g>
       <use xlink:href="#m816af44699" x="482.0915" y="194.562047" style="fill: #8b96a3; stroke: #8b96a3; stroke-width: 0.8"/>
      </g>
     </g>
     <g id="text_7">
      <text style="font-size: 12px; font-family: 'DejaVu Sans'; text-anchor: middle; fill: #8b96a3" x="482.0915" y="210.680172" transform="rotate(-0 482.0915 210.680172)">Jul 01</text>
     </g>
    </g>
   </g>
   <g id="matplotlib.axis_2">
    <g id="ytick_1">
     <g id="line2d_15">
      <path d="M 48.8975 194.562047 
L 523.1975 194.562047 
" clip-path="url(#pd3cf7513aa)" style="fill: none; stroke: #2a323c; stroke-opacity: 0.35; stroke-width: 0.8; stroke-linecap: square"/>
     </g>
     <g id="line2d_16">
      <defs>
       <path id="m4fc93448fa" d="M 0 0 
L -3.5 0 
" style="stroke: #8b96a3; stroke-width: 0.8"/>
      </defs>
      <g>
       <use xlink:href="#m4fc93448fa" x="48.8975" y="194.562047" style="fill: #8b96a3; stroke: #8b96a3; stroke-width: 0.8"/>
      </g>
     </g>
     <g id="text_8">
      <text style="font-size: 12px; font-family: 'DejaVu Sans'; text-anchor: end; fill: #8b96a3" x="41.8975" y="199.121109" transform="rotate(-0 41.8975 199.121109)">0.0</text>
     </g>
    </g>
    <g id="ytick_2">
     <g id="line2d_17">
      <path d="M 48.8975 166.716517 
L 523.1975 166.716517 
" clip-path="url(#pd3cf7513aa)" style="fill: none; stroke: #2a323c; stroke-opacity: 0.35; stroke-width: 0.8; stroke-linecap: square"/>
     </g>
     <g id="line2d_18">
      <g>
       <use xlink:href="#m4fc93448fa" x="48.8975" y="166.716517" style="fill: #8b96a3; stroke: #8b96a3; stroke-width: 0.8"/>
      </g>
     </g>
     <g id="text_9">
      <text style="font-size: 12px; font-family: 'DejaVu Sans'; text-anchor: end; fill: #8b96a3" x="41.8975" y="171.27558" transform="rotate(-0 41.8975 171.27558)">0.1</text>
     </g>
    </g>
    <g id="ytick_3">
     <g id="line2d_19">
      <path d="M 48.8975 138.870988 
L 523.1975 138.870988 
" clip-path="url(#pd3cf7513aa)" style="fill: none; stroke: #2a323c; stroke-opacity: 0.35; stroke-width: 0.8; stroke-linecap: square"/>
     </g>
     <g id="line2d_20">
      <g>
       <use xlink:href="#m4fc93448fa" x="48.8975" y="138.870988" style="fill: #8b96a3; stroke: #8b96a3; stroke-width: 0.8"/>
      </g>
     </g>
     <g id="text_10">
      <text style="font-size: 12px; font-family: 'DejaVu Sans'; text-anchor: end; fill: #8b96a3" x="41.8975" y="143.43005" transform="rotate(-0 41.8975 143.43005)">0.2</text>
     </g>
    </g>
    <g id="ytick_4">
     <g id="line2d_21">
      <path d="M 48.8975 111.025459 
L 523.1975 111.025459 
" clip-path="url(#pd3cf7513aa)" style="fill: none; stroke: #2a323c; stroke-opacity: 0.35; stroke-width: 0.8; stroke-linecap: square"/>
     </g>
     <g id="line2d_22">
      <g>
       <use xlink:href="#m4fc93448fa" x="48.8975" y="111.025459" style="fill: #8b96a3; stroke: #8b96a3; stroke-width: 0.8"/>
      </g>
     </g>
     <g id="text_11">
      <text style="font-size: 12px; font-family: 'DejaVu Sans'; text-anchor: end; fill: #8b96a3" x="41.8975" y="115.584521" transform="rotate(-0 41.8975 115.584521)">0.3</text>
     </g>
    </g>
    <g id="ytick_5">
     <g id="line2d_23">
      <path d="M 48.8975 83.179929 
L 523.1975 83.179929 
" clip-path="url(#pd3cf7513aa)" style="fill: none; stroke: #2a323c; stroke-opacity: 0.35; stroke-width: 0.8; stroke-linecap: square"/>
     </g>
     <g id="line2d_24">
      <g>
       <use xlink:href="#m4fc93448fa" x="48.8975" y="83.179929" style="fill: #8b96a3; stroke: #8b96a3; stroke-width: 0.8"/>
      </g>
     </g>
     <g id="text_12">
      <text style="font-size: 12px; font-family: 'DejaVu Sans'; text-anchor: end; fill: #8b96a3" x="41.8975" y="87.738992" transform="rotate(-0 41.8975 87.738992)">0.4</text>
     </g>
    </g>
    <g id="ytick_6">
     <g id="line2d_25">
      <path d="M 48.8975 55.3344 
L 523.1975 55.3344 
" clip-path="url(#pd3cf7513aa)" style="fill: none; stroke: #2a323c; stroke-opacity: 0.35; stroke-width: 0.8; stroke-linecap: square"/>
     </g>
     <g id="line2d_26">
      <g>
       <use xlink:href="#m4fc93448fa" x="48.8975" y="55.3344" style="fill: #8b96a3; stroke: #8b96a3; stroke-width: 0.8"/>
      </g>
     </g>
     <g id="text_13">
      <text style="font-size: 12px; font-family: 'DejaVu Sans'; text-anchor: end; fill: #8b96a3" x="41.8975" y="59.893462" transform="rotate(-0 41.8975 59.893462)">0.5</text>
     </g>
    </g>
    <g id="ytick_7">
     <g id="line2d_27">
      <path d="M 48.8975 27.48887 
L 523.1975 27.48887 
" clip-path="url(#pd3cf7513aa)" style="fill: none; stroke: #2a323c; stroke-opacity: 0.35; stroke-width: 0.8; stroke-linecap: square"/>
     </g>
     <g id="line2d_28">
      <g>
       <use xlink:href="#m4fc93448fa" x="48.8975" y="27.48887" style="fill: #8b96a3; stroke: #8b96a3; stroke-width: 0.8"/>
      </g>
     </g>
     <g id="text_14">
      <text style="font-size: 12px; font-family: 'DejaVu Sans'; text-anchor: end; fill: #8b96a3" x="41.8975" y="32.047933" transform="rotate(-0 41.8975 32.047933)">0.6</text>
     </g>
    </g>
    <g id="text_15">
     <text style="font-size: 12px; font-family: 'DejaVu Sans'; text-anchor: middle; fill: #8b96a3" x="16.318125" y="108.630047" transform="rotate(-90 16.318125 108.630047)">degraded ratio</text>
    </g>
   </g>
   <g id="FillBetweenPolyCollection_1">
    <defs>
     <path id="m6215b322f1" d="M 77.3555 -83.609665 
L 77.3555 -66.805818 
L 78.505318 -67.88578 
L 79.655136 -68.673584 
L 80.804955 -67.393312 
L 81.954773 -68.273548 
L 125.647864 -69.278378 
L 126.797682 -70.406154 
L 127.9475 -71.45642 
L 129.097318 -70.610074 
L 130.247136 -71.115186 
L 131.396955 -71.030304 
L 132.546773 -71.115903 
L 133.696591 -71.504558 
L 134.846409 -72.092331 
L 135.996227 -72.664039 
L 137.146045 -72.129545 
L 138.295864 -71.937933 
L 139.445682 -71.921476 
L 140.5955 -71.281536 
L 141.745318 -71.033979 
L 332.615136 -71.498665 
L 333.764955 -71.953477 
L 334.914773 -73.75814 
L 336.064591 -75.554202 
L 337.214409 -76.13092 
L 338.364227 -75.331204 
L 339.514045 -74.033387 
L 340.663864 -72.09337 
L 341.813682 -69.494444 
L 342.9635 -67.962379 
L 344.113318 -66.428093 
L 345.263136 -64.710487 
L 346.412955 -63.36158 
L 347.562773 -61.905244 
L 348.712591 -61.086715 
L 349.862409 -60.716937 
L 351.012227 -60.238376 
L 352.162045 -58.605221 
L 353.311864 -58.082661 
L 354.461682 -56.841703 
L 355.6115 -56.480969 
L 356.761318 -55.245285 
L 357.911136 -53.701836 
L 359.060955 -52.567728 
L 360.210773 -51.362397 
L 361.360591 -50.157114 
L 362.510409 -49.374049 
L 363.660227 -48.552085 
L 364.810045 -48.113126 
L 365.959864 -46.998077 
L 367.109682 -45.803419 
L 368.2595 -45.119475 
L 369.409318 -44.557948 
L 370.559136 -43.940935 
L 371.708955 -43.227923 
L 372.858773 -43.410427 
L 374.008591 -43.601247 
L 375.158409 -43.366998 
L 376.308227 -43.005148 
L 377.458045 -43.129754 
L 378.607864 -43.515353 
L 379.757682 -43.925789 
L 380.9075 -44.016382 
L 382.057318 -44.59069 
L 383.207136 -47.17282 
L 384.356955 -47.771699 
L 385.506773 -47.892974 
L 386.656591 -48.39583 
L 387.806409 -48.12952 
L 388.956227 -48.561182 
L 390.106045 -49.362377 
L 391.255864 -50.290718 
L 392.405682 -50.99615 
L 393.5555 -51.646864 
L 394.705318 -52.078818 
L 395.855136 -52.896756 
L 397.004955 -52.918724 
L 398.154773 -56.614447 
L 399.304591 -56.665892 
L 400.454409 -56.273935 
L 401.604227 -56.185557 
L 402.754045 -55.928748 
L 403.903864 -55.778853 
L 405.053682 -55.114281 
L 406.2035 -55.047193 
L 407.353318 -55.229301 
L 408.503136 -54.959283 
L 409.652955 -55.408325 
L 410.802773 -54.812805 
L 411.952591 -54.485084 
L 413.102409 -53.340499 
L 414.252227 -53.286534 
L 415.402045 -52.67459 
L 418.8515 -52.54095 
L 420.001318 -52.595798 
L 421.151136 -45.39058 
L 422.300955 -44.294242 
L 423.450773 -43.514554 
L 424.600591 -44.118998 
L 425.750409 -44.205118 
L 426.900227 -44.375457 
L 428.050045 -45.251929 
L 429.199864 -46.310223 
L 430.349682 -46.615471 
L 431.4995 -47.394203 
L 432.649318 -48.779798 
L 433.799136 -50.102059 
L 434.948955 -52.0098 
L 436.098773 -53.650257 
L 437.248591 -56.213082 
L 438.398409 -58.950547 
L 439.548227 -61.872139 
L 440.698045 -64.513471 
L 441.847864 -65.82182 
L 442.997682 -68.936665 
L 444.1475 -69.512677 
L 445.297318 -71.668826 
L 446.447136 -73.179412 
L 447.596955 -71.887369 
L 448.746773 -71.695532 
L 449.896591 -73.688747 
L 451.046409 -74.489567 
L 452.196227 -75.262299 
L 453.346045 -76.952895 
L 454.495864 -77.790319 
L 455.645682 -78.384773 
L 456.7955 -76.750832 
L 457.945318 -76.631987 
L 459.095136 -75.377041 
L 460.244955 -75.449317 
L 461.394773 -75.352968 
L 462.544591 -75.552213 
L 463.694409 -75.150679 
L 464.844227 -74.748575 
L 465.994045 -74.84655 
L 467.143864 -74.840397 
L 468.293682 -74.799042 
L 469.4435 -74.817428 
L 470.593318 -74.817525 
L 471.743136 -74.798879 
L 472.892955 -74.681641 
L 474.042773 -75.462783 
L 475.192591 -75.193394 
L 476.342409 -75.622085 
L 477.492227 -75.855577 
L 478.642045 -76.499184 
L 479.791864 -77.446757 
L 480.941682 -77.842936 
L 482.0915 -78.328828 
L 483.241318 -79.012709 
L 484.391136 -78.719513 
L 485.540955 -78.488183 
L 486.690773 -78.398242 
L 487.840591 -79.90647 
L 488.990409 -81.741336 
L 490.140227 -82.569333 
L 491.290045 -86.351294 
L 492.439864 -86.710133 
L 493.589682 -87.066297 
L 494.7395 -87.22637 
L 495.889318 -88.442475 
L 497.039136 -89.518573 
L 498.188955 -91.121651 
L 499.338773 -91.53424 
L 500.488591 -92.022562 
L 501.638409 -91.983933 
L 501.638409 -111.393746 
L 501.638409 -111.393746 
L 500.488591 -111.559981 
L 499.338773 -111.354154 
L 498.188955 -110.821984 
L 497.039136 -110.438085 
L 495.889318 -109.465547 
L 494.7395 -109.02882 
L 493.589682 -108.731431 
L 492.439864 -108.650024 
L 491.290045 -108.342559 
L 490.140227 -108.733331 
L 488.990409 -106.528154 
L 487.840591 -105.278134 
L 486.690773 -104.156948 
L 485.540955 -102.449978 
L 484.391136 -100.358965 
L 483.241318 -100.65848 
L 482.0915 -103.508345 
L 480.941682 -103.135004 
L 479.791864 -102.920571 
L 478.642045 -101.694204 
L 477.492227 -100.860009 
L 476.342409 -100.490844 
L 475.192591 -100.304944 
L 474.042773 -101.23689 
L 472.892955 -100.786863 
L 471.743136 -101.7556 
L 470.593318 -103.256525 
L 469.4435 -103.179051 
L 468.293682 -103.276996 
L 467.143864 -103.356968 
L 465.994045 -103.374683 
L 464.844227 -103.355309 
L 463.694409 -104.864602 
L 462.544591 -105.103515 
L 461.394773 -104.753805 
L 460.244955 -104.838452 
L 459.095136 -104.757577 
L 457.945318 -104.38971 
L 456.7955 -104.408104 
L 455.645682 -105.57065 
L 454.495864 -111.917195 
L 453.346045 -116.839955 
L 452.196227 -124.533252 
L 451.046409 -124.287633 
L 449.896591 -122.626112 
L 448.746773 -122.733788 
L 447.596955 -122.79455 
L 446.447136 -123.461639 
L 445.297318 -123.532213 
L 444.1475 -123.49652 
L 442.997682 -123.438052 
L 441.847864 -122.781817 
L 440.698045 -122.749603 
L 439.548227 -121.689469 
L 438.398409 -120.131908 
L 437.248591 -119.008789 
L 436.098773 -117.285392 
L 434.948955 -116.334226 
L 433.799136 -115.21476 
L 432.649318 -114.758885 
L 431.4995 -112.705557 
L 430.349682 -111.914995 
L 429.199864 -111.470403 
L 428.050045 -110.531774 
L 426.900227 -109.649999 
L 425.750409 -109.549839 
L 424.600591 -109.445019 
L 423.450773 -107.68657 
L 422.300955 -101.297997 
L 421.151136 -93.966249 
L 420.001318 -79.256661 
L 418.8515 -78.806311 
L 415.402045 -78.282835 
L 414.252227 -78.774767 
L 413.102409 -77.879469 
L 411.952591 -74.344146 
L 410.802773 -74.654883 
L 409.652955 -75.061802 
L 408.503136 -74.693379 
L 407.353318 -74.660048 
L 406.2035 -74.653205 
L 405.053682 -74.651753 
L 403.903864 -74.621661 
L 402.754045 -74.583148 
L 401.604227 -74.53518 
L 400.454409 -74.550229 
L 399.304591 -74.552087 
L 398.154773 -74.559775 
L 397.004955 -83.106586 
L 395.855136 -83.082808 
L 394.705318 -82.210125 
L 393.5555 -82.087157 
L 392.405682 -81.864715 
L 391.255864 -81.577653 
L 390.106045 -80.634376 
L 388.956227 -79.854344 
L 387.806409 -79.257709 
L 386.656591 -79.755163 
L 385.506773 -79.281436 
L 384.356955 -78.996962 
L 383.207136 -77.445769 
L 382.057318 -84.302187 
L 380.9075 -87.77243 
L 379.757682 -87.65617 
L 378.607864 -87.316767 
L 377.458045 -86.944569 
L 376.308227 -86.886191 
L 375.158409 -87.067328 
L 374.008591 -87.171204 
L 372.858773 -87.115392 
L 371.708955 -87.031374 
L 370.559136 -87.364559 
L 369.409318 -87.720151 
L 368.2595 -90.175885 
L 367.109682 -92.662354 
L 365.959864 -94.94043 
L 364.810045 -91.402821 
L 363.660227 -93.098023 
L 362.510409 -93.578832 
L 361.360591 -93.893676 
L 360.210773 -94.546087 
L 359.060955 -95.055246 
L 357.911136 -95.392973 
L 356.761318 -97.395851 
L 355.6115 -98.469357 
L 354.461682 -98.898242 
L 353.311864 -99.331994 
L 352.162045 -99.607009 
L 351.012227 -100.19752 
L 349.862409 -95.442681 
L 348.712591 -94.118199 
L 347.562773 -95.364217 
L 346.412955 -97.231443 
L 345.263136 -97.644761 
L 344.113318 -100.151719 
L 342.9635 -100.749606 
L 341.813682 -100.848493 
L 340.663864 -100.672128 
L 339.514045 -100.277537 
L 338.364227 -100.218847 
L 337.214409 -100.105325 
L 336.064591 -99.112748 
L 334.914773 -98.038731 
L 333.764955 -96.997183 
L 332.615136 -96.50871 
L 141.745318 -95.884723 
L 140.5955 -96.357123 
L 139.445682 -96.863769 
L 138.295864 -97.313927 
L 137.146045 -97.843986 
L 135.996227 -98.441998 
L 134.846409 -97.271637 
L 133.696591 -97.132788 
L 132.546773 -97.444257 
L 131.396955 -98.036536 
L 130.247136 -98.754874 
L 129.097318 -99.153013 
L 127.9475 -100.137577 
L 126.797682 -98.815159 
L 125.647864 -98.042656 
L 81.954773 -95.201849 
L 80.804955 -95.588461 
L 79.655136 -86.87962 
L 78.505318 -84.250158 
L 77.3555 -83.609665 
z
"/>
    </defs>
    <g clip-path="url(#pd3cf7513aa)">
     <use xlink:href="#m6215b322f1" x="0" y="220.375797" style="fill: #3a6690; fill-opacity: 0.28"/>
    </g>
   </g>
   <g id="line2d_29">
    <path d="M 77.3555 145.168056 
L 78.505318 144.307828 
L 79.655136 142.599195 
L 80.804955 138.884911 
L 81.954773 138.638098 
L 125.647864 136.71528 
L 126.797682 135.76514 
L 127.9475 134.578799 
L 129.097318 135.494253 
L 130.247136 135.440767 
L 131.396955 135.842377 
L 132.546773 136.095717 
L 133.696591 136.057124 
L 134.846409 135.693813 
L 135.996227 134.822778 
L 137.146045 135.389031 
L 138.295864 135.749867 
L 139.445682 135.983175 
L 140.5955 136.556468 
L 141.745318 136.916446 
L 332.615136 136.37211 
L 333.764955 135.900467 
L 336.064591 133.042322 
L 337.214409 132.257675 
L 338.364227 132.600771 
L 339.514045 133.220334 
L 340.663864 133.993048 
L 341.813682 135.204328 
L 342.9635 136.019805 
L 344.113318 137.085891 
L 345.263136 139.198173 
L 346.412955 140.079285 
L 347.562773 141.741066 
L 348.712591 142.77334 
L 349.862409 142.295988 
L 351.012227 140.157849 
L 352.162045 141.269681 
L 353.311864 141.668469 
L 354.461682 142.505824 
L 355.6115 142.900634 
L 356.761318 144.055229 
L 357.911136 145.828392 
L 360.210773 147.421554 
L 361.360591 148.350402 
L 363.660227 149.550743 
L 364.810045 150.617823 
L 365.959864 149.406543 
L 368.2595 152.728117 
L 369.409318 154.236748 
L 371.708955 155.246148 
L 374.008591 154.989572 
L 376.308227 155.430128 
L 377.458045 155.338635 
L 379.757682 154.584817 
L 380.9075 154.481391 
L 382.057318 155.929358 
L 383.207136 158.066503 
L 384.356955 156.991466 
L 385.506773 156.788592 
L 386.656591 156.3003 
L 387.806409 156.682182 
L 388.956227 156.168034 
L 390.106045 155.37742 
L 391.255864 154.441611 
L 393.5555 153.508786 
L 394.705318 153.231325 
L 395.855136 152.386015 
L 397.004955 152.363141 
L 398.154773 154.788686 
L 399.304591 154.766807 
L 400.454409 154.963715 
L 403.903864 155.17554 
L 405.053682 155.49278 
L 406.2035 155.525598 
L 407.353318 155.431122 
L 408.503136 155.549466 
L 409.652955 155.140733 
L 410.802773 155.641953 
L 411.952591 155.961182 
L 413.102409 154.765813 
L 414.252227 154.345146 
L 415.402045 154.897085 
L 418.8515 154.702166 
L 420.001318 154.449567 
L 421.151136 150.697382 
L 423.450773 144.775235 
L 424.600591 143.593789 
L 426.900227 143.363069 
L 429.199864 141.485484 
L 430.349682 141.110564 
L 431.4995 140.325917 
L 432.649318 138.606455 
L 433.799136 137.717387 
L 434.948955 136.203784 
L 436.098773 134.907972 
L 439.548227 128.594993 
L 440.698045 126.74426 
L 441.847864 126.073978 
L 442.997682 124.188438 
L 444.1475 123.871198 
L 445.297318 122.775277 
L 446.447136 122.055272 
L 447.596955 123.034838 
L 448.746773 123.161137 
L 449.896591 122.218367 
L 451.046409 120.987197 
L 452.196227 120.478021 
L 453.346045 123.479372 
L 454.495864 125.52204 
L 455.645682 128.398085 
L 456.7955 129.796329 
L 457.945318 129.864948 
L 459.095136 130.308488 
L 460.244955 130.231912 
L 461.394773 130.32241 
L 462.544591 130.047933 
L 463.694409 130.368157 
L 464.844227 131.323855 
L 467.143864 131.277114 
L 469.4435 131.377557 
L 470.593318 131.338772 
L 471.743136 132.098557 
L 472.892955 132.641545 
L 474.042773 132.02596 
L 475.192591 132.626628 
L 477.492227 132.018004 
L 478.642045 131.279103 
L 479.791864 130.192133 
L 480.941682 129.886827 
L 482.0915 129.45721 
L 483.241318 130.540202 
L 484.391136 130.836558 
L 486.690773 129.098202 
L 487.840591 127.783495 
L 491.290045 123.028871 
L 493.589682 122.476933 
L 494.7395 122.248201 
L 495.889318 121.421786 
L 498.188955 119.403979 
L 499.338773 118.9316 
L 500.488591 118.584525 
L 501.638409 118.686957 
L 501.638409 118.686957 
" clip-path="url(#pd3cf7513aa)" style="fill: none; stroke: #3a6690; stroke-opacity: 0.8; stroke-linecap: square"/>
   </g>
   <g id="line2d_30">
    <path d="M 70.456591 158.41855 
L 71.606409 156.8592 
L 72.756227 140.486029 
L 73.906045 143.883183 
L 75.055864 138.230541 
L 76.205682 143.493346 
L 77.3555 134.805541 
L 78.505318 138.286232 
L 79.655136 128.930134 
L 80.804955 105.456353 
L 81.954773 136.169972 
L 125.647864 115.56428 
L 126.797682 124.363467 
L 127.9475 119.156353 
L 129.097318 148.310622 
L 130.247136 134.638468 
L 131.396955 142.268143 
L 132.546773 140.402492 
L 133.696591 135.362451 
L 134.846409 128.790906 
L 135.996227 117.402085 
L 137.146045 147.280338 
L 138.295864 143.688265 
L 139.445682 141.34924 
L 140.5955 150.315501 
L 141.745318 145.915907 
L 332.615136 122.219361 
L 333.764955 123.166109 
L 334.914773 118.571597 
L 336.064591 116.678101 
L 337.214409 118.515906 
L 338.364227 153.489891 
L 339.514045 155.578306 
L 340.663864 165.129322 
L 341.813682 168.721396 
L 342.9635 161.119566 
L 344.113318 158.780542 
L 345.263136 164.600257 
L 346.412955 160.841111 
L 347.562773 162.09416 
L 348.712591 153.267127 
L 349.862409 105.790499 
L 351.012227 88.442734 
L 352.162045 165.769769 
L 353.311864 153.4342 
L 354.461682 163.848428 
L 355.6115 146.417126 
L 356.761318 161.119566 
L 357.911136 167.050664 
L 359.060955 167.88603 
L 360.210773 167.691111 
L 361.360591 167.356965 
L 363.660227 164.154729 
L 364.810045 152.097614 
L 365.959864 89.250255 
L 367.109682 167.189891 
L 368.2595 161.063875 
L 369.409318 160.757574 
L 370.559136 167.106355 
L 371.708955 170.225054 
L 372.858773 161.398021 
L 374.008591 165.26855 
L 376.308227 166.382371 
L 377.458045 162.038468 
L 378.607864 150.231964 
L 379.757682 151.596395 
L 380.9075 150.371192 
L 382.057318 146.33359 
L 383.207136 148.282777 
L 384.356955 135.668752 
L 385.506773 147.753712 
L 386.656591 150.176273 
L 387.806409 157.10981 
L 388.956227 146.723427 
L 390.106045 144.913468 
L 391.255864 141.683386 
L 392.405682 153.796192 
L 393.5555 155.132777 
L 394.705318 157.91733 
L 395.855136 140.486029 
L 397.004955 151.457167 
L 398.154773 157.165501 
L 399.304591 166.57729 
L 400.454409 166.57729 
L 401.604227 162.205542 
L 402.754045 170.030135 
L 403.903864 171.784404 
L 405.053682 170.280745 
L 406.2035 166.187452 
L 407.353318 163.207981 
L 408.503136 169.695989 
L 409.652955 150.593956 
L 410.802773 164.266111 
L 411.952591 160.53481 
L 413.102409 116.900865 
L 414.252227 134.554931 
L 415.402045 163.737046 
L 418.8515 130.211028 
L 420.001318 140.680947 
L 421.151136 45.11509 
L 422.300955 69.814075 
L 423.450773 68.199034 
L 424.600591 111.832979 
L 425.750409 139.010216 
L 426.900227 150.0092 
L 428.050045 130.517329 
L 429.199864 129.960419 
L 430.349682 129.988264 
L 431.4995 129.487045 
L 432.649318 109.02058 
L 433.799136 141.683386 
L 434.948955 124.196394 
L 436.098773 125.922817 
L 437.248591 110.023019 
L 438.398409 117.736231 
L 439.548227 107.572613 
L 440.698045 114.366922 
L 441.847864 144.440094 
L 442.997682 116.900865 
L 444.1475 141.711232 
L 445.297318 133.580337 
L 446.447136 140.374647 
L 447.596955 144.328712 
L 448.746773 138.091313 
L 449.896591 137.339484 
L 451.046409 95.738263 
L 452.196227 126.424036 
L 453.346045 129.152898 
L 454.495864 127.008792 
L 455.645682 148.728305 
L 456.7955 150.983793 
L 457.945318 140.931557 
L 459.095136 162.428306 
L 460.244955 128.373223 
L 461.394773 132.494362 
L 462.544591 122.302898 
L 463.694409 138.453305 
L 464.844227 135.780134 
L 465.994045 140.0405 
L 467.143864 124.53054 
L 468.293682 127.621394 
L 469.4435 111.136841 
L 470.593318 116.650255 
L 471.743136 128.846597 
L 472.892955 129.570581 
L 474.042773 127.203711 
L 475.192591 133.719565 
L 476.342409 133.106963 
L 477.492227 125.143142 
L 479.791864 113.893548 
L 480.941682 129.542736 
L 482.0915 125.310215 
L 483.241318 126.062044 
L 484.391136 134.722004 
L 485.540955 103.117328 
L 486.690773 104.370377 
L 487.840591 111.916515 
L 488.990409 107.795377 
L 490.140227 98.467125 
L 491.290045 114.951678 
L 492.439864 119.044971 
L 493.589682 126.368345 
L 494.7395 115.898426 
L 495.889318 115.31367 
L 497.039136 107.099239 
L 498.188955 112.222816 
L 499.338773 111.303914 
L 500.488591 117.903304 
L 501.638409 114.00493 
L 501.638409 114.00493 
" clip-path="url(#pd3cf7513aa)" style="fill: none; stroke: #35e0d0; stroke-width: 1.7; stroke-linecap: square"/>
   </g>
   <g id="patch_3">
    <path d="M 48.8975 194.562047 
L 48.8975 22.698047 
" style="fill: none; stroke: #2a323c; stroke-width: 0.8; stroke-linejoin: miter; stroke-linecap: square"/>
   </g>
   <g id="patch_4">
    <path d="M 523.1975 194.562047 
L 523.1975 22.698047 
" style="fill: none; stroke: #2a323c; stroke-width: 0.8; stroke-linejoin: miter; stroke-linecap: square"/>
   </g>
   <g id="patch_5">
    <path d="M 48.8975 194.562047 
L 523.1975 194.562047 
" style="fill: none; stroke: #2a323c; stroke-width: 0.8; stroke-linejoin: miter; stroke-linecap: square"/>
   </g>
   <g id="patch_6">
    <path d="M 48.8975 22.698047 
L 523.1975 22.698047 
" style="fill: none; stroke: #2a323c; stroke-width: 0.8; stroke-linejoin: miter; stroke-linecap: square"/>
   </g>
   <g id="text_16">
    <text style="font-size: 12.5px; font-family: 'DejaVu Sans'; text-anchor: start; fill: #e6ebf0" x="48.8975" y="16.698047" transform="rotate(-0 48.8975 16.698047)">Baltic Sea: daily degraded ratio with 28-day baseline</text>
   </g>
   <g id="legend_1">
    <g id="patch_7">
     <path d="M 361.518125 56.318672 
L 516.8975 56.318672 
Q 518.6975 56.318672 518.6975 54.518672 
L 518.6975 28.998047 
Q 518.6975 27.198047 516.8975 27.198047 
L 361.518125 27.198047 
Q 359.718125 27.198047 359.718125 28.998047 
L 359.718125 54.518672 
Q 359.718125 56.318672 361.518125 56.318672 
L 361.518125 56.318672 
z
" style="fill: none; opacity: 0"/>
    </g>
    <g id="patch_8">
     <path d="M 363.318125 37.636641 
L 381.318125 37.636641 
L 381.318125 31.336641 
L 363.318125 31.336641 
z
" style="fill: #3a6690; fill-opacity: 0.28"/>
    </g>
    <g id="text_17">
     <text style="font-size: 9px; font-family: 'DejaVu Sans'; text-anchor: start; fill: #8b96a3" x="388.518125" y="37.636641" transform="rotate(-0 388.518125 37.636641)">28-day baseline ±1σ</text>
    </g>
    <g id="line2d_31">
     <path d="M 363.318125 47.696953 
L 372.318125 47.696953 
L 381.318125 47.696953 
" style="fill: none; stroke: #35e0d0; stroke-width: 1.7; stroke-linecap: square"/>
    </g>
    <g id="text_18">
     <text style="font-size: 9px; font-family: 'DejaVu Sans'; text-anchor: start; fill: #8b96a3" x="388.518125" y="50.846953" transform="rotate(-0 388.518125 50.846953)">degraded ratio (daily mean)</text>
    </g>
   </g>
  </g>
 </g>
 <defs>
  <clipPath id="pd3cf7513aa">
   <rect x="48.8975" y="22.698047" width="474.3" height="171.864"/>
  </clipPath>
 </defs>
</svg>
