<?xml version="1.0" encoding="utf-8" standalone="no"?>
<!DOCTYPE svg PUBLIC "-//W3C//DTD SVG 1.1//EN"
  "http://www.w3.org/Graphics/SVG/1.1/DTD/svg11.dtd">
<svg xmlns:xlink="http://www.w3.org/1999/xlink" width="530.3975pt" height="220.375797pt" viewBox="0 0 530.3975 220.375797" xmlns="http://www.w3.org/2000/svg" version="1.1">
 <metadata>
  <rdf:RDF xmlns:dc="http://purl.org/dc/elements/1.1/" xmlns:cc="http://creativecommons.org/ns#" xmlns:rdf="http://www.w3.org/1999/02/22-rdf-syntax-ns#">
   <cc:Work>
    <dc:type rdf:resource="http://purl.org/dc/dcmitype/StillImage"/>
    <dc:date>2026-07-21T13:52:56.563973</dc:date>
    <dc:format>image/svg+xml</dc:format>
    <dc:creator>
     <cc:Agent>
      <dc:title>Matplotlib v3.10.8, https://matplotlib.org/</dc:title>
     </cc:Agent>
    </dc:creator>
   </cc:Work>
  </rdf:RDF>
 </metadata>
 <defs>
  <style type="text/css">*{stroke-linejoin: round; stroke-linecap: butt}</style>
 </defs>
 <g id="figure_1">
  <g id="patch_1">
   <path d="M 0 220.375797 
L 530.3975 220.375797 
L 530.3975 0 
L 0 0 
z
" style="fill: #0a0c0f"/>
  </g>
  <g id="axes_1">
   <g id="patch_2">
    <path d="M 48.8975 194.562047 
L 523.1975 194.562047 
L 523.1975 22.698047 
L 48.8975 22.698047 
z
" style="fill: #10141a"/>
   </g>
   <g id="matplotlib.axis_1">
    <g id="xtick_1">
     <g id="line2d_1">
      <path d="M 68.509946 194.562047 
L 68.509946 22.698047 
" clip-path="url(#paffebc8fa4)" style="fill: none; stroke: #2a323c; stroke-opacity: 0.35; stroke-width: 0.8; stroke-linecap: square"/>
     </g>
     <g id="line2d_2">
      <defs>
       <path id="m8db6d7dab2" d="M 0 0 
L 0 3.5 
" style="stroke: #8b96a3; stroke-width: 0.8"/>
      </defs>
      <g>
       <use xlink:href="#m8db6d7dab2" x="68.509946" y="194.562047" style="fill: #8b96a3; stroke: #8b96a3; stroke-width: 0.8"/>
      </g>
     </g>
     <g id="text_1">
      <text style="font-size: 12px; font-family: 'DejaVu Sans'; text-anchor: middle; fill: #8b96a3" x="68.509946" y="210.680172" transform="rotate(-0 68.509946 210.680172)">May 01</text>
     </g>
    </g>
    <g id="xtick_2">
     <g id="line2d_3">
      <path d="M 127.882612 194.562047 
L 127.882612 22.698047 
" clip-path="url(#paffebc8fa4)" style="fill: none; stroke: #2a323c; stroke-opacity: 0.35; stroke-width: 0.8; stroke-linecap: square"/>
     </g>
     <g id="line2d_4">
      <g>
       <use xlink:href="#m8db6d7dab2" x="127.882612" y="194.562047" style="fill: #8b96a3; stroke: #8b96a3; stroke-width: 0.8"/>
      </g>
     </g>
     <g id="text_2">
      <text style="font-size: 12px; font-family: 'DejaVu Sans'; text-anchor: middle; fill: #8b96a3" x="127.882612" y="210.680172" transform="rotate(-0 127.882612 210.680172)">Jul 01</text>
     </g>
    </g>
    <g id="xtick_3">
     <g id="line2d_5">
      <path d="M 188.2286 194.562047 
L 188.2286 22.698047 
" clip-path="url(#paffebc8fa4)" style="fill: none; stroke: #2a323c; stroke-opacity: 0.35; stroke-width: 0.8; stroke-linecap: square"/>
     </g>
     <g id="line2d_6">
      <g>
       <use xlink:href="#m8db6d7dab2" x="188.2286" y="194.562047" style="fill: #8b96a3; stroke: #8b96a3; stroke-width: 0.8"/>
      </g>
     </g>
     <g id="text_3">
      <text style="font-size: 12px; font-family: 'DejaVu Sans'; text-anchor: middle; fill: #8b96a3" x="188.2286" y="210.680172" transform="rotate(-0 188.2286 210.680172)">Sep 01</text>
     </g>
    </g>
    <g id="xtick_4">
     <g id="line2d_7">
      <path d="M 247.601266 194.562047 
L 247.601266 22.698047 
" clip-path="url(#paffebc8fa4)" style="fill: none; stroke: #2a323c; stroke-opacity: 0.35; stroke-width: 0.8; stroke-linecap: square"/>
     </g>
     <g id="line2d_8">
      <g>
       <use xlink:href="#m8db6d7dab2" x="247.601266" y="194.562047" style="fill: #8b96a3; stroke: #8b96a3; stroke-width: 0.8"/>
      </g>
     </g>
     <g id="text_4">
      <text style="font-size: 12px; font-family: 'DejaVu Sans'; text-anchor: middle; fill: #8b96a3" x="247.601266" y="210.680172" transform="rotate(-0 247.601266 210.680172)">Nov 01</text>
     </g>
    </g>
    <g id="xtick_5">
     <g id="line2d_9">
      <path d="M 306.973931 194.562047 
L 306.973931 22.698047 
" clip-path="url(#paffebc8fa4)" style="fill: none; stroke: #2a323c; stroke-opacity: 0.35; stroke-width: 0.8; stroke-linecap: square"/>
     </g>
     <g id="line2d_10">
      <g>
       <use xlink:href="#m8db6d7dab2" x="306.973931" y="194.562047" style="fill: #8b96a3; stroke: #8b96a3; stroke-width: 0.8"/>
      </g>
     </g>
     <g id="text_5">
      <text style="font-size: 12px; font-family: 'DejaVu Sans'; text-anchor: middle; fill: #8b96a3" x="306.973931" y="210.680172" transform="rotate(-0 306.973931 210.680172)">Jan 01</text>
     </g>
    </g>
    <g id="xtick_6">
     <g id="line2d_11">
      <path d="M 364.399952 194.562047 
L 364.399952 22.698047 
" clip-path="url(#paffebc8fa4)" style="fill: none; stroke: #2a323c; stroke-opacity: 0.35; stroke-width: 0.8; stroke-linecap: square"/>
     </g>
     <g id="line2d_12">
      <g>
       <use xlink:href="#m8db6d7dab2" x="364.399952" y="194.562047" style="fill: #8b96a3; stroke: #8b96a3; stroke-width: 0.8"/>
      </g>
     </g>
     <g id="text_6">
      <text style="font-size: 12px; font-family: 'DejaVu Sans'; text-anchor: middle; fill: #8b96a3" x="364.399952" y="210.680172" transform="rotate(-0 364.399952 210.680172)">Mar 01</text>
     </g>
    </g>
    <g id="xtick_7">
     <g id="line2d_13">
      <path d="M 423.772618 194.562047 
L 423.772618 22.698047 
" clip-path="url(#paffebc8fa4)" style="fill: none; stroke: #2a323c; stroke-opacity: 0.35; stroke-width: 0.8; stroke-linecap: square"/>
     </g>
     <g id="line2d_14">
      <g>
       <use xlink:href="#m8db6d7dab2" x="423.772618" y="194.562047" style="fill: #8b96a3; stroke: #8b96a3; stroke-width: 0.8"/>
      </g>
     </g>
     <g id="text_7">
      <text style="font-size: 12px; font-family: 'DejaVu Sans'; text-anchor: middle; fill: #8b96a3" x="423.772618" y="210.680172" transform="rotate(-0 423.772618 210.680172)">May 01</text>
     </g>
    </g>
    <g id="xtick_8">
     <g id="line2d_15">
      <path d="M 483.145284 194.562047 
L 483.145284 22.698047 
" clip-path="url(#paffebc8fa4)" style="fill: none; stroke: #2a323c; stroke-opacity: 0.35; stroke-width: 0.8; stroke-linecap: square"/>
     </g>
     <g id="line2d_16">
      <g>
       <use xlink:href="#m8db6d7dab2" x="483.145284" y="194.562047" style="fill: #8b96a3; stroke: #8b96a3; stroke-width: 0.8"/>
      </g>
     </g>
     <g id="text_8">
      <text style="font-size: 12px; font-family: 'DejaVu Sans'; text-anchor: middle; fill: #8b96a3" x="483.145284" y="210.680172" transform="rotate(-0 483.145284 210.680172)">Jul 01</text>
     </g>
    </g>
   </g>
   <g id="matplotlib.axis_2">
    <g id="ytick_1">
     <g id="line2d_17">
      <path d="M 48.8975 194.562047 
L 523.1975 194.562047 
" clip-path="url(#paffebc8fa4)" style="fill: none; stroke: #2a323c; stroke-opacity: 0.35; stroke-width: 0.8; stroke-linecap: square"/>
     </g>
     <g id="line2d_18">
      <defs>
       <path id="m6ddf76081e" d="M 0 0 
L -3.5 0 
" style="stroke: #8b96a3; stroke-width: 0.8"/>
      </defs>
      <g>
       <use xlink:href="#m6ddf76081e" x="48.8975" y="194.562047" style="fill: #8b96a3; stroke: #8b96a3; stroke-width: 0.8"/>
      </g>
     </g>
     <g id="text_9">
      <text style="font-size: 12px; font-family: 'DejaVu Sans'; text-anchor: end; fill: #8b96a3" x="41.8975" y="199.121109" transform="rotate(-0 41.8975 199.121109)">0.0</text>
     </g>
    </g>
    <g id="ytick_2">
     <g id="line2d_19">
      <path d="M 48.8975 169.006822 
L 523.1975 169.006822 
" clip-path="url(#paffebc8fa4)" style="fill: none; stroke: #2a323c; stroke-opacity: 0.35; stroke-width: 0.8; stroke-linecap: square"/>
     </g>
     <g id="line2d_20">
      <g>
       <use xlink:href="#m6ddf76081e" x="48.8975" y="169.006822" style="fill: #8b96a3; stroke: #8b96a3; stroke-width: 0.8"/>
      </g>
     </g>
     <g id="text_10">
      <text style="font-size: 12px; font-family: 'DejaVu Sans'; text-anchor: end; fill: #8b96a3" x="41.8975" y="173.565884" transform="rotate(-0 41.8975 173.565884)">0.1</text>
     </g>
    </g>
    <g id="ytick_3">
     <g id="line2d_21">
      <path d="M 48.8975 143.451597 
L 523.1975 143.451597 
" clip-path="url(#paffebc8fa4)" style="fill: none; stroke: #2a323c; stroke-opacity: 0.35; stroke-width: 0.8; stroke-linecap: square"/>
     </g>
     <g id="line2d_22">
      <g>
       <use xlink:href="#m6ddf76081e" x="48.8975" y="143.451597" style="fill: #8b96a3; stroke: #8b96a3; stroke-width: 0.8"/>
      </g>
     </g>
     <g id="text_11">
      <text style="font-size: 12px; font-family: 'DejaVu Sans'; text-anchor: end; fill: #8b96a3" x="41.8975" y="148.010659" transform="rotate(-0 41.8975 148.010659)">0.2</text>
     </g>
    </g>
    <g id="ytick_4">
     <g id="line2d_23">
      <path d="M 48.8975 117.896372 
L 523.1975 117.896372 
" clip-path="url(#paffebc8fa4)" style="fill: none; stroke: #2a323c; stroke-opacity: 0.35; stroke-width: 0.8; stroke-linecap: square"/>
     </g>
     <g id="line2d_24">
      <g>
       <use xlink:href="#m6ddf76081e" x="48.8975" y="117.896372" style="fill: #8b96a3; stroke: #8b96a3; stroke-width: 0.8"/>
      </g>
     </g>
     <g id="text_12">
      <text style="font-size: 12px; font-family: 'DejaVu Sans'; text-anchor: end; fill: #8b96a3" x="41.8975" y="122.455434" transform="rotate(-0 41.8975 122.455434)">0.3</text>
     </g>
    </g>
    <g id="ytick_5">
     <g id="line2d_25">
      <path d="M 48.8975 92.341146 
L 523.1975 92.341146 
" clip-path="url(#paffebc8fa4)" style="fill: none; stroke: #2a323c; stroke-opacity: 0.35; stroke-width: 0.8; stroke-linecap: square"/>
     </g>
     <g id="line2d_26">
      <g>
       <use xlink:href="#m6ddf76081e" x="48.8975" y="92.341146" style="fill: #8b96a3; stroke: #8b96a3; stroke-width: 0.8"/>
      </g>
     </g>
     <g id="text_13">
      <text style="font-size: 12px; font-family: 'DejaVu Sans'; text-anchor: end; fill: #8b96a3" x="41.8975" y="96.900209" transform="rotate(-0 41.8975 96.900209)">0.4</text>
     </g>
    </g>
    <g id="ytick_6">
     <g id="line2d_27">
      <path d="M 48.8975 66.785921 
L 523.1975 66.785921 
" clip-path="url(#paffebc8fa4)" style="fill: none; stroke: #2a323c; stroke-opacity: 0.35; stroke-width: 0.8; stroke-linecap: square"/>
     </g>
     <g id="line2d_28">
      <g>
       <use xlink:href="#m6ddf76081e" x="48.8975" y="66.785921" style="fill: #8b96a3; stroke: #8b96a3; stroke-width: 0.8"/>
      </g>
     </g>
     <g id="text_14">
      <text style="font-size: 12px; font-family: 'DejaVu Sans'; text-anchor: end; fill: #8b96a3" x="41.8975" y="71.344984" transform="rotate(-0 41.8975 71.344984)">0.5</text>
     </g>
    </g>
    <g id="ytick_7">
     <g id="line2d_29">
      <path d="M 48.8975 41.230696 
L 523.1975 41.230696 
" clip-path="url(#paffebc8fa4)" style="fill: none; stroke: #2a323c; stroke-opacity: 0.35; stroke-width: 0.8; stroke-linecap: square"/>
     </g>
     <g id="line2d_30">
      <g>
       <use xlink:href="#m6ddf76081e" x="48.8975" y="41.230696" style="fill: #8b96a3; stroke: #8b96a3; stroke-width: 0.8"/>
      </g>
     </g>
     <g id="text_15">
      <text style="font-size: 12px; font-family: 'DejaVu Sans'; text-anchor: end; fill: #8b96a3" x="41.8975" y="45.789759" transform="rotate(-0 41.8975 45.789759)">0.6</text>
     </g>
    </g>
    <g id="text_16">
     <text style="font-size: 12px; font-family: 'DejaVu Sans'; text-anchor: middle; fill: #8b96a3" x="16.318125" y="108.630047" transform="rotate(-90 16.318125 108.630047)">degraded ratio</text>
    </g>
   </g>
   <g id="FillBetweenPolyCollection_1">
    <defs>
     <path id="m3ef9307e27" d="M 108.416164 -117.994983 
L 108.416164 -86.686411 
L 109.389486 -88.772653 
L 110.362809 -90.609288 
L 111.336131 -92.261161 
L 112.309454 -93.861985 
L 113.282776 -95.477863 
L 114.256098 -96.948218 
L 115.229421 -98.351366 
L 116.202743 -99.654338 
L 117.176066 -100.536191 
L 134.695869 -100.764558 
L 135.669191 -101.518454 
L 136.642513 -102.335495 
L 137.615836 -103.237251 
L 138.589158 -102.813635 
L 139.562481 -103.304665 
L 140.535803 -103.812611 
L 141.509125 -104.160475 
L 142.482448 -104.248795 
L 143.45577 -104.91757 
L 144.429092 -105.550345 
L 145.402415 -106.181202 
L 146.375737 -108.638691 
L 147.34906 -109.967572 
L 148.322382 -109.730528 
L 149.295704 -112.071108 
L 150.269027 -113.932227 
L 151.242349 -113.905324 
L 152.215672 -119.414194 
L 153.188994 -118.163551 
L 154.162316 -118.553103 
L 155.135639 -118.49473 
L 156.108961 -118.602727 
L 157.082284 -118.794813 
L 158.055606 -118.752775 
L 159.028928 -118.810455 
L 160.002251 -118.626653 
L 160.975573 -118.405886 
L 161.948895 -119.681663 
L 162.922218 -120.009316 
L 163.89554 -119.03329 
L 164.868863 -118.509572 
L 165.842185 -119.976262 
L 166.815507 -118.682748 
L 167.78883 -119.108902 
L 168.762152 -119.952795 
L 169.735475 -119.946599 
L 170.708797 -119.822125 
L 171.682119 -118.849228 
L 172.655442 -118.739615 
L 173.628764 -118.649659 
L 174.602086 -118.634438 
L 175.575409 -119.594825 
L 176.548731 -117.996615 
L 177.522054 -118.294122 
L 178.495376 -118.65696 
L 179.468698 -118.029017 
L 180.442021 -120.096165 
L 181.415343 -120.071611 
L 182.388666 -119.493666 
L 183.361988 -118.101716 
L 184.33531 -117.503528 
L 185.308633 -116.864464 
L 186.281955 -114.587898 
L 187.255278 -114.800477 
L 188.2286 -114.814612 
L 189.201922 -114.578578 
L 190.175245 -114.798294 
L 191.148567 -115.360068 
L 192.121889 -115.668122 
L 193.095212 -115.542782 
L 194.068534 -117.024058 
L 195.041857 -116.215842 
L 196.015179 -116.199234 
L 196.988501 -117.098207 
L 197.961824 -117.309019 
L 198.935146 -118.010034 
L 199.908469 -118.09825 
L 200.881791 -118.452118 
L 201.855113 -118.312638 
L 202.828436 -118.762668 
L 203.801758 -120.445607 
L 204.775081 -120.409875 
L 206.721725 -119.592921 
L 207.695048 -119.674301 
L 208.66837 -119.443857 
L 209.641692 -119.099245 
L 210.615015 -119.510493 
L 211.588337 -118.640922 
L 212.56166 -118.162441 
L 213.534982 -117.467505 
L 214.508304 -119.868958 
L 215.481627 -119.116268 
L 216.454949 -117.482184 
L 356.613373 -117.59649 
L 357.586696 -117.082977 
L 358.560018 -117.112503 
L 359.53334 -117.38483 
L 360.506663 -117.817864 
L 361.479985 -118.100712 
L 362.453308 -119.147859 
L 363.42663 -118.804939 
L 364.399952 -118.970385 
L 365.373275 -118.60582 
L 366.346597 -118.699664 
L 367.319919 -118.68066 
L 368.293242 -117.994142 
L 369.266564 -118.148222 
L 370.239887 -118.183978 
L 371.213209 -118.30042 
L 372.186531 -118.040451 
L 373.159854 -118.451764 
L 374.133176 -118.689346 
L 375.106499 -118.989482 
L 376.079821 -119.45797 
L 377.053143 -119.589379 
L 378.026466 -121.775139 
L 378.999788 -121.66543 
L 379.973111 -123.221668 
L 380.946433 -122.911664 
L 381.919755 -122.68525 
L 382.893078 -124.504477 
L 383.8664 -124.124728 
L 384.839722 -124.552985 
L 385.813045 -123.789474 
L 386.786367 -121.718715 
L 387.75969 -119.13074 
L 388.733012 -117.353829 
L 389.706334 -117.017993 
L 390.679657 -117.279794 
L 391.652979 -117.307802 
L 392.626302 -117.546401 
L 393.599624 -117.759641 
L 394.572946 -117.710085 
L 395.546269 -115.87515 
L 396.519591 -115.861118 
L 397.492914 -115.458992 
L 398.466236 -115.25884 
L 399.439558 -115.402937 
L 400.412881 -115.404974 
L 401.386203 -116.087837 
L 402.359525 -115.740271 
L 403.332848 -115.736435 
L 404.30617 -115.699327 
L 405.279493 -115.594619 
L 406.252815 -116.46898 
L 407.226137 -116.011937 
L 408.19946 -116.538365 
L 409.172782 -117.204264 
L 410.146105 -117.517772 
L 411.119427 -117.950406 
L 412.092749 -117.72849 
L 413.066072 -117.848149 
L 414.039394 -119.767766 
L 415.012716 -122.491755 
L 415.986039 -124.884107 
L 416.959361 -125.654478 
L 417.932684 -125.229327 
L 418.906006 -125.03241 
L 419.879328 -125.246209 
L 420.852651 -125.442725 
L 421.825973 -125.465327 
L 422.799296 -127.851419 
L 423.772618 -127.729828 
L 424.74594 -128.748832 
L 425.719263 -129.201465 
L 426.692585 -128.339122 
L 429.612552 -124.369333 
L 430.585875 -123.928071 
L 431.559197 -124.586322 
L 432.532519 -124.519863 
L 433.505842 -124.846418 
L 434.479164 -124.913396 
L 435.452487 -125.155792 
L 436.425809 -126.319555 
L 437.399131 -124.769802 
L 438.372454 -123.602707 
L 439.345776 -123.209671 
L 440.319099 -121.772461 
L 441.292421 -121.856868 
L 442.265743 -122.298432 
L 443.239066 -122.214917 
L 444.212388 -120.513849 
L 445.185711 -120.198676 
L 446.159033 -119.639227 
L 447.132355 -118.614028 
L 448.105678 -118.671991 
L 449.079 -118.256306 
L 450.052322 -118.259912 
L 451.025645 -118.2493 
L 451.998967 -118.98637 
L 452.97229 -118.586546 
L 453.945612 -118.194562 
L 454.918934 -117.069515 
L 455.892257 -117.410458 
L 456.865579 -120.387029 
L 457.838902 -120.531011 
L 458.812224 -120.524631 
L 459.785546 -120.140281 
L 460.758869 -119.752114 
L 461.732191 -119.472513 
L 462.705514 -119.570823 
L 463.678836 -111.476831 
L 464.652158 -111.649227 
L 465.625481 -112.203385 
L 466.598803 -112.310777 
L 467.572125 -112.421933 
L 468.545448 -112.698885 
L 469.51877 -112.880015 
L 470.492093 -112.456225 
L 471.465415 -112.859218 
L 472.438737 -109.113228 
L 473.41206 -106.24301 
L 474.385382 -106.513704 
L 475.358705 -105.319326 
L 476.332027 -104.849194 
L 477.305349 -103.861819 
L 478.278672 -102.994861 
L 479.251994 -102.535512 
L 480.225317 -102.377341 
L 481.198639 -102.329396 
L 482.171961 -101.927995 
L 483.145284 -101.45827 
L 484.118606 -101.307944 
L 485.091928 -100.588035 
L 486.065251 -100.184712 
L 487.038573 -99.917216 
L 488.011896 -100.53675 
L 488.985218 -100.58601 
L 489.95854 -100.550964 
L 490.931863 -106.316779 
L 491.905185 -106.098921 
L 492.878508 -106.132454 
L 493.85183 -106.10166 
L 494.825152 -105.194424 
L 495.798475 -105.302178 
L 496.771797 -104.96368 
L 497.74512 -104.067893 
L 498.718442 -103.920913 
L 499.691764 -106.988429 
L 500.665087 -110.155687 
L 501.638409 -109.54781 
L 501.638409 -131.748746 
L 501.638409 -131.748746 
L 500.665087 -128.904786 
L 499.691764 -128.839308 
L 498.718442 -129.064718 
L 497.74512 -129.204321 
L 496.771797 -129.810817 
L 495.798475 -128.685584 
L 494.825152 -129.760785 
L 493.85183 -129.954249 
L 492.878508 -130.949315 
L 491.905185 -131.441016 
L 490.931863 -131.648471 
L 489.95854 -133.082674 
L 488.985218 -133.266674 
L 488.011896 -132.739116 
L 487.038573 -136.407023 
L 486.065251 -136.838644 
L 485.091928 -138.284425 
L 484.118606 -139.185447 
L 483.145284 -140.343914 
L 482.171961 -141.318059 
L 481.198639 -141.407684 
L 480.225317 -141.485689 
L 479.251994 -141.659736 
L 478.278672 -142.507354 
L 477.305349 -143.407358 
L 476.332027 -144.65789 
L 475.358705 -144.998224 
L 474.385382 -146.520002 
L 473.41206 -146.414669 
L 472.438737 -146.246003 
L 471.465415 -145.918937 
L 470.492093 -145.885665 
L 469.51877 -146.482259 
L 468.545448 -146.259982 
L 467.572125 -145.797658 
L 466.598803 -145.781038 
L 465.625481 -145.563513 
L 464.652158 -145.015145 
L 463.678836 -144.957544 
L 462.705514 -142.958474 
L 461.732191 -145.301993 
L 460.758869 -145.471433 
L 459.785546 -144.31661 
L 458.812224 -144.762805 
L 457.838902 -144.842217 
L 456.865579 -144.723346 
L 455.892257 -144.399642 
L 454.918934 -143.944722 
L 453.945612 -144.185055 
L 452.97229 -144.857263 
L 451.998967 -145.167509 
L 451.025645 -144.692531 
L 450.052322 -144.714776 
L 449.079 -144.6837 
L 448.105678 -145.458158 
L 447.132355 -144.875415 
L 446.159033 -145.095121 
L 445.185711 -146.658581 
L 444.212388 -147.639423 
L 443.239066 -148.21277 
L 442.265743 -148.457822 
L 441.292421 -148.402884 
L 440.319099 -148.379595 
L 439.345776 -149.744333 
L 438.372454 -151.017862 
L 437.399131 -152.614383 
L 436.425809 -153.311663 
L 435.452487 -152.620847 
L 434.479164 -151.052474 
L 433.505842 -151.028183 
L 432.532519 -150.137214 
L 431.559197 -150.244165 
L 430.585875 -149.737828 
L 429.612552 -150.055921 
L 426.692585 -150.251634 
L 425.719263 -150.710861 
L 424.74594 -150.716278 
L 423.772618 -150.426489 
L 422.799296 -150.503864 
L 421.825973 -151.458863 
L 420.852651 -151.443132 
L 419.879328 -151.230765 
L 418.906006 -150.922507 
L 417.932684 -151.311534 
L 416.959361 -151.722405 
L 415.986039 -150.598038 
L 415.012716 -150.016857 
L 414.039394 -149.791043 
L 413.066072 -149.175216 
L 412.092749 -149.163449 
L 411.119427 -149.290179 
L 410.146105 -147.802521 
L 409.172782 -146.186609 
L 408.19946 -143.884452 
L 407.226137 -142.439476 
L 406.252815 -142.876866 
L 405.279493 -142.363943 
L 404.30617 -142.567723 
L 403.332848 -143.516316 
L 402.359525 -143.585496 
L 401.386203 -144.280218 
L 400.412881 -143.546591 
L 399.439558 -141.531591 
L 398.466236 -140.556734 
L 397.492914 -140.772767 
L 396.519591 -141.427533 
L 395.546269 -141.793177 
L 394.572946 -141.433144 
L 393.599624 -141.82898 
L 392.626302 -143.515296 
L 391.652979 -143.171601 
L 390.679657 -143.365718 
L 389.706334 -142.559675 
L 388.733012 -143.309936 
L 387.75969 -143.989978 
L 386.786367 -144.435773 
L 385.813045 -144.517129 
L 384.839722 -144.564084 
L 383.8664 -144.468459 
L 382.893078 -145.892179 
L 381.919755 -146.236504 
L 380.946433 -146.207231 
L 379.973111 -146.227618 
L 378.999788 -146.130068 
L 378.026466 -146.111628 
L 377.053143 -146.136146 
L 376.079821 -146.82612 
L 375.106499 -146.193908 
L 374.133176 -145.66715 
L 373.159854 -145.665607 
L 372.186531 -145.54026 
L 371.213209 -145.906395 
L 370.239887 -145.820221 
L 369.266564 -145.730026 
L 368.293242 -145.247051 
L 367.319919 -147.048516 
L 366.346597 -147.65744 
L 365.373275 -146.130353 
L 364.399952 -146.623714 
L 363.42663 -145.777903 
L 362.453308 -146.283781 
L 361.479985 -145.534761 
L 360.506663 -144.946906 
L 359.53334 -144.041942 
L 358.560018 -143.602373 
L 357.586696 -143.571662 
L 356.613373 -144.36329 
L 216.454949 -142.818332 
L 215.481627 -142.995018 
L 214.508304 -143.638739 
L 213.534982 -144.07609 
L 212.56166 -144.054717 
L 211.588337 -144.112896 
L 210.615015 -143.874903 
L 209.641692 -141.752534 
L 208.66837 -142.616319 
L 207.695048 -143.537685 
L 206.721725 -147.77544 
L 204.775081 -148.19974 
L 203.801758 -148.277181 
L 202.828436 -148.388473 
L 201.855113 -148.040816 
L 200.881791 -148.273711 
L 199.908469 -146.670779 
L 198.935146 -145.742263 
L 197.961824 -145.408291 
L 196.988501 -144.969271 
L 196.015179 -144.557626 
L 195.041857 -144.805697 
L 194.068534 -145.191275 
L 193.095212 -145.044318 
L 192.121889 -145.134372 
L 191.148567 -144.978781 
L 190.175245 -144.720962 
L 189.201922 -144.093705 
L 188.2286 -144.700994 
L 187.255278 -144.678621 
L 186.281955 -144.193907 
L 185.308633 -146.276333 
L 184.33531 -146.728842 
L 183.361988 -147.908567 
L 182.388666 -148.648654 
L 181.415343 -148.824588 
L 180.442021 -149.013602 
L 179.468698 -148.278802 
L 178.495376 -144.242888 
L 177.522054 -143.79526 
L 176.548731 -143.262222 
L 175.575409 -143.151691 
L 174.602086 -143.150107 
L 173.628764 -143.532817 
L 172.655442 -145.582198 
L 171.682119 -146.252019 
L 170.708797 -147.276081 
L 169.735475 -147.394381 
L 168.762152 -147.393662 
L 167.78883 -146.57099 
L 166.815507 -146.310803 
L 165.842185 -146.145369 
L 164.868863 -146.14811 
L 163.89554 -146.394699 
L 162.922218 -147.983322 
L 161.948895 -147.858284 
L 160.975573 -147.217418 
L 160.002251 -148.542743 
L 159.028928 -148.709412 
L 158.055606 -146.848625 
L 157.082284 -146.938014 
L 156.108961 -145.983765 
L 155.135639 -145.560579 
L 154.162316 -145.624506 
L 153.188994 -144.645028 
L 152.215672 -144.476831 
L 151.242349 -146.33678 
L 150.269027 -146.355512 
L 149.295704 -146.247053 
L 148.322382 -146.242028 
L 147.34906 -146.275139 
L 146.375737 -145.010165 
L 145.402415 -142.699779 
L 144.429092 -141.618166 
L 143.45577 -140.420503 
L 142.482448 -140.10599 
L 141.509125 -140.677304 
L 140.535803 -141.11239 
L 139.562481 -141.432055 
L 138.589158 -141.836132 
L 137.615836 -142.750514 
L 136.642513 -142.602488 
L 135.669191 -139.848074 
L 134.695869 -140.161017 
L 117.176066 -141.052881 
L 116.202743 -137.439357 
L 115.229421 -136.335513 
L 114.256098 -135.256434 
L 113.282776 -132.940684 
L 112.309454 -130.997417 
L 111.336131 -127.780383 
L 110.362809 -124.208201 
L 109.389486 -120.913914 
L 108.416164 -117.994983 
z
"/>
    </defs>
    <g clip-path="url(#paffebc8fa4)">
     <use xlink:href="#m3ef9307e27" x="0" y="220.375797" style="fill: #3a6690; fill-opacity: 0.28"/>
    </g>
   </g>
   <g id="line2d_31">
    <path d="M 108.416164 118.0351 
L 112.309454 107.946096 
L 114.256098 104.273471 
L 116.202743 101.82895 
L 117.176066 99.581261 
L 134.695869 99.913009 
L 135.669191 99.692533 
L 136.642513 97.906805 
L 137.615836 97.381915 
L 138.589158 98.050914 
L 141.509125 97.956907 
L 142.482448 98.198404 
L 143.45577 97.706761 
L 145.402415 95.935306 
L 146.375737 93.551369 
L 147.34906 92.254441 
L 148.322382 92.389519 
L 149.295704 91.216716 
L 150.269027 90.231928 
L 151.242349 90.254745 
L 152.215672 88.430284 
L 153.188994 88.971507 
L 154.162316 88.286992 
L 155.135639 88.348142 
L 156.108961 88.082551 
L 157.082284 87.509383 
L 158.055606 87.575097 
L 159.028928 86.615863 
L 160.002251 86.791099 
L 160.975573 87.564145 
L 161.948895 86.605824 
L 162.922218 86.379477 
L 163.89554 87.661802 
L 164.868863 88.046956 
L 165.842185 87.314981 
L 166.815507 87.879022 
L 167.78883 87.535851 
L 168.762152 86.702568 
L 169.735475 86.705307 
L 170.708797 86.826694 
L 171.682119 87.825173 
L 172.655442 88.21489 
L 173.628764 89.284559 
L 174.602086 89.483525 
L 175.575409 89.002539 
L 176.548731 89.746378 
L 178.495376 88.925873 
L 179.468698 87.221887 
L 180.442021 85.820913 
L 181.415343 85.927698 
L 182.388666 86.304637 
L 183.361988 87.370655 
L 184.33531 88.259612 
L 185.308633 88.805398 
L 186.281955 90.984894 
L 187.255278 90.636248 
L 188.2286 90.617994 
L 189.201922 91.039655 
L 191.148567 90.206372 
L 192.121889 89.97455 
L 193.095212 90.082247 
L 194.068534 89.268131 
L 195.041857 89.865028 
L 196.015179 89.997367 
L 196.988501 89.342058 
L 197.961824 89.017142 
L 199.908469 87.991282 
L 200.881791 87.012882 
L 201.855113 87.19907 
L 202.828436 86.800226 
L 203.801758 86.014403 
L 204.775081 86.070989 
L 206.721725 86.691616 
L 207.695048 88.769804 
L 209.641692 89.949907 
L 210.615015 88.683098 
L 213.534982 89.603999 
L 214.508304 88.621948 
L 215.481627 89.320154 
L 216.454949 90.225539 
L 356.613373 89.395907 
L 357.586696 90.048478 
L 358.560018 90.018359 
L 359.53334 89.662411 
L 360.506663 88.993412 
L 361.479985 88.55806 
L 362.453308 87.659977 
L 363.42663 88.084376 
L 364.399952 87.578748 
L 365.373275 88.00771 
L 366.346597 87.197245 
L 367.319919 87.511209 
L 368.293242 88.755201 
L 369.266564 88.436673 
L 371.213209 88.272389 
L 372.186531 88.585441 
L 373.159854 88.317111 
L 374.133176 88.197549 
L 375.106499 87.784102 
L 376.079821 87.233752 
L 377.053143 87.513034 
L 378.026466 86.432413 
L 378.999788 86.478048 
L 379.973111 85.651154 
L 381.919755 85.91492 
L 382.893078 85.177469 
L 383.8664 86.079204 
L 384.839722 85.817262 
L 385.813045 86.222495 
L 386.786367 87.298553 
L 387.75969 88.815438 
L 388.733012 90.043914 
L 389.706334 90.586963 
L 390.679657 90.053041 
L 391.652979 90.136096 
L 392.626302 89.844948 
L 393.599624 90.581487 
L 394.572946 90.804182 
L 395.546269 91.541633 
L 396.519591 91.731472 
L 397.492914 92.259917 
L 398.466236 92.46801 
L 399.439558 91.908533 
L 400.412881 90.900014 
L 401.386203 90.191769 
L 402.359525 90.712913 
L 403.332848 90.749421 
L 404.30617 91.242272 
L 405.279493 91.396516 
L 406.252815 90.702874 
L 407.226137 91.15009 
L 408.19946 90.164389 
L 409.172782 88.68036 
L 411.119427 86.755504 
L 412.092749 86.929827 
L 413.066072 86.864114 
L 414.039394 85.596392 
L 415.986039 82.634724 
L 416.959361 81.687356 
L 417.932684 82.105366 
L 418.906006 82.398338 
L 420.852651 81.932868 
L 421.825973 81.913702 
L 422.799296 81.198156 
L 423.772618 81.297638 
L 424.74594 80.643242 
L 425.719263 80.419634 
L 429.612552 83.16317 
L 430.585875 83.542847 
L 431.559197 82.960553 
L 432.532519 83.047259 
L 433.505842 82.438497 
L 434.479164 82.392862 
L 436.425809 80.560188 
L 437.399131 81.683705 
L 438.372454 83.065512 
L 439.345776 83.898795 
L 440.319099 85.299769 
L 441.292421 85.245921 
L 442.265743 84.99767 
L 443.239066 85.161953 
L 444.212388 86.299161 
L 445.185711 86.947169 
L 446.159033 88.008623 
L 447.132355 88.631075 
L 448.105678 88.310722 
L 449.079 88.905794 
L 451.025645 88.904881 
L 451.998967 88.298857 
L 452.97229 88.653892 
L 453.945612 89.185989 
L 454.918934 89.868678 
L 455.892257 89.470747 
L 456.865579 87.82061 
L 457.838902 87.689183 
L 458.812224 87.732079 
L 459.785546 88.147351 
L 460.758869 87.764023 
L 461.732191 87.988544 
L 462.705514 89.111148 
L 463.678836 92.158609 
L 464.652158 92.043611 
L 465.625481 91.492348 
L 468.545448 90.896363 
L 469.51877 90.69466 
L 470.492093 91.204852 
L 471.465415 90.986719 
L 472.438737 92.696181 
L 473.41206 94.046958 
L 474.385382 93.858944 
L 475.358705 95.217022 
L 476.332027 95.622255 
L 477.305349 96.741209 
L 478.278672 97.624689 
L 479.251994 98.278173 
L 482.171961 98.75277 
L 485.091928 100.939567 
L 486.065251 101.864118 
L 487.038573 102.213677 
L 488.011896 103.737864 
L 488.985218 103.449455 
L 489.95854 103.558978 
L 490.931863 101.393172 
L 492.878508 101.834913 
L 495.798475 103.381916 
L 496.771797 102.988548 
L 497.74512 103.739689 
L 498.718442 103.882981 
L 501.638409 99.727519 
L 501.638409 99.727519 
" clip-path="url(#paffebc8fa4)" style="fill: none; stroke: #3a6690; stroke-opacity: 0.8; stroke-linecap: square"/>
   </g>
   <g id="line2d_32">
    <path d="M 70.456591 128.680677 
L 71.429913 111.507565 
L 72.403236 104.173216 
L 73.376558 125.818491 
L 74.34988 119.327464 
L 75.323203 92.826696 
L 108.416164 143.911591 
L 109.389486 98.014406 
L 111.336131 86.846773 
L 112.309454 83.856812 
L 113.282776 86.591221 
L 114.256098 81.556841 
L 115.229421 86.897883 
L 116.202743 84.981242 
L 117.176066 65.865933 
L 134.695869 105.22098 
L 135.669191 95.944433 
L 136.642513 65.763712 
L 138.589158 111.4309 
L 139.562481 97.094418 
L 140.535803 95.842212 
L 141.509125 98.95995 
L 142.482448 103.994329 
L 143.45577 85.41568 
L 144.429092 72.995841 
L 145.402415 72.816954 
L 146.375737 61.930428 
L 147.34906 75.19359 
L 148.322382 107.955389 
L 149.295704 92.980027 
L 150.269027 91.753376 
L 151.242349 93.465576 
L 152.215672 92.826696 
L 153.188994 113.168655 
L 154.162316 73.276948 
L 155.135639 88.558973 
L 156.108961 76.420241 
L 157.082284 70.542539 
L 158.055606 83.396818 
L 159.028928 60.039342 
L 160.002251 89.887845 
L 160.975573 87.511209 
L 161.948895 78.387993 
L 163.89554 101.668804 
L 164.868863 98.193293 
L 165.842185 90.935609 
L 166.815507 112.887547 
L 167.78883 86.233448 
L 168.762152 75.628029 
L 169.735475 104.070995 
L 170.708797 88.814525 
L 171.682119 100.953257 
L 172.655442 83.729036 
L 173.628764 91.881152 
L 174.602086 80.764629 
L 175.575409 94.487785 
L 176.548731 113.807535 
L 177.522054 80.125749 
L 178.495376 82.119056 
L 179.468698 45.11509 
L 180.442021 73.941384 
L 181.415343 76.26691 
L 182.388666 99.113281 
L 183.361988 106.268744 
L 184.33531 95.433329 
L 185.308633 98.678842 
L 186.281955 121.065219 
L 187.255278 80.125749 
L 188.2286 87.000104 
L 189.201922 90.194507 
L 190.175245 77.749113 
L 191.148567 90.194507 
L 192.121889 91.702266 
L 193.095212 93.951126 
L 194.068534 90.092287 
L 195.041857 102.946565 
L 196.015179 79.333537 
L 196.988501 85.722343 
L 197.961824 79.716865 
L 198.935146 86.463445 
L 199.908469 69.494775 
L 200.881791 64.485951 
L 201.855113 85.977895 
L 202.828436 83.320152 
L 203.801758 91.804487 
L 204.775081 81.710173 
L 206.721725 99.496609 
L 207.695048 103.304338 
L 208.66837 90.066731 
L 209.641692 93.184469 
L 210.615015 63.642629 
L 211.588337 115.110852 
L 212.56166 102.946565 
L 213.534982 108.10872 
L 214.508304 93.567797 
L 215.481627 99.675496 
L 216.454949 112.350888 
L 356.613373 66.964808 
L 357.586696 96.021099 
L 358.560018 89.351185 
L 359.53334 81.735728 
L 360.506663 75.219146 
L 361.479985 77.902444 
L 362.453308 77.800223 
L 363.42663 91.216716 
L 364.399952 71.564748 
L 365.373275 91.727821 
L 366.346597 63.770405 
L 367.319919 78.285773 
L 368.293242 99.317723 
L 369.266564 77.059122 
L 370.239887 81.556841 
L 371.213209 88.967857 
L 373.159854 91.983373 
L 374.133176 99.956603 
L 375.106499 78.490214 
L 376.079821 77.774668 
L 377.053143 71.462527 
L 378.026466 84.853465 
L 378.999788 104.224326 
L 379.973111 84.955686 
L 380.946433 98.193293 
L 381.919755 102.43546 
L 382.893078 91.702266 
L 383.8664 92.21337 
L 384.839722 88.686749 
L 386.786367 111.865338 
L 387.75969 117.69193 
L 388.733012 112.299777 
L 389.706334 93.005582 
L 390.679657 76.26691 
L 391.652979 73.890274 
L 392.626302 83.575704 
L 393.599624 84.393471 
L 394.572946 84.521247 
L 395.546269 119.966345 
L 396.519591 82.374609 
L 397.492914 96.353317 
L 398.466236 94.794448 
L 399.439558 74.810262 
L 400.412881 63.744849 
L 401.386203 80.125749 
L 402.359525 93.082248 
L 403.332848 78.796877 
L 404.30617 85.262349 
L 405.279493 89.172298 
L 406.252815 84.802355 
L 407.226137 97.477747 
L 408.19946 70.59365 
L 409.172782 60.882664 
L 410.146105 64.690393 
L 411.119427 65.329273 
L 412.092749 93.567797 
L 413.066072 98.857729 
L 414.039394 76.369131 
L 415.012716 76.394686 
L 415.986039 70.670315 
L 416.959361 66.479259 
L 417.932684 87.971203 
L 419.879328 76.26691 
L 420.852651 78.669101 
L 421.825973 83.984588 
L 422.799296 99.931048 
L 423.772618 85.160128 
L 424.74594 78.03022 
L 425.719263 88.533418 
L 426.692585 93.312245 
L 429.612552 122.061873 
L 430.585875 90.756722 
L 431.559197 76.778014 
L 432.532519 81.224623 
L 433.505842 68.217014 
L 434.479164 87.894537 
L 435.452487 59.451572 
L 436.425809 71.513638 
L 437.399131 102.052132 
L 438.372454 99.573275 
L 439.345776 88.022313 
L 440.319099 104.556544 
L 441.292421 92.060039 
L 442.265743 91.906708 
L 443.239066 80.969071 
L 444.212388 108.236496 
L 445.185711 88.814525 
L 446.159033 96.199985 
L 447.132355 105.399866 
L 448.105678 73.123617 
L 449.079 92.928917 
L 450.052322 78.183552 
L 451.025645 84.444582 
L 451.998967 82.962379 
L 452.97229 95.101111 
L 453.945612 92.928917 
L 454.918934 107.648726 
L 455.892257 82.170167 
L 456.865579 75.858026 
L 457.838902 87.07677 
L 458.812224 77.97911 
L 459.785546 92.852251 
L 460.758869 57.483819 
L 461.732191 94.181123 
L 462.705514 90.884499 
L 463.678836 156.842535 
L 464.652158 98.832174 
L 465.625481 84.137919 
L 466.598803 83.473483 
L 467.572125 102.767678 
L 468.545448 81.710173 
L 469.51877 86.259003 
L 470.492093 95.254442 
L 471.465415 102.128798 
L 472.438737 136.679462 
L 473.41206 134.021719 
L 474.385382 100.13549 
L 475.358705 111.149792 
L 476.332027 104.275437 
L 477.305349 109.514258 
L 478.278672 109.18204 
L 479.251994 101.25992 
L 480.225317 99.752162 
L 481.198639 94.692227 
L 482.171961 114.523082 
L 483.145284 102.38435 
L 484.118606 94.181123 
L 485.091928 109.76981 
L 486.065251 103.866553 
L 487.038573 102.639902 
L 488.011896 100.161045 
L 488.985218 86.105671 
L 489.95854 93.951126 
L 490.931863 96.199985 
L 491.905185 104.786541 
L 492.878508 90.552281 
L 493.85183 97.83552 
L 494.825152 118.177479 
L 495.798475 95.254442 
L 496.771797 75.244701 
L 497.74512 116.286392 
L 499.691764 96.889976 
L 500.665087 88.763415 
L 501.638409 68.830339 
L 501.638409 68.830339 
" clip-path="url(#paffebc8fa4)" style="fill: none; stroke: #35e0d0; stroke-width: 1.7; stroke-linecap: square"/>
   </g>
   <g id="line2d_33">
    <path d="M 188.2286 194.562047 
L 188.2286 22.698047 
" clip-path="url(#paffebc8fa4)" style="fill: none; stroke: #ffcf5c; stroke-opacity: 0.5; stroke-width: 0.8; stroke-linecap: square"/>
   </g>
   <g id="line2d_34">
    <defs>
     <path id="m9e5fdfaa6b" d="M 0 3 
C 0.795609 3 1.55874 2.683901 2.12132 2.12132 
C 2.683901 1.55874 3 0.795609 3 0 
C 3 -0.795609 2.683901 -1.55874 2.12132 -2.12132 
C 1.55874 -2.683901 0.795609 -3 0 -3 
C -0.795609 -3 -1.55874 -2.683901 -2.12132 -2.12132 
C -2.683901 -1.55874 -3 -0.795609 -3 0 
C -3 0.795609 -2.683901 1.55874 -2.12132 2.12132 
C -1.55874 2.683901 -0.795609 3 0 3 
z
" style="stroke: #0a0c0f"/>
    </defs>
    <g clip-path="url(#paffebc8fa4)">
     <use xlink:href="#m9e5fdfaa6b" x="188.2286" y="87.000104" style="fill: #ffcf5c; stroke: #0a0c0f"/>
    </g>
   </g>
   <g id="patch_3">
    <path d="M 48.8975 194.562047 
L 48.8975 22.698047 
" style="fill: none; stroke: #2a323c; stroke-width: 0.8; stroke-linejoin: miter; stroke-linecap: square"/>
   </g>
   <g id="patch_4">
    <path d="M 523.1975 194.562047 
L 523.1975 22.698047 
" style="fill: none; stroke: #2a323c; stroke-width: 0.8; stroke-linejoin: miter; stroke-linecap: square"/>
   </g>
   <g id="patch_5">
    <path d="M 48.8975 194.562047 
L 523.1975 194.562047 
" style="fill: none; stroke: #2a323c; stroke-width: 0.8; stroke-linejoin: miter; stroke-linecap: square"/>
   </g>
   <g id="patch_6">
    <path d="M 48.8975 22.698047 
L 523.1975 22.698047 
" style="fill: none; stroke: #2a323c; stroke-width: 0.8; stroke-linejoin: miter; stroke-linecap: square"/>
   </g>
   <g id="text_17">
    <text style="font-size: 12.5px; font-family: 'DejaVu Sans'; text-anchor: start; fill: #e6ebf0" x="48.8975" y="16.698047" transform="rotate(-0 48.8975 16.698047)">Black Sea: daily degraded ratio with 28-day baseline</text>
   </g>
   <g id="legend_1">
    <g id="patch_7">
     <path d="M 361.518125 56.318672 
L 516.8975 56.318672 
Q 518.6975 56.318672 518.6975 54.518672 
L 518.6975 28.998047 
Q 518.6975 27.198047 516.8975 27.198047 
L 361.518125 27.198047 
Q 359.718125 27.198047 359.718125 28.998047 
L 359.718125 54.518672 
Q 359.718125 56.318672 361.518125 56.318672 
L 361.518125 56.318672 
z
" style="fill: none; opacity: 0"/>
    </g>
    <g id="patch_8">
     <path d="M 363.318125 37.636641 
L 381.318125 37.636641 
L 381.318125 31.336641 
L 363.318125 31.336641 
z
" style="fill: #3a6690; fill-opacity: 0.28"/>
    </g>
    <g id="text_18">
     <text style="font-size: 9px; font-family: 'DejaVu Sans'; text-anchor: start; fill: #8b96a3" x="388.518125" y="37.636641" transform="rotate(-0 388.518125 37.636641)">28-day baseline ±1σ</text>
    </g>
    <g id="line2d_35">
     <path d="M 363.318125 47.696953 
L 372.318125 47.696953 
L 381.318125 47.696953 
" style="fill: none; stroke: #35e0d0; stroke-width: 1.7; stroke-linecap: square"/>
    </g>
    <g id="text_19">
     <text style="font-size: 9px; font-family: 'DejaVu Sans'; text-anchor: start; fill: #8b96a3" x="388.518125" y="50.846953" transform="rotate(-0 388.518125 50.846953)">degraded ratio (daily mean)</text>
    </g>
   </g>
  </g>
 </g>
 <defs>
  <clipPath id="paffebc8fa4">
   <rect x="48.8975" y="22.698047" width="474.3" height="171.864"/>
  </clipPath>
 </defs>
</svg>
