<?xml version="1.0" encoding="utf-8" standalone="no"?>
<!DOCTYPE svg PUBLIC "-//W3C//DTD SVG 1.1//EN"
  "http://www.w3.org/Graphics/SVG/1.1/DTD/svg11.dtd">
<svg xmlns:xlink="http://www.w3.org/1999/xlink" width="538.0325pt" height="220.375797pt" viewBox="0 0 538.0325 220.375797" xmlns="http://www.w3.org/2000/svg" version="1.1">
 <metadata>
  <rdf:RDF xmlns:dc="http://purl.org/dc/elements/1.1/" xmlns:cc="http://creativecommons.org/ns#" xmlns:rdf="http://www.w3.org/1999/02/22-rdf-syntax-ns#">
   <cc:Work>
    <dc:type rdf:resource="http://purl.org/dc/dcmitype/StillImage"/>
    <dc:date>2026-07-21T13:52:56.466478</dc:date>
    <dc:format>image/svg+xml</dc:format>
    <dc:creator>
     <cc:Agent>
      <dc:title>Matplotlib v3.10.8, https://matplotlib.org/</dc:title>
     </cc:Agent>
    </dc:creator>
   </cc:Work>
  </rdf:RDF>
 </metadata>
 <defs>
  <style type="text/css">*{stroke-linejoin: round; stroke-linecap: butt}</style>
 </defs>
 <g id="figure_1">
  <g id="patch_1">
   <path d="M 0 220.375797 
L 538.0325 220.375797 
L 538.0325 0 
L 0 0 
z
" style="fill: #0a0c0f"/>
  </g>
  <g id="axes_1">
   <g id="patch_2">
    <path d="M 56.5325 194.562047 
L 530.8325 194.562047 
L 530.8325 22.698047 
L 56.5325 22.698047 
z
" style="fill: #10141a"/>
   </g>
   <g id="matplotlib.axis_1">
    <g id="xtick_1">
     <g id="line2d_1">
      <path d="M 76.144946 194.562047 
L 76.144946 22.698047 
" clip-path="url(#pabc9be5270)" style="fill: none; stroke: #2a323c; stroke-opacity: 0.35; stroke-width: 0.8; stroke-linecap: square"/>
     </g>
     <g id="line2d_2">
      <defs>
       <path id="m8d549edaee" d="M 0 0 
L 0 3.5 
" style="stroke: #8b96a3; stroke-width: 0.8"/>
      </defs>
      <g>
       <use xlink:href="#m8d549edaee" x="76.144946" y="194.562047" style="fill: #8b96a3; stroke: #8b96a3; stroke-width: 0.8"/>
      </g>
     </g>
     <g id="text_1">
      <text style="font-size: 12px; font-family: 'DejaVu Sans'; text-anchor: middle; fill: #8b96a3" x="76.144946" y="210.680172" transform="rotate(-0 76.144946 210.680172)">May 01</text>
     </g>
    </g>
    <g id="xtick_2">
     <g id="line2d_3">
      <path d="M 135.517612 194.562047 
L 135.517612 22.698047 
" clip-path="url(#pabc9be5270)" style="fill: none; stroke: #2a323c; stroke-opacity: 0.35; stroke-width: 0.8; stroke-linecap: square"/>
     </g>
     <g id="line2d_4">
      <g>
       <use xlink:href="#m8d549edaee" x="135.517612" y="194.562047" style="fill: #8b96a3; stroke: #8b96a3; stroke-width: 0.8"/>
      </g>
     </g>
     <g id="text_2">
      <text style="font-size: 12px; font-family: 'DejaVu Sans'; text-anchor: middle; fill: #8b96a3" x="135.517612" y="210.680172" transform="rotate(-0 135.517612 210.680172)">Jul 01</text>
     </g>
    </g>
    <g id="xtick_3">
     <g id="line2d_5">
      <path d="M 195.8636 194.562047 
L 195.8636 22.698047 
" clip-path="url(#pabc9be5270)" style="fill: none; stroke: #2a323c; stroke-opacity: 0.35; stroke-width: 0.8; stroke-linecap: square"/>
     </g>
     <g id="line2d_6">
      <g>
       <use xlink:href="#m8d549edaee" x="195.8636" y="194.562047" style="fill: #8b96a3; stroke: #8b96a3; stroke-width: 0.8"/>
      </g>
     </g>
     <g id="text_3">
      <text style="font-size: 12px; font-family: 'DejaVu Sans'; text-anchor: middle; fill: #8b96a3" x="195.8636" y="210.680172" transform="rotate(-0 195.8636 210.680172)">Sep 01</text>
     </g>
    </g>
    <g id="xtick_4">
     <g id="line2d_7">
      <path d="M 255.236266 194.562047 
L 255.236266 22.698047 
" clip-path="url(#pabc9be5270)" style="fill: none; stroke: #2a323c; stroke-opacity: 0.35; stroke-width: 0.8; stroke-linecap: square"/>
     </g>
     <g id="line2d_8">
      <g>
       <use xlink:href="#m8d549edaee" x="255.236266" y="194.562047" style="fill: #8b96a3; stroke: #8b96a3; stroke-width: 0.8"/>
      </g>
     </g>
     <g id="text_4">
      <text style="font-size: 12px; font-family: 'DejaVu Sans'; text-anchor: middle; fill: #8b96a3" x="255.236266" y="210.680172" transform="rotate(-0 255.236266 210.680172)">Nov 01</text>
     </g>
    </g>
    <g id="xtick_5">
     <g id="line2d_9">
      <path d="M 314.608931 194.562047 
L 314.608931 22.698047 
" clip-path="url(#pabc9be5270)" style="fill: none; stroke: #2a323c; stroke-opacity: 0.35; stroke-width: 0.8; stroke-linecap: square"/>
     </g>
     <g id="line2d_10">
      <g>
       <use xlink:href="#m8d549edaee" x="314.608931" y="194.562047" style="fill: #8b96a3; stroke: #8b96a3; stroke-width: 0.8"/>
      </g>
     </g>
     <g id="text_5">
      <text style="font-size: 12px; font-family: 'DejaVu Sans'; text-anchor: middle; fill: #8b96a3" x="314.608931" y="210.680172" transform="rotate(-0 314.608931 210.680172)">Jan 01</text>
     </g>
    </g>
    <g id="xtick_6">
     <g id="line2d_11">
      <path d="M 372.034952 194.562047 
L 372.034952 22.698047 
" clip-path="url(#pabc9be5270)" style="fill: none; stroke: #2a323c; stroke-opacity: 0.35; stroke-width: 0.8; stroke-linecap: square"/>
     </g>
     <g id="line2d_12">
      <g>
       <use xlink:href="#m8d549edaee" x="372.034952" y="194.562047" style="fill: #8b96a3; stroke: #8b96a3; stroke-width: 0.8"/>
      </g>
     </g>
     <g id="text_6">
      <text style="font-size: 12px; font-family: 'DejaVu Sans'; text-anchor: middle; fill: #8b96a3" x="372.034952" y="210.680172" transform="rotate(-0 372.034952 210.680172)">Mar 01</text>
     </g>
    </g>
    <g id="xtick_7">
     <g id="line2d_13">
      <path d="M 431.407618 194.562047 
L 431.407618 22.698047 
" clip-path="url(#pabc9be5270)" style="fill: none; stroke: #2a323c; stroke-opacity: 0.35; stroke-width: 0.8; stroke-linecap: square"/>
     </g>
     <g id="line2d_14">
      <g>
       <use xlink:href="#m8d549edaee" x="431.407618" y="194.562047" style="fill: #8b96a3; stroke: #8b96a3; stroke-width: 0.8"/>
      </g>
     </g>
     <g id="text_7">
      <text style="font-size: 12px; font-family: 'DejaVu Sans'; text-anchor: middle; fill: #8b96a3" x="431.407618" y="210.680172" transform="rotate(-0 431.407618 210.680172)">May 01</text>
     </g>
    </g>
    <g id="xtick_8">
     <g id="line2d_15">
      <path d="M 490.780284 194.562047 
L 490.780284 22.698047 
" clip-path="url(#pabc9be5270)" style="fill: none; stroke: #2a323c; stroke-opacity: 0.35; stroke-width: 0.8; stroke-linecap: square"/>
     </g>
     <g id="line2d_16">
      <g>
       <use xlink:href="#m8d549edaee" x="490.780284" y="194.562047" style="fill: #8b96a3; stroke: #8b96a3; stroke-width: 0.8"/>
      </g>
     </g>
     <g id="text_8">
      <text style="font-size: 12px; font-family: 'DejaVu Sans'; text-anchor: middle; fill: #8b96a3" x="490.780284" y="210.680172" transform="rotate(-0 490.780284 210.680172)">Jul 01</text>
     </g>
    </g>
   </g>
   <g id="matplotlib.axis_2">
    <g id="ytick_1">
     <g id="line2d_17">
      <path d="M 56.5325 194.562047 
L 530.8325 194.562047 
" clip-path="url(#pabc9be5270)" style="fill: none; stroke: #2a323c; stroke-opacity: 0.35; stroke-width: 0.8; stroke-linecap: square"/>
     </g>
     <g id="line2d_18">
      <defs>
       <path id="maf33ed03d8" d="M 0 0 
L -3.5 0 
" style="stroke: #8b96a3; stroke-width: 0.8"/>
      </defs>
      <g>
       <use xlink:href="#maf33ed03d8" x="56.5325" y="194.562047" style="fill: #8b96a3; stroke: #8b96a3; stroke-width: 0.8"/>
      </g>
     </g>
     <g id="text_9">
      <text style="font-size: 12px; font-family: 'DejaVu Sans'; text-anchor: end; fill: #8b96a3" x="49.5325" y="199.121109" transform="rotate(-0 49.5325 199.121109)">0.00</text>
     </g>
    </g>
    <g id="ytick_2">
     <g id="line2d_19">
      <path d="M 56.5325 169.119936 
L 530.8325 169.119936 
" clip-path="url(#pabc9be5270)" style="fill: none; stroke: #2a323c; stroke-opacity: 0.35; stroke-width: 0.8; stroke-linecap: square"/>
     </g>
     <g id="line2d_20">
      <g>
       <use xlink:href="#maf33ed03d8" x="56.5325" y="169.119936" style="fill: #8b96a3; stroke: #8b96a3; stroke-width: 0.8"/>
      </g>
     </g>
     <g id="text_10">
      <text style="font-size: 12px; font-family: 'DejaVu Sans'; text-anchor: end; fill: #8b96a3" x="49.5325" y="173.678999" transform="rotate(-0 49.5325 173.678999)">0.05</text>
     </g>
    </g>
    <g id="ytick_3">
     <g id="line2d_21">
      <path d="M 56.5325 143.677826 
L 530.8325 143.677826 
" clip-path="url(#pabc9be5270)" style="fill: none; stroke: #2a323c; stroke-opacity: 0.35; stroke-width: 0.8; stroke-linecap: square"/>
     </g>
     <g id="line2d_22">
      <g>
       <use xlink:href="#maf33ed03d8" x="56.5325" y="143.677826" style="fill: #8b96a3; stroke: #8b96a3; stroke-width: 0.8"/>
      </g>
     </g>
     <g id="text_11">
      <text style="font-size: 12px; font-family: 'DejaVu Sans'; text-anchor: end; fill: #8b96a3" x="49.5325" y="148.236889" transform="rotate(-0 49.5325 148.236889)">0.10</text>
     </g>
    </g>
    <g id="ytick_4">
     <g id="line2d_23">
      <path d="M 56.5325 118.235716 
L 530.8325 118.235716 
" clip-path="url(#pabc9be5270)" style="fill: none; stroke: #2a323c; stroke-opacity: 0.35; stroke-width: 0.8; stroke-linecap: square"/>
     </g>
     <g id="line2d_24">
      <g>
       <use xlink:href="#maf33ed03d8" x="56.5325" y="118.235716" style="fill: #8b96a3; stroke: #8b96a3; stroke-width: 0.8"/>
      </g>
     </g>
     <g id="text_12">
      <text style="font-size: 12px; font-family: 'DejaVu Sans'; text-anchor: end; fill: #8b96a3" x="49.5325" y="122.794778" transform="rotate(-0 49.5325 122.794778)">0.15</text>
     </g>
    </g>
    <g id="ytick_5">
     <g id="line2d_25">
      <path d="M 56.5325 92.793605 
L 530.8325 92.793605 
" clip-path="url(#pabc9be5270)" style="fill: none; stroke: #2a323c; stroke-opacity: 0.35; stroke-width: 0.8; stroke-linecap: square"/>
     </g>
     <g id="line2d_26">
      <g>
       <use xlink:href="#maf33ed03d8" x="56.5325" y="92.793605" style="fill: #8b96a3; stroke: #8b96a3; stroke-width: 0.8"/>
      </g>
     </g>
     <g id="text_13">
      <text style="font-size: 12px; font-family: 'DejaVu Sans'; text-anchor: end; fill: #8b96a3" x="49.5325" y="97.352668" transform="rotate(-0 49.5325 97.352668)">0.20</text>
     </g>
    </g>
    <g id="ytick_6">
     <g id="line2d_27">
      <path d="M 56.5325 67.351495 
L 530.8325 67.351495 
" clip-path="url(#pabc9be5270)" style="fill: none; stroke: #2a323c; stroke-opacity: 0.35; stroke-width: 0.8; stroke-linecap: square"/>
     </g>
     <g id="line2d_28">
      <g>
       <use xlink:href="#maf33ed03d8" x="56.5325" y="67.351495" style="fill: #8b96a3; stroke: #8b96a3; stroke-width: 0.8"/>
      </g>
     </g>
     <g id="text_14">
      <text style="font-size: 12px; font-family: 'DejaVu Sans'; text-anchor: end; fill: #8b96a3" x="49.5325" y="71.910557" transform="rotate(-0 49.5325 71.910557)">0.25</text>
     </g>
    </g>
    <g id="ytick_7">
     <g id="line2d_29">
      <path d="M 56.5325 41.909384 
L 530.8325 41.909384 
" clip-path="url(#pabc9be5270)" style="fill: none; stroke: #2a323c; stroke-opacity: 0.35; stroke-width: 0.8; stroke-linecap: square"/>
     </g>
     <g id="line2d_30">
      <g>
       <use xlink:href="#maf33ed03d8" x="56.5325" y="41.909384" style="fill: #8b96a3; stroke: #8b96a3; stroke-width: 0.8"/>
      </g>
     </g>
     <g id="text_15">
      <text style="font-size: 12px; font-family: 'DejaVu Sans'; text-anchor: end; fill: #8b96a3" x="49.5325" y="46.468447" transform="rotate(-0 49.5325 46.468447)">0.30</text>
     </g>
    </g>
    <g id="text_16">
     <text style="font-size: 12px; font-family: 'DejaVu Sans'; text-anchor: middle; fill: #8b96a3" x="16.318125" y="108.630047" transform="rotate(-90 16.318125 108.630047)">degraded ratio</text>
    </g>
   </g>
   <g id="FillBetweenPolyCollection_1">
    <defs>
     <path id="m5df17aa0b8" d="M 116.051164 -63.002453 
L 116.051164 -43.405546 
L 117.024486 -41.565057 
L 117.997809 -39.390184 
L 118.971131 -39.181689 
L 119.944454 -41.366691 
L 120.917776 -43.226072 
L 121.891098 -45.159924 
L 122.864421 -46.962715 
L 123.837743 -47.583873 
L 124.811066 -49.140197 
L 142.330869 -45.939717 
L 143.304191 -44.497845 
L 144.277513 -42.819267 
L 145.250836 -40.982271 
L 146.224158 -39.655796 
L 147.197481 -38.319083 
L 148.170803 -37.450142 
L 149.144125 -37.287819 
L 150.117448 -37.089966 
L 151.09077 -36.57001 
L 152.064092 -35.968378 
L 153.037415 -35.752455 
L 154.010737 -35.378183 
L 154.98406 -34.747493 
L 155.957382 -33.818831 
L 156.930704 -32.737564 
L 157.904027 -31.767513 
L 158.877349 -30.402172 
L 159.850672 -30.566057 
L 160.823994 -30.461957 
L 161.797316 -28.956474 
L 162.770639 -27.829964 
L 163.743961 -26.816783 
L 164.717284 -26.048178 
L 165.690606 -25.464151 
L 166.663928 -25.477767 
L 167.637251 -29.130379 
L 168.610573 -34.977195 
L 169.583895 -35.429371 
L 170.557218 -35.45888 
L 171.53054 -35.216745 
L 172.503863 -35.361992 
L 173.477185 -35.233327 
L 174.450507 -35.183024 
L 175.42383 -34.932324 
L 176.397152 -34.339359 
L 177.370475 -33.741618 
L 178.343797 -33.278808 
L 179.317119 -32.91635 
L 180.290442 -30.54577 
L 181.263764 -30.597944 
L 182.237086 -31.110516 
L 183.210409 -31.27763 
L 184.183731 -31.227646 
L 185.157054 -30.980196 
L 186.130376 -30.893461 
L 187.103698 -31.088331 
L 188.077021 -31.080529 
L 189.050343 -31.138202 
L 190.023666 -31.574847 
L 190.996988 -31.362827 
L 191.97031 -31.203132 
L 192.943633 -31.06841 
L 193.916955 -30.493807 
L 194.890278 -30.362816 
L 195.8636 -30.438749 
L 196.836922 -30.263004 
L 197.810245 -29.939927 
L 198.783567 -30.121689 
L 199.756889 -29.93751 
L 200.730212 -29.974837 
L 201.703534 -30.217892 
L 202.676857 -30.268139 
L 203.650179 -30.719613 
L 204.623501 -31.084876 
L 205.596824 -31.581273 
L 206.570146 -31.704868 
L 207.543469 -36.700934 
L 208.516791 -36.574596 
L 209.490113 -36.717401 
L 210.463436 -36.524439 
L 211.436758 -36.474577 
L 212.410081 -36.546078 
L 214.356725 -36.711196 
L 215.330048 -36.67193 
L 216.30337 -36.758669 
L 217.276692 -36.882726 
L 218.250015 -36.843136 
L 219.223337 -37.054426 
L 220.19666 -37.438956 
L 221.169982 -37.498615 
L 222.143304 -38.024107 
L 223.116627 -38.003628 
L 224.089949 -38.259099 
L 364.248373 -37.107088 
L 365.221696 -36.537575 
L 366.195018 -35.766195 
L 367.16834 -34.992464 
L 368.141663 -34.347831 
L 369.114985 -33.52527 
L 370.088308 -32.823049 
L 371.06163 -30.027875 
L 372.034952 -18.039862 
L 373.008275 -17.602904 
L 373.981597 -16.864365 
L 374.954919 -16.504595 
L 375.928242 -15.84302 
L 376.901564 -15.852047 
L 377.874887 -16.960904 
L 378.848209 -19.246373 
L 379.821531 -21.844106 
L 380.794854 -24.536739 
L 381.768176 -27.288833 
L 382.741499 -30.179622 
L 383.714821 -33.209077 
L 384.688143 -36.036464 
L 385.661466 -39.228921 
L 386.634788 -42.717371 
L 387.608111 -46.6629 
L 388.581433 -50.815731 
L 389.554755 -55.312838 
L 390.528078 -59.954166 
L 391.5014 -66.137267 
L 392.474722 -72.092171 
L 393.448045 -78.595078 
L 394.421367 -86.18528 
L 395.39469 -94.264088 
L 396.368012 -103.268369 
L 397.341334 -114.854216 
L 398.314657 -119.888257 
L 399.287979 -116.678188 
L 400.261302 -117.42678 
L 401.234624 -117.939071 
L 402.207946 -117.981236 
L 403.181269 -117.671607 
L 404.154591 -117.837527 
L 405.127914 -117.343393 
L 406.101236 -117.728734 
L 407.074558 -119.262387 
L 408.047881 -119.440825 
L 409.021203 -119.329311 
L 409.994525 -118.540606 
L 410.967848 -115.921224 
L 411.94117 -115.138273 
L 412.914493 -109.660276 
L 413.887815 -109.084114 
L 414.861137 -109.618545 
L 415.83446 -109.043245 
L 416.807782 -104.904919 
L 417.781105 -104.908039 
L 418.754427 -104.13644 
L 419.727749 -102.101578 
L 420.701072 -97.038045 
L 421.674394 -97.145711 
L 422.647716 -97.062599 
L 423.621039 -95.985553 
L 424.594361 -90.903448 
L 425.567684 -86.877468 
L 426.541006 -83.824443 
L 427.514328 -79.959802 
L 428.487651 -79.776001 
L 429.460973 -78.24694 
L 430.434296 -73.838812 
L 431.407618 -68.777919 
L 432.38094 -65.167748 
L 433.354263 -64.892902 
L 434.327585 -61.993994 
L 437.247552 -58.090282 
L 438.220875 -56.718206 
L 439.194197 -55.86082 
L 440.167519 -53.939029 
L 441.140842 -52.153395 
L 442.114164 -52.958764 
L 443.087487 -51.146746 
L 444.060809 -50.246888 
L 445.034131 -49.423266 
L 446.007454 -49.34448 
L 446.980776 -49.374925 
L 447.954099 -49.405417 
L 448.927421 -49.21375 
L 449.900743 -50.142382 
L 450.874066 -51.389135 
L 451.847388 -52.00951 
L 452.820711 -51.992199 
L 453.794033 -52.90591 
L 454.767355 -50.101732 
L 455.740678 -49.935253 
L 456.714 -49.554821 
L 457.687322 -48.183979 
L 458.660645 -48.053703 
L 459.633967 -48.936363 
L 460.60729 -50.618758 
L 461.580612 -51.46314 
L 462.553934 -50.097652 
L 463.527257 -51.621719 
L 464.500579 -52.682534 
L 465.473902 -52.69461 
L 466.447224 -51.375548 
L 467.420546 -50.980357 
L 468.393869 -52.354458 
L 469.367191 -50.412133 
L 470.340514 -50.188694 
L 471.313836 -50.275493 
L 472.287158 -48.781034 
L 473.260481 -47.458989 
L 474.233803 -48.088429 
L 475.207125 -45.893726 
L 476.180448 -43.616851 
L 477.15377 -42.368961 
L 478.127093 -41.947199 
L 479.100415 -39.73319 
L 480.073737 -37.07682 
L 481.04706 -35.348496 
L 482.020382 -37.823772 
L 482.993705 -44.018407 
L 483.967027 -43.169935 
L 484.940349 -42.718071 
L 485.913672 -42.407358 
L 486.886994 -41.630484 
L 487.860317 -40.551306 
L 488.833639 -39.674927 
L 489.806961 -38.64846 
L 490.780284 -38.572525 
L 491.753606 -38.231874 
L 492.726928 -37.60631 
L 493.700251 -37.556214 
L 494.673573 -37.563617 
L 495.646896 -38.636549 
L 496.620218 -37.826903 
L 497.59354 -37.326178 
L 498.566863 -37.217079 
L 499.540185 -37.263042 
L 500.513508 -37.170101 
L 501.48683 -38.304971 
L 502.460152 -38.339923 
L 503.433475 -38.693674 
L 504.406797 -38.716858 
L 505.38012 -39.749722 
L 506.353442 -39.810121 
L 507.326764 -40.363764 
L 508.300087 -40.47396 
L 509.273409 -40.479997 
L 509.273409 -51.833072 
L 509.273409 -51.833072 
L 508.300087 -51.83184 
L 507.326764 -51.309618 
L 506.353442 -50.224062 
L 505.38012 -49.601159 
L 504.406797 -52.255048 
L 503.433475 -52.925189 
L 502.460152 -52.4866 
L 501.48683 -52.445225 
L 500.513508 -55.688157 
L 499.540185 -55.86781 
L 498.566863 -55.812004 
L 497.59354 -56.128151 
L 496.620218 -56.773264 
L 495.646896 -57.143378 
L 494.673573 -62.36997 
L 493.700251 -62.362296 
L 492.726928 -62.474276 
L 491.753606 -64.223308 
L 490.780284 -64.481961 
L 489.806961 -67.69277 
L 488.833639 -68.434058 
L 487.860317 -69.178435 
L 486.886994 -69.893398 
L 485.913672 -70.560127 
L 484.940349 -72.232015 
L 483.967027 -72.650836 
L 482.993705 -72.755972 
L 482.020382 -88.136152 
L 481.04706 -100.456582 
L 480.073737 -103.91091 
L 479.100415 -106.011273 
L 478.127093 -108.670841 
L 477.15377 -109.089611 
L 476.180448 -110.107011 
L 475.207125 -110.87942 
L 474.233803 -111.862154 
L 473.260481 -111.504063 
L 472.287158 -111.908313 
L 471.313836 -112.158994 
L 470.340514 -111.199705 
L 469.367191 -111.230687 
L 468.393869 -112.355953 
L 467.420546 -111.367573 
L 466.447224 -111.379456 
L 465.473902 -111.888591 
L 464.500579 -111.882494 
L 463.527257 -111.96924 
L 462.553934 -111.185344 
L 461.580612 -112.851102 
L 460.60729 -112.750491 
L 459.633967 -112.681015 
L 458.660645 -112.535086 
L 457.687322 -112.681039 
L 456.714 -115.72622 
L 455.740678 -115.767401 
L 454.767355 -107.579388 
L 453.794033 -96.942674 
L 452.820711 -93.680245 
L 451.847388 -93.528454 
L 450.874066 -95.275552 
L 449.900743 -100.883809 
L 448.927421 -99.947898 
L 447.954099 -100.50859 
L 446.980776 -102.534471 
L 446.007454 -108.496562 
L 445.034131 -108.559525 
L 444.060809 -111.570392 
L 443.087487 -115.835282 
L 442.114164 -117.966792 
L 441.140842 -117.209289 
L 440.167519 -118.894685 
L 439.194197 -119.804238 
L 438.220875 -121.749118 
L 437.247552 -124.476857 
L 434.327585 -127.70784 
L 433.354263 -130.896865 
L 432.38094 -133.496977 
L 431.407618 -135.018843 
L 430.434296 -137.365239 
L 429.460973 -138.812431 
L 428.487651 -143.055095 
L 427.514328 -144.634069 
L 426.541006 -145.239969 
L 425.567684 -144.789309 
L 424.594361 -146.324248 
L 423.621039 -146.032528 
L 422.647716 -146.347529 
L 421.674394 -146.478858 
L 420.701072 -145.961375 
L 419.727749 -145.353846 
L 418.754427 -145.688735 
L 417.781105 -147.021561 
L 416.807782 -146.857491 
L 415.83446 -149.126942 
L 414.861137 -150.161764 
L 413.887815 -149.554934 
L 412.914493 -149.767478 
L 411.94117 -148.883599 
L 410.967848 -148.853008 
L 409.994525 -148.392571 
L 409.021203 -148.799645 
L 408.047881 -148.873495 
L 407.074558 -148.612147 
L 406.101236 -148.08499 
L 405.127914 -147.303628 
L 404.154591 -149.728067 
L 403.181269 -151.391438 
L 402.207946 -153.215311 
L 401.234624 -151.342049 
L 400.261302 -150.389602 
L 399.287979 -150.400372 
L 398.314657 -152.809375 
L 397.341334 -153.416489 
L 396.368012 -158.202023 
L 395.39469 -160.871219 
L 394.421367 -161.920735 
L 393.448045 -162.04186 
L 392.474722 -161.860761 
L 391.5014 -161.146198 
L 390.528078 -159.038806 
L 389.554755 -156.392786 
L 388.581433 -151.912463 
L 387.608111 -148.567141 
L 386.634788 -146.457447 
L 385.661466 -143.996078 
L 384.688143 -140.617201 
L 383.714821 -138.210782 
L 382.741499 -135.243169 
L 381.768176 -131.260953 
L 380.794854 -127.412637 
L 379.821531 -123.206824 
L 378.848209 -120.352676 
L 377.874887 -116.052273 
L 376.901564 -108.111008 
L 375.928242 -99.404294 
L 374.954919 -89.93248 
L 373.981597 -82.692436 
L 373.008275 -75.945924 
L 372.034952 -70.816714 
L 371.06163 -49.476908 
L 370.088308 -44.068466 
L 369.114985 -44.107702 
L 368.141663 -44.459112 
L 367.16834 -44.490513 
L 366.195018 -44.338296 
L 365.221696 -44.388333 
L 364.248373 -44.324027 
L 224.089949 -44.164258 
L 223.116627 -44.027194 
L 222.143304 -44.046696 
L 221.169982 -44.041538 
L 220.19666 -44.039409 
L 219.223337 -43.915097 
L 218.250015 -43.533948 
L 217.276692 -43.330802 
L 216.30337 -43.211342 
L 215.330048 -43.123621 
L 214.356725 -43.189758 
L 212.410081 -43.202224 
L 211.436758 -43.215571 
L 210.463436 -43.227497 
L 209.490113 -43.645145 
L 208.516791 -44.27862 
L 207.543469 -44.42851 
L 206.570146 -53.193643 
L 205.596824 -54.876477 
L 204.623501 -54.576898 
L 203.650179 -54.436954 
L 202.676857 -54.150607 
L 201.703534 -54.124527 
L 200.730212 -53.887817 
L 199.756889 -53.863356 
L 198.783567 -53.988117 
L 197.810245 -53.853669 
L 196.836922 -54.522835 
L 195.8636 -54.986777 
L 194.890278 -57.872246 
L 193.916955 -57.981138 
L 192.943633 -58.286105 
L 191.97031 -58.336747 
L 190.996988 -58.376954 
L 190.023666 -58.46297 
L 189.050343 -58.274467 
L 188.077021 -58.255813 
L 187.103698 -58.258915 
L 186.130376 -58.170288 
L 185.157054 -58.188955 
L 184.183731 -58.25408 
L 183.210409 -58.273153 
L 182.237086 -58.134961 
L 181.263764 -57.717079 
L 180.290442 -57.678389 
L 179.317119 -51.9967 
L 178.343797 -49.922351 
L 177.370475 -50.204631 
L 176.397152 -50.809939 
L 175.42383 -51.452733 
L 174.450507 -51.576396 
L 173.477185 -51.591515 
L 172.503863 -51.648215 
L 171.53054 -51.582656 
L 170.557218 -51.693075 
L 169.583895 -51.304607 
L 168.610573 -50.63006 
L 167.637251 -59.580814 
L 166.663928 -69.27411 
L 165.690606 -72.831449 
L 164.717284 -76.154603 
L 163.743961 -79.794752 
L 162.770639 -82.107218 
L 161.797316 -86.305379 
L 160.823994 -89.143227 
L 159.850672 -89.162704 
L 158.877349 -89.144859 
L 157.904027 -89.851232 
L 156.930704 -90.225979 
L 155.957382 -90.667604 
L 154.98406 -91.036489 
L 154.010737 -91.118179 
L 153.037415 -91.190961 
L 152.064092 -92.106068 
L 151.09077 -93.141284 
L 150.117448 -94.210012 
L 149.144125 -95.254073 
L 148.170803 -96.344313 
L 147.197481 -97.637448 
L 146.224158 -99.017644 
L 145.250836 -100.466055 
L 144.277513 -101.979919 
L 143.304191 -103.577869 
L 142.330869 -105.26521 
L 124.811066 -106.920806 
L 123.837743 -102.847215 
L 122.864421 -95.762079 
L 121.891098 -93.769242 
L 120.917776 -91.520803 
L 119.944454 -87.475301 
L 118.971131 -84.966002 
L 117.997809 -74.180374 
L 117.024486 -61.697207 
L 116.051164 -63.002453 
z
"/>
    </defs>
    <g clip-path="url(#pabc9be5270)">
     <use xlink:href="#m5df17aa0b8" x="0" y="220.375797" style="fill: #3a6690; fill-opacity: 0.28"/>
    </g>
   </g>
   <g id="line2d_31">
    <path d="M 116.051164 167.171798 
L 117.024486 168.744665 
L 118.971131 158.301951 
L 119.944454 155.954801 
L 120.917776 153.00236 
L 122.864421 149.0134 
L 123.837743 145.160253 
L 124.811066 142.345296 
L 142.330869 144.773333 
L 147.197481 152.397531 
L 148.170803 153.478569 
L 150.117448 154.725808 
L 152.064092 156.338574 
L 153.037415 156.904089 
L 154.010737 157.127616 
L 154.98406 157.483806 
L 156.930704 158.894025 
L 157.904027 159.566424 
L 158.877349 160.602281 
L 159.850672 160.511417 
L 160.823994 160.573205 
L 161.797316 162.744871 
L 162.770639 165.407206 
L 163.743961 167.070029 
L 165.690606 171.227997 
L 166.663928 172.999858 
L 167.637251 176.0202 
L 168.610573 177.572169 
L 169.583895 177.008808 
L 170.557218 176.799819 
L 171.53054 176.976097 
L 172.503863 176.870694 
L 175.42383 177.183268 
L 177.370475 178.402672 
L 178.343797 178.775217 
L 179.317119 177.919272 
L 180.290442 176.263718 
L 181.263764 176.218285 
L 182.237086 175.753058 
L 183.210409 175.600405 
L 184.183731 175.634934 
L 186.130376 175.843923 
L 187.103698 175.702174 
L 189.050343 175.669463 
L 190.023666 175.356888 
L 192.943633 175.698539 
L 193.916955 176.138324 
L 194.890278 176.258266 
L 195.8636 177.663034 
L 196.836922 177.982877 
L 197.810245 178.478999 
L 198.783567 178.320894 
L 199.756889 178.475364 
L 200.730212 178.44447 
L 201.703534 178.204587 
L 202.676857 178.166424 
L 205.596824 177.146922 
L 206.570146 177.926541 
L 207.543469 179.811075 
L 209.490113 180.194524 
L 210.463436 180.499829 
L 212.410081 180.501646 
L 218.250015 180.187254 
L 220.19666 179.636615 
L 221.169982 179.605721 
L 222.143304 179.340396 
L 223.116627 179.360386 
L 224.089949 179.164118 
L 364.248373 179.660239 
L 365.221696 179.912843 
L 367.16834 180.634309 
L 368.141663 180.972325 
L 369.114985 181.559311 
L 370.088308 181.930039 
L 371.06163 180.623405 
L 372.034952 175.947509 
L 373.008275 173.601382 
L 373.981597 170.597396 
L 374.954919 167.157259 
L 377.874887 153.869209 
L 378.848209 150.576273 
L 379.821531 147.850332 
L 382.741499 137.664402 
L 383.714821 134.665867 
L 384.688143 132.048964 
L 386.634788 125.788388 
L 387.608111 122.760777 
L 388.581433 119.0117 
L 389.554755 114.522985 
L 390.528078 110.879311 
L 391.5014 106.734064 
L 393.448045 100.057328 
L 395.39469 92.808144 
L 397.341334 86.240445 
L 398.314657 84.026981 
L 399.287979 86.836517 
L 400.261302 86.467606 
L 401.234624 85.735237 
L 402.207946 84.777523 
L 403.181269 85.844275 
L 404.154591 86.592999 
L 405.127914 88.052286 
L 406.101236 87.468935 
L 407.074558 86.43853 
L 408.047881 86.218637 
L 409.021203 86.311319 
L 409.994525 86.909209 
L 410.967848 87.988681 
L 411.94117 88.364861 
L 412.914493 90.66192 
L 413.887815 91.056273 
L 414.861137 90.485642 
L 415.83446 91.290703 
L 416.807782 94.494592 
L 417.781105 94.410997 
L 419.727749 96.648085 
L 420.701072 98.876087 
L 421.674394 98.563512 
L 422.647716 98.670733 
L 423.621039 99.366756 
L 424.594361 101.761949 
L 425.567684 104.542408 
L 426.541006 105.843591 
L 427.514328 108.078862 
L 428.487651 108.960249 
L 430.434296 114.773771 
L 431.407618 118.477416 
L 432.38094 121.043434 
L 433.354263 122.480914 
L 434.327585 125.52488 
L 437.247552 129.092228 
L 438.220875 131.142135 
L 440.167519 133.95894 
L 441.140842 135.694455 
L 442.114164 134.913019 
L 443.087487 136.884783 
L 444.060809 139.467157 
L 445.034131 141.384402 
L 446.007454 141.455276 
L 446.980776 144.421099 
L 447.954099 145.418793 
L 448.927421 145.794973 
L 449.900743 144.862701 
L 450.874066 147.043454 
L 451.847388 147.606815 
L 452.820711 147.539575 
L 453.794033 145.451505 
L 455.740678 137.52447 
L 456.714 137.735276 
L 457.687322 139.943288 
L 458.660645 140.081402 
L 459.633967 139.567108 
L 460.60729 138.691172 
L 461.580612 138.218676 
L 462.553934 139.734299 
L 463.527257 138.580318 
L 464.500579 138.093283 
L 465.473902 138.084196 
L 466.447224 138.998295 
L 467.420546 139.201832 
L 468.393869 138.020591 
L 469.367191 139.554387 
L 470.340514 139.681597 
L 471.313836 139.158553 
L 473.260481 140.894271 
L 474.233803 140.400505 
L 476.180448 143.513866 
L 477.15377 144.646511 
L 478.127093 145.066777 
L 481.04706 152.473258 
L 482.993705 161.988607 
L 484.940349 162.900754 
L 485.913672 163.892054 
L 486.886994 164.613856 
L 489.806961 167.205182 
L 490.780284 168.848554 
L 491.753606 169.148205 
L 492.726928 170.335504 
L 494.673573 170.409003 
L 495.646896 172.485833 
L 497.59354 173.648632 
L 498.566863 173.861255 
L 499.540185 173.810371 
L 500.513508 173.946668 
L 501.48683 175.000699 
L 502.460152 174.962535 
L 503.433475 174.566365 
L 504.406797 174.889844 
L 505.38012 175.700357 
L 506.353442 175.358705 
L 507.326764 174.539106 
L 508.300087 174.222897 
L 509.273409 174.219262 
L 509.273409 174.219262 
" clip-path="url(#pabc9be5270)" style="fill: none; stroke: #3a6690; stroke-opacity: 0.8; stroke-linecap: square"/>
   </g>
   <g id="line2d_32">
    <path d="M 78.091591 172.630948 
L 79.064913 173.903053 
L 80.038236 160.927577 
L 81.011558 159.859008 
L 81.98488 162.606756 
L 82.958203 154.872355 
L 116.051164 185.402887 
L 117.024486 179.754739 
L 117.997809 122.357338 
L 118.971131 110.704851 
L 119.944454 132.483297 
L 120.917776 120.525506 
L 121.891098 125.817465 
L 122.864421 124.341822 
L 123.837743 91.216194 
L 124.811066 100.120933 
L 142.330869 183.621939 
L 143.304191 172.936253 
L 145.250836 181.484802 
L 146.224158 178.787938 
L 147.197481 180.925076 
L 148.170803 177.261412 
L 149.144125 168.509326 
L 150.117448 169.628779 
L 151.09077 175.378696 
L 152.064092 177.617601 
L 153.037415 172.17299 
L 154.010737 178.889707 
L 154.98406 183.876361 
L 155.957382 179.093244 
L 156.930704 181.179497 
L 157.904027 181.433918 
L 158.877349 183.876361 
L 159.850672 182.858676 
L 160.823994 181.484802 
L 161.797316 183.163981 
L 162.770639 185.250234 
L 163.743961 179.04236 
L 164.717284 182.248065 
L 165.690606 180.518002 
L 166.663928 173.953937 
L 167.637251 175.785769 
L 168.610573 143.576058 
L 169.583895 167.847831 
L 170.557218 167.084568 
L 171.53054 182.400718 
L 172.503863 178.533517 
L 173.477185 181.383034 
L 174.450507 181.840992 
L 175.42383 182.502487 
L 176.397152 185.809961 
L 177.370475 186.471456 
L 178.343797 185.809961 
L 179.317119 153.651133 
L 180.290442 125.817465 
L 181.263764 177.617601 
L 182.237086 170.85 
L 183.210409 174.818969 
L 184.183731 182.146297 
L 185.157054 185.809961 
L 186.130376 185.352003 
L 187.103698 178.889707 
L 188.077021 181.637455 
L 189.050343 182.095413 
L 190.023666 176.498148 
L 190.996988 183.214866 
L 191.97031 185.046698 
L 192.943633 183.113097 
L 193.916955 186.267919 
L 194.890278 179.144128 
L 195.8636 182.90956 
L 196.836922 176.803454 
L 197.810245 180.97596 
L 198.783567 177.973791 
L 199.756889 182.858676 
L 200.730212 180.518002 
L 201.703534 175.124275 
L 202.676857 181.433918 
L 203.650179 175.480464 
L 204.623501 179.398549 
L 205.596824 174.666317 
L 206.570146 175.480464 
L 208.516791 181.484802 
L 209.490113 177.71937 
L 210.463436 183.367518 
L 211.436758 183.011329 
L 212.410081 184.995813 
L 214.356725 183.214866 
L 215.330048 180.365349 
L 216.30337 179.195012 
L 217.276692 178.68617 
L 218.250015 174.208359 
L 219.223337 174.920738 
L 220.19666 177.922907 
L 221.169982 182.248065 
L 222.143304 178.838823 
L 223.116627 179.703854 
L 224.089949 177.414064 
L 364.248373 190.694846 
L 365.221696 188.048867 
L 366.195018 189.473625 
L 367.16834 191.559878 
L 368.141663 189.982467 
L 369.114985 191.559878 
L 370.088308 191.814299 
L 371.06163 138.894709 
L 372.034952 48.473449 
L 373.008275 108.974787 
L 373.981597 91.368847 
L 374.954919 82.260572 
L 375.928242 58.141451 
L 376.901564 55.699008 
L 377.874887 56.665808 
L 378.848209 90.809121 
L 379.821531 108.669482 
L 380.794854 86.636615 
L 381.768176 87.959604 
L 382.741499 82.972951 
L 383.714821 94.727206 
L 384.688143 100.935081 
L 385.661466 82.922066 
L 386.634788 94.625437 
L 387.608111 97.474954 
L 388.581433 73.864675 
L 389.554755 54.019829 
L 390.528078 75.391202 
L 391.5014 74.627938 
L 392.474722 94.676321 
L 393.448045 95.897543 
L 394.421367 86.992804 
L 395.39469 91.572384 
L 396.368012 102.868681 
L 397.341334 96.609922 
L 398.314657 76.917728 
L 399.287979 127.140454 
L 401.234624 70.862506 
L 402.207946 55.444587 
L 403.181269 88.010488 
L 404.154591 76.663307 
L 405.127914 97.525838 
L 406.101236 74.475286 
L 407.074558 79.818129 
L 408.047881 80.479624 
L 409.994525 99.713859 
L 410.967848 124.952433 
L 411.94117 111.468114 
L 412.914493 147.239722 
L 413.887815 105.667313 
L 414.861137 81.497308 
L 415.83446 96.406385 
L 416.807782 143.72871 
L 417.781105 73.050528 
L 418.754427 104.089902 
L 419.727749 127.852833 
L 420.701072 158.281597 
L 421.674394 78.240718 
L 422.647716 94.574553 
L 423.621039 122.357338 
L 424.594361 163.675325 
L 425.567684 154.770586 
L 426.541006 163.573556 
L 427.514328 161.232882 
L 428.487651 95.541353 
L 429.460973 136.24873 
L 430.434296 169.984968 
L 431.407618 180.365349 
L 432.38094 169.374358 
L 433.354263 114.724704 
L 434.327585 165.049199 
L 437.247552 180.365349 
L 438.220875 147.952101 
L 439.194197 138.945594 
L 440.167519 164.591241 
L 441.140842 160.062545 
L 442.114164 125.359507 
L 443.087487 160.876693 
L 444.060809 153.803786 
L 445.034131 150.089238 
L 446.007454 145.713195 
L 446.980776 156.093576 
L 447.954099 132.025339 
L 448.927421 138.385867 
L 449.900743 132.177992 
L 450.874066 139.301783 
L 451.847388 110.348661 
L 452.820711 120.474621 
L 453.794033 105.209355 
L 454.767355 45.11509 
L 455.740678 51.272081 
L 456.714 167.135452 
L 457.687322 157.365681 
L 458.660645 140.115931 
L 459.633967 155.584734 
L 461.580612 156.14446 
L 462.553934 157.162145 
L 463.527257 132.737719 
L 464.500579 166.728378 
L 465.473902 147.69768 
L 466.447224 164.540357 
L 467.420546 170.290274 
L 468.393869 126.987802 
L 469.367191 168.305789 
L 470.340514 164.438588 
M 472.287158 173.648632 
L 473.260481 169.018168 
L 474.233803 142.76191 
L 475.207125 174.920738 
L 476.180448 179.551202 
L 477.15377 162.759409 
L 478.127093 150.648964 
L 479.100415 176.141959 
L 480.073737 184.690508 
L 481.04706 175.175159 
L 482.020382 178.024675 
L 482.993705 175.276927 
L 483.967027 180.00916 
L 484.940349 169.119936 
L 485.913672 166.881031 
L 486.886994 175.07339 
L 487.860317 180.060044 
L 488.833639 178.024675 
L 489.806961 181.026844 
L 490.780284 177.108759 
L 491.753606 174.818969 
L 492.726928 179.754739 
L 493.700251 166.728378 
L 494.673573 170.086737 
L 495.646896 183.062213 
L 496.620218 184.23255 
L 497.59354 179.907391 
L 498.566863 179.602086 
L 499.540185 172.223874 
L 500.513508 172.834485 
L 501.48683 172.274758 
L 502.460152 173.852169 
L 503.433475 168.458442 
L 504.406797 171.8168 
L 505.38012 173.343327 
L 506.353442 166.575725 
L 507.326764 161.741724 
L 508.300087 166.321304 
L 509.273409 177.922907 
L 509.273409 177.922907 
" clip-path="url(#pabc9be5270)" style="fill: none; stroke: #35e0d0; stroke-width: 1.7; stroke-linecap: square"/>
   </g>
   <g id="patch_3">
    <path d="M 56.5325 194.562047 
L 56.5325 22.698047 
" style="fill: none; stroke: #2a323c; stroke-width: 0.8; stroke-linejoin: miter; stroke-linecap: square"/>
   </g>
   <g id="patch_4">
    <path d="M 530.8325 194.562047 
L 530.8325 22.698047 
" style="fill: none; stroke: #2a323c; stroke-width: 0.8; stroke-linejoin: miter; stroke-linecap: square"/>
   </g>
   <g id="patch_5">
    <path d="M 56.5325 194.562047 
L 530.8325 194.562047 
" style="fill: none; stroke: #2a323c; stroke-width: 0.8; stroke-linejoin: miter; stroke-linecap: square"/>
   </g>
   <g id="patch_6">
    <path d="M 56.5325 22.698047 
L 530.8325 22.698047 
" style="fill: none; stroke: #2a323c; stroke-width: 0.8; stroke-linejoin: miter; stroke-linecap: square"/>
   </g>
   <g id="text_17">
    <text style="font-size: 12.5px; font-family: 'DejaVu Sans'; text-anchor: start; fill: #e6ebf0" x="56.5325" y="16.698047" transform="rotate(-0 56.5325 16.698047)">Eastern Mediterranean: daily degraded ratio with 28-day baseline</text>
   </g>
   <g id="legend_1">
    <g id="patch_7">
     <path d="M 369.153125 56.318672 
L 524.5325 56.318672 
Q 526.3325 56.318672 526.3325 54.518672 
L 526.3325 28.998047 
Q 526.3325 27.198047 524.5325 27.198047 
L 369.153125 27.198047 
Q 367.353125 27.198047 367.353125 28.998047 
L 367.353125 54.518672 
Q 367.353125 56.318672 369.153125 56.318672 
L 369.153125 56.318672 
z
" style="fill: none; opacity: 0"/>
    </g>
    <g id="patch_8">
     <path d="M 370.953125 37.636641 
L 388.953125 37.636641 
L 388.953125 31.336641 
L 370.953125 31.336641 
z
" style="fill: #3a6690; fill-opacity: 0.28"/>
    </g>
    <g id="text_18">
     <text style="font-size: 9px; font-family: 'DejaVu Sans'; text-anchor: start; fill: #8b96a3" x="396.153125" y="37.636641" transform="rotate(-0 396.153125 37.636641)">28-day baseline ±1σ</text>
    </g>
    <g id="line2d_33">
     <path d="M 370.953125 47.696953 
L 379.953125 47.696953 
L 388.953125 47.696953 
" style="fill: none; stroke: #35e0d0; stroke-width: 1.7; stroke-linecap: square"/>
    </g>
    <g id="text_19">
     <text style="font-size: 9px; font-family: 'DejaVu Sans'; text-anchor: start; fill: #8b96a3" x="396.153125" y="50.846953" transform="rotate(-0 396.153125 50.846953)">degraded ratio (daily mean)</text>
    </g>
   </g>
  </g>
 </g>
 <defs>
  <clipPath id="pabc9be5270">
   <rect x="56.5325" y="22.698047" width="474.3" height="171.864"/>
  </clipPath>
 </defs>
</svg>
